<ttFont>
<head>
    <!-- Most of this table will be recalculated by the compiler -->
    <tableVersion value="1.0"/>
    <fontRevision value="5.0"/>
    <checkSumAdjustment value="0x7c9bb92c"/>
    <magicNumber value="0x5f0f3cf5"/>
    <flags value="00000000 00001011"/>
    <unitsPerEm value="2048"/>
    <created value="Sun May 15 08:57:39 2005"/>
    <modified value="Fri Apr 15 06:19:41 2011"/>
    <xMin value="-39"/>
    <yMin value="-1021"/>
    <xMax value="6384"/>
    <yMax value="2123"/>
    <macStyle value="00000000 00000000"/>
    <lowestRecPPEM value="8"/>
    <fontDirectionHint value="2"/>
    <indexToLocFormat value="0"/>
    <glyphDataFormat value="0"/>
  </head>
    <TTGlyph name=".notdef" xMin="142" yMin="226" xMax="842" yMax="1588">
      <contour>
        <pt x="142" y="226" on="1"/>
        <pt x="142" y="1588" on="1"/>
        <pt x="842" y="1588" on="1"/>
        <pt x="842" y="226" on="1"/>
      </contour>
      <contour>
        <pt x="284" y="368" on="1"/>
        <pt x="700" y="368" on="1"/>
        <pt x="700" y="1447" on="1"/>
        <pt x="284" y="1447" on="1"/>
      </contour>
    </TTGlyph>
    <TTGlyph name=".null" xMin="142" yMin="226" xMax="842" yMax="1588">
      <contour>
        <pt x="142" y="226" on="1"/>
        <pt x="142" y="1588" on="1"/>
        <pt x="842" y="1588" on="1"/>
        <pt x="842" y="226" on="1"/>
      </contour>
      <contour>
        <pt x="284" y="368" on="1"/>
        <pt x="700" y="368" on="1"/>
        <pt x="700" y="1447" on="1"/>
        <pt x="284" y="1447" on="1"/>
      </contour>
    </TTGlyph>
    <TTGlyph name="afii57381" xMin="142" yMin="226" xMax="842" yMax="1588">
      <contour>
        <pt x="142" y="226" on="1"/>
        <pt x="142" y="1588" on="1"/>
        <pt x="842" y="1588" on="1"/>
        <pt x="842" y="226" on="1"/>
      </contour>
      <contour>
        <pt x="284" y="368" on="1"/>
        <pt x="700" y="368" on="1"/>
        <pt x="700" y="1447" on="1"/>
        <pt x="284" y="1447" on="1"/>
      </contour>
    </TTGlyph>
    <TTGlyph name="afii57388" xMin="142" yMin="226" xMax="842" yMax="1588">
      <contour>
        <pt x="142" y="226" on="1"/>
        <pt x="142" y="1588" on="1"/>
        <pt x="842" y="1588" on="1"/>
        <pt x="842" y="226" on="1"/>
      </contour>
      <contour>
        <pt x="284" y="368" on="1"/>
        <pt x="700" y="368" on="1"/>
        <pt x="700" y="1447" on="1"/>
        <pt x="284" y="1447" on="1"/>
      </contour>
    </TTGlyph>
    <TTGlyph name="afii57396" xMin="142" yMin="226" xMax="842" yMax="1588">
      <contour>
        <pt x="142" y="226" on="1"/>
        <pt x="142" y="1588" on="1"/>
        <pt x="842" y="1588" on="1"/>
        <pt x="842" y="226" on="1"/>
      </contour>
      <contour>
        <pt x="284" y="368" on="1"/>
        <pt x="700" y="368" on="1"/>
        <pt x="700" y="1447" on="1"/>
        <pt x="284" y="1447" on="1"/>
      </contour>
    </TTGlyph>
    <TTGlyph name="afii57397" xMin="142" yMin="226" xMax="842" yMax="1588">
      <contour>
        <pt x="142" y="226" on="1"/>
        <pt x="142" y="1588" on="1"/>
        <pt x="842" y="1588" on="1"/>
        <pt x="842" y="226" on="1"/>
      </contour>
      <contour>
        <pt x="284" y="368" on="1"/>
        <pt x="700" y="368" on="1"/>
        <pt x="700" y="1447" on="1"/>
        <pt x="284" y="1447" on="1"/>
      </contour>
    </TTGlyph>
    <TTGlyph name="afii57398" xMin="142" yMin="226" xMax="842" yMax="1588">
      <contour>
        <pt x="142" y="226" on="1"/>
        <pt x="142" y="1588" on="1"/>
        <pt x="842" y="1588" on="1"/>
        <pt x="842" y="226" on="1"/>
      </contour>
      <contour>
        <pt x="284" y="368" on="1"/>
        <pt x="700" y="368" on="1"/>
        <pt x="700" y="1447" on="1"/>
        <pt x="284" y="1447" on="1"/>
      </contour>
    </TTGlyph>
    <TTGlyph name="afii57403" xMin="142" yMin="226" xMax="842" yMax="1588">
      <contour>
        <pt x="142" y="226" on="1"/>
        <pt x="142" y="1588" on="1"/>
        <pt x="842" y="1588" on="1"/>
        <pt x="842" y="226" on="1"/>
      </contour>
      <contour>
        <pt x="284" y="368" on="1"/>
        <pt x="700" y="368" on="1"/>
        <pt x="700" y="1447" on="1"/>
        <pt x="284" y="1447" on="1"/>
      </contour>
    </TTGlyph>
    <TTGlyph name="afii57407" xMin="142" yMin="226" xMax="842" yMax="1588">
      <contour>
        <pt x="142" y="226" on="1"/>
        <pt x="142" y="1588" on="1"/>
        <pt x="842" y="1588" on="1"/>
        <pt x="842" y="226" on="1"/>
      </contour>
      <contour>
        <pt x="284" y="368" on="1"/>
        <pt x="700" y="368" on="1"/>
        <pt x="700" y="1447" on="1"/>
        <pt x="284" y="1447" on="1"/>
      </contour>
    </TTGlyph>
    <TTGlyph name="afii57440" xMin="142" yMin="226" xMax="842" yMax="1588">
      <contour>
        <pt x="142" y="226" on="1"/>
        <pt x="142" y="1588" on="1"/>
        <pt x="842" y="1588" on="1"/>
        <pt x="842" y="226" on="1"/>
      </contour>
      <contour>
        <pt x="284" y="368" on="1"/>
        <pt x="700" y="368" on="1"/>
        <pt x="700" y="1447" on="1"/>
        <pt x="284" y="1447" on="1"/>
      </contour>
    </TTGlyph>
    <TTGlyph name="afii57451" xMin="142" yMin="226" xMax="842" yMax="1588">
      <contour>
        <pt x="142" y="226" on="1"/>
        <pt x="142" y="1588" on="1"/>
        <pt x="842" y="1588" on="1"/>
        <pt x="842" y="226" on="1"/>
      </contour>
      <contour>
        <pt x="284" y="368" on="1"/>
        <pt x="700" y="368" on="1"/>
        <pt x="700" y="1447" on="1"/>
        <pt x="284" y="1447" on="1"/>
      </contour>
    </TTGlyph>
    <TTGlyph name="afii57452" xMin="142" yMin="226" xMax="842" yMax="1588">
      <contour>
        <pt x="142" y="226" on="1"/>
        <pt x="142" y="1588" on="1"/>
        <pt x="842" y="1588" on="1"/>
        <pt x="842" y="226" on="1"/>
      </contour>
      <contour>
        <pt x="284" y="368" on="1"/>
        <pt x="700" y="368" on="1"/>
        <pt x="700" y="1447" on="1"/>
        <pt x="284" y="1447" on="1"/>
      </contour>
    </TTGlyph>
    <TTGlyph name="afii57453" xMin="142" yMin="226" xMax="842" yMax="1588">
      <contour>
        <pt x="142" y="226" on="1"/>
        <pt x="142" y="1588" on="1"/>
        <pt x="842" y="1588" on="1"/>
        <pt x="842" y="226" on="1"/>
      </contour>
      <contour>
        <pt x="284" y="368" on="1"/>
        <pt x="700" y="368" on="1"/>
        <pt x="700" y="1447" on="1"/>
        <pt x="284" y="1447" on="1"/>
      </contour>
    </TTGlyph>
    <TTGlyph name="afii57454" xMin="142" yMin="226" xMax="842" yMax="1588">
      <contour>
        <pt x="142" y="226" on="1"/>
        <pt x="142" y="1588" on="1"/>
        <pt x="842" y="1588" on="1"/>
        <pt x="842" y="226" on="1"/>
      </contour>
      <contour>
        <pt x="284" y="368" on="1"/>
        <pt x="700" y="368" on="1"/>
        <pt x="700" y="1447" on="1"/>
        <pt x="284" y="1447" on="1"/>
      </contour>
    </TTGlyph>
    <TTGlyph name="afii57455" xMin="142" yMin="226" xMax="842" yMax="1588">
      <contour>
        <pt x="142" y="226" on="1"/>
        <pt x="142" y="1588" on="1"/>
        <pt x="842" y="1588" on="1"/>
        <pt x="842" y="226" on="1"/>
      </contour>
      <contour>
        <pt x="284" y="368" on="1"/>
        <pt x="700" y="368" on="1"/>
        <pt x="700" y="1447" on="1"/>
        <pt x="284" y="1447" on="1"/>
      </contour>
    </TTGlyph>
    <TTGlyph name="afii57456" xMin="142" yMin="226" xMax="842" yMax="1588">
      <contour>
        <pt x="142" y="226" on="1"/>
        <pt x="142" y="1588" on="1"/>
        <pt x="842" y="1588" on="1"/>
        <pt x="842" y="226" on="1"/>
      </contour>
      <contour>
        <pt x="284" y="368" on="1"/>
        <pt x="700" y="368" on="1"/>
        <pt x="700" y="1447" on="1"/>
        <pt x="284" y="1447" on="1"/>
      </contour>
    </TTGlyph>
    <TTGlyph name="afii57457" xMin="142" yMin="226" xMax="842" yMax="1588">
      <contour>
        <pt x="142" y="226" on="1"/>
        <pt x="142" y="1588" on="1"/>
        <pt x="842" y="1588" on="1"/>
        <pt x="842" y="226" on="1"/>
      </contour>
      <contour>
        <pt x="284" y="368" on="1"/>
        <pt x="700" y="368" on="1"/>
        <pt x="700" y="1447" on="1"/>
        <pt x="284" y="1447" on="1"/>
      </contour>
    </TTGlyph>
    <TTGlyph name="afii57458" xMin="142" yMin="226" xMax="842" yMax="1588">
      <contour>
        <pt x="142" y="226" on="1"/>
        <pt x="142" y="1588" on="1"/>
        <pt x="842" y="1588" on="1"/>
        <pt x="842" y="226" on="1"/>
      </contour>
      <contour>
        <pt x="284" y="368" on="1"/>
        <pt x="700" y="368" on="1"/>
        <pt x="700" y="1447" on="1"/>
        <pt x="284" y="1447" on="1"/>
      </contour>
    </TTGlyph>
    <TTGlyph name="afii57505" xMin="142" yMin="226" xMax="842" yMax="1588">
      <contour>
        <pt x="142" y="226" on="1"/>
        <pt x="142" y="1588" on="1"/>
        <pt x="842" y="1588" on="1"/>
        <pt x="842" y="226" on="1"/>
      </contour>
      <contour>
        <pt x="284" y="368" on="1"/>
        <pt x="700" y="368" on="1"/>
        <pt x="700" y="1447" on="1"/>
        <pt x="284" y="1447" on="1"/>
      </contour>
    </TTGlyph>
    <TTGlyph name="afii57506" xMin="142" yMin="226" xMax="842" yMax="1588">
      <contour>
        <pt x="142" y="226" on="1"/>
        <pt x="142" y="1588" on="1"/>
        <pt x="842" y="1588" on="1"/>
        <pt x="842" y="226" on="1"/>
      </contour>
      <contour>
        <pt x="284" y="368" on="1"/>
        <pt x="700" y="368" on="1"/>
        <pt x="700" y="1447" on="1"/>
        <pt x="284" y="1447" on="1"/>
      </contour>
    </TTGlyph>
    <TTGlyph name="afii57507" xMin="142" yMin="226" xMax="842" yMax="1588">
      <contour>
        <pt x="142" y="226" on="1"/>
        <pt x="142" y="1588" on="1"/>
        <pt x="842" y="1588" on="1"/>
        <pt x="842" y="226" on="1"/>
      </contour>
      <contour>
        <pt x="284" y="368" on="1"/>
        <pt x="700" y="368" on="1"/>
        <pt x="700" y="1447" on="1"/>
        <pt x="284" y="1447" on="1"/>
      </contour>
    </TTGlyph>
    <TTGlyph name="afii57508" xMin="142" yMin="226" xMax="842" yMax="1588">
      <contour>
        <pt x="142" y="226" on="1"/>
        <pt x="142" y="1588" on="1"/>
        <pt x="842" y="1588" on="1"/>
        <pt x="842" y="226" on="1"/>
      </contour>
      <contour>
        <pt x="284" y="368" on="1"/>
        <pt x="700" y="368" on="1"/>
        <pt x="700" y="1447" on="1"/>
        <pt x="284" y="1447" on="1"/>
      </contour>
    </TTGlyph>
    <TTGlyph name="afii57509" xMin="142" yMin="226" xMax="842" yMax="1588">
      <contour>
        <pt x="142" y="226" on="1"/>
        <pt x="142" y="1588" on="1"/>
        <pt x="842" y="1588" on="1"/>
        <pt x="842" y="226" on="1"/>
      </contour>
      <contour>
        <pt x="284" y="368" on="1"/>
        <pt x="700" y="368" on="1"/>
        <pt x="700" y="1447" on="1"/>
        <pt x="284" y="1447" on="1"/>
      </contour>
    </TTGlyph>
    <TTGlyph name="afii57511" xMin="142" yMin="226" xMax="842" yMax="1588">
      <contour>
        <pt x="142" y="226" on="1"/>
        <pt x="142" y="1588" on="1"/>
        <pt x="842" y="1588" on="1"/>
        <pt x="842" y="226" on="1"/>
      </contour>
      <contour>
        <pt x="284" y="368" on="1"/>
        <pt x="700" y="368" on="1"/>
        <pt x="700" y="1447" on="1"/>
        <pt x="284" y="1447" on="1"/>
      </contour>
    </TTGlyph>
    <TTGlyph name="afii57512" xMin="142" yMin="226" xMax="842" yMax="1588">
      <contour>
        <pt x="142" y="226" on="1"/>
        <pt x="142" y="1588" on="1"/>
        <pt x="842" y="1588" on="1"/>
        <pt x="842" y="226" on="1"/>
      </contour>
      <contour>
        <pt x="284" y="368" on="1"/>
        <pt x="700" y="368" on="1"/>
        <pt x="700" y="1447" on="1"/>
        <pt x="284" y="1447" on="1"/>
      </contour>
    </TTGlyph>
    <TTGlyph name="afii57513" xMin="142" yMin="226" xMax="842" yMax="1588">
      <contour>
        <pt x="142" y="226" on="1"/>
        <pt x="142" y="1588" on="1"/>
        <pt x="842" y="1588" on="1"/>
        <pt x="842" y="226" on="1"/>
      </contour>
      <contour>
        <pt x="284" y="368" on="1"/>
        <pt x="700" y="368" on="1"/>
        <pt x="700" y="1447" on="1"/>
        <pt x="284" y="1447" on="1"/>
      </contour>
    </TTGlyph>
    <TTGlyph name="afii57514" xMin="142" yMin="226" xMax="842" yMax="1588">
      <contour>
        <pt x="142" y="226" on="1"/>
        <pt x="142" y="1588" on="1"/>
        <pt x="842" y="1588" on="1"/>
        <pt x="842" y="226" on="1"/>
      </contour>
      <contour>
        <pt x="284" y="368" on="1"/>
        <pt x="700" y="368" on="1"/>
        <pt x="700" y="1447" on="1"/>
        <pt x="284" y="1447" on="1"/>
      </contour>
    </TTGlyph>
    <TTGlyph name="afii57519" xMin="142" yMin="226" xMax="842" yMax="1588">
      <contour>
        <pt x="142" y="226" on="1"/>
        <pt x="142" y="1588" on="1"/>
        <pt x="842" y="1588" on="1"/>
        <pt x="842" y="226" on="1"/>
      </contour>
      <contour>
        <pt x="284" y="368" on="1"/>
        <pt x="700" y="368" on="1"/>
        <pt x="700" y="1447" on="1"/>
        <pt x="284" y="1447" on="1"/>
      </contour>
    </TTGlyph>
    <TTGlyph name="afii57534" xMin="142" yMin="226" xMax="842" yMax="1588">
      <contour>
        <pt x="142" y="226" on="1"/>
        <pt x="142" y="1588" on="1"/>
        <pt x="842" y="1588" on="1"/>
        <pt x="842" y="226" on="1"/>
      </contour>
      <contour>
        <pt x="284" y="368" on="1"/>
        <pt x="700" y="368" on="1"/>
        <pt x="700" y="1447" on="1"/>
        <pt x="284" y="1447" on="1"/>
      </contour>
    </TTGlyph>
    <TTGlyph name="afii63167" xMin="142" yMin="226" xMax="842" yMax="1588">
      <contour>
        <pt x="142" y="226" on="1"/>
        <pt x="142" y="1588" on="1"/>
        <pt x="842" y="1588" on="1"/>
        <pt x="842" y="226" on="1"/>
      </contour>
      <contour>
        <pt x="284" y="368" on="1"/>
        <pt x="700" y="368" on="1"/>
        <pt x="700" y="1447" on="1"/>
        <pt x="284" y="1447" on="1"/>
      </contour>
    </TTGlyph>
    <TTGlyph name="alefmaksurainitial" xMin="142" yMin="226" xMax="842" yMax="1588">
      <contour>
        <pt x="142" y="226" on="1"/>
        <pt x="142" y="1588" on="1"/>
        <pt x="842" y="1588" on="1"/>
        <pt x="842" y="226" on="1"/>
      </contour>
      <contour>
        <pt x="284" y="368" on="1"/>
        <pt x="700" y="368" on="1"/>
        <pt x="700" y="1447" on="1"/>
        <pt x="284" y="1447" on="1"/>
      </contour>
    </TTGlyph>
    <TTGlyph name="alefwaslafinalarabic" xMin="142" yMin="226" xMax="842" yMax="1588">
      <contour>
        <pt x="142" y="226" on="1"/>
        <pt x="142" y="1588" on="1"/>
        <pt x="842" y="1588" on="1"/>
        <pt x="842" y="226" on="1"/>
      </contour>
      <contour>
        <pt x="284" y="368" on="1"/>
        <pt x="700" y="368" on="1"/>
        <pt x="700" y="1447" on="1"/>
        <pt x="284" y="1447" on="1"/>
      </contour>
    </TTGlyph>
    <TTGlyph name="ampersand" xMin="142" yMin="226" xMax="842" yMax="1588">
      <contour>
        <pt x="142" y="226" on="1"/>
        <pt x="142" y="1588" on="1"/>
        <pt x="842" y="1588" on="1"/>
        <pt x="842" y="226" on="1"/>
      </contour>
      <contour>
        <pt x="284" y="368" on="1"/>
        <pt x="700" y="368" on="1"/>
        <pt x="700" y="1447" on="1"/>
        <pt x="284" y="1447" on="1"/>
      </contour>
    </TTGlyph>
    <TTGlyph name="asterisk" xMin="142" yMin="226" xMax="842" yMax="1588">
      <contour>
        <pt x="142" y="226" on="1"/>
        <pt x="142" y="1588" on="1"/>
        <pt x="842" y="1588" on="1"/>
        <pt x="842" y="226" on="1"/>
      </contour>
      <contour>
        <pt x="284" y="368" on="1"/>
        <pt x="700" y="368" on="1"/>
        <pt x="700" y="1447" on="1"/>
        <pt x="284" y="1447" on="1"/>
      </contour>
    </TTGlyph>
    <TTGlyph name="behmeemisolatedarabic" xMin="142" yMin="226" xMax="842" yMax="1588">
      <contour>
        <pt x="142" y="226" on="1"/>
        <pt x="142" y="1588" on="1"/>
        <pt x="842" y="1588" on="1"/>
        <pt x="842" y="226" on="1"/>
      </contour>
      <contour>
        <pt x="284" y="368" on="1"/>
        <pt x="700" y="368" on="1"/>
        <pt x="700" y="1447" on="1"/>
        <pt x="284" y="1447" on="1"/>
      </contour>
    </TTGlyph>
    <TTGlyph name="behnoonfinalarabic" xMin="142" yMin="226" xMax="842" yMax="1588">
      <contour>
        <pt x="142" y="226" on="1"/>
        <pt x="142" y="1588" on="1"/>
        <pt x="842" y="1588" on="1"/>
        <pt x="842" y="226" on="1"/>
      </contour>
      <contour>
        <pt x="284" y="368" on="1"/>
        <pt x="700" y="368" on="1"/>
        <pt x="700" y="1447" on="1"/>
        <pt x="284" y="1447" on="1"/>
      </contour>
    </TTGlyph>
    <TTGlyph name="colon" xMin="142" yMin="226" xMax="842" yMax="1588">
      <contour>
        <pt x="142" y="226" on="1"/>
        <pt x="142" y="1588" on="1"/>
        <pt x="842" y="1588" on="1"/>
        <pt x="842" y="226" on="1"/>
      </contour>
      <contour>
        <pt x="284" y="368" on="1"/>
        <pt x="700" y="368" on="1"/>
        <pt x="700" y="1447" on="1"/>
        <pt x="284" y="1447" on="1"/>
      </contour>
    </TTGlyph>
    <TTGlyph name="dagger" xMin="142" yMin="226" xMax="842" yMax="1588">
      <contour>
        <pt x="142" y="226" on="1"/>
        <pt x="142" y="1588" on="1"/>
        <pt x="842" y="1588" on="1"/>
        <pt x="842" y="226" on="1"/>
      </contour>
      <contour>
        <pt x="284" y="368" on="1"/>
        <pt x="700" y="368" on="1"/>
        <pt x="700" y="1447" on="1"/>
        <pt x="284" y="1447" on="1"/>
      </contour>
    </TTGlyph>
    <TTGlyph name="dalringfinal" xMin="142" yMin="226" xMax="842" yMax="1588">
      <contour>
        <pt x="142" y="226" on="1"/>
        <pt x="142" y="1588" on="1"/>
        <pt x="842" y="1588" on="1"/>
        <pt x="842" y="226" on="1"/>
      </contour>
      <contour>
        <pt x="284" y="368" on="1"/>
        <pt x="700" y="368" on="1"/>
        <pt x="700" y="1447" on="1"/>
        <pt x="284" y="1447" on="1"/>
      </contour>
    </TTGlyph>
    <TTGlyph name="ddalfinalarabic" xMin="142" yMin="226" xMax="842" yMax="1588">
      <contour>
        <pt x="142" y="226" on="1"/>
        <pt x="142" y="1588" on="1"/>
        <pt x="842" y="1588" on="1"/>
        <pt x="842" y="226" on="1"/>
      </contour>
      <contour>
        <pt x="284" y="368" on="1"/>
        <pt x="700" y="368" on="1"/>
        <pt x="700" y="1447" on="1"/>
        <pt x="284" y="1447" on="1"/>
      </contour>
    </TTGlyph>
    <TTGlyph name="divide" xMin="142" yMin="226" xMax="842" yMax="1588">
      <contour>
        <pt x="142" y="226" on="1"/>
        <pt x="142" y="1588" on="1"/>
        <pt x="842" y="1588" on="1"/>
        <pt x="842" y="226" on="1"/>
      </contour>
      <contour>
        <pt x="284" y="368" on="1"/>
        <pt x="700" y="368" on="1"/>
        <pt x="700" y="1447" on="1"/>
        <pt x="284" y="1447" on="1"/>
      </contour>
    </TTGlyph>
    <TTGlyph name="dollar" xMin="142" yMin="226" xMax="842" yMax="1588">
      <contour>
        <pt x="142" y="226" on="1"/>
        <pt x="142" y="1588" on="1"/>
        <pt x="842" y="1588" on="1"/>
        <pt x="842" y="226" on="1"/>
      </contour>
      <contour>
        <pt x="284" y="368" on="1"/>
        <pt x="700" y="368" on="1"/>
        <pt x="700" y="1447" on="1"/>
        <pt x="284" y="1447" on="1"/>
      </contour>
    </TTGlyph>
    <TTGlyph name="dotlessyehfinalarabic" xMin="142" yMin="226" xMax="842" yMax="1588">
      <contour>
        <pt x="142" y="226" on="1"/>
        <pt x="142" y="1588" on="1"/>
        <pt x="842" y="1588" on="1"/>
        <pt x="842" y="226" on="1"/>
      </contour>
      <contour>
        <pt x="284" y="368" on="1"/>
        <pt x="700" y="368" on="1"/>
        <pt x="700" y="1447" on="1"/>
        <pt x="284" y="1447" on="1"/>
      </contour>
    </TTGlyph>
    <TTGlyph name="dotlessyehinitialarabic" xMin="142" yMin="226" xMax="842" yMax="1588">
      <contour>
        <pt x="142" y="226" on="1"/>
        <pt x="142" y="1588" on="1"/>
        <pt x="842" y="1588" on="1"/>
        <pt x="842" y="226" on="1"/>
      </contour>
      <contour>
        <pt x="284" y="368" on="1"/>
        <pt x="700" y="368" on="1"/>
        <pt x="700" y="1447" on="1"/>
        <pt x="284" y="1447" on="1"/>
      </contour>
    </TTGlyph>
    <TTGlyph name="dotlessyehmedialarabic" xMin="142" yMin="226" xMax="842" yMax="1588">
      <contour>
        <pt x="142" y="226" on="1"/>
        <pt x="142" y="1588" on="1"/>
        <pt x="842" y="1588" on="1"/>
        <pt x="842" y="226" on="1"/>
      </contour>
      <contour>
        <pt x="284" y="368" on="1"/>
        <pt x="700" y="368" on="1"/>
        <pt x="700" y="1447" on="1"/>
        <pt x="284" y="1447" on="1"/>
      </contour>
    </TTGlyph>
    <TTGlyph name="elefmaksuramedial" xMin="142" yMin="226" xMax="842" yMax="1588">
      <contour>
        <pt x="142" y="226" on="1"/>
        <pt x="142" y="1588" on="1"/>
        <pt x="842" y="1588" on="1"/>
        <pt x="842" y="226" on="1"/>
      </contour>
      <contour>
        <pt x="284" y="368" on="1"/>
        <pt x="700" y="368" on="1"/>
        <pt x="700" y="1447" on="1"/>
        <pt x="284" y="1447" on="1"/>
      </contour>
    </TTGlyph>
    <TTGlyph name="ellipsis" xMin="142" yMin="226" xMax="842" yMax="1588">
      <contour>
        <pt x="142" y="226" on="1"/>
        <pt x="142" y="1588" on="1"/>
        <pt x="842" y="1588" on="1"/>
        <pt x="842" y="226" on="1"/>
      </contour>
      <contour>
        <pt x="284" y="368" on="1"/>
        <pt x="700" y="368" on="1"/>
        <pt x="700" y="1447" on="1"/>
        <pt x="284" y="1447" on="1"/>
      </contour>
    </TTGlyph>
    <TTGlyph name="emdash" xMin="318" yMin="-317" xMax="2366" yMax="1699">
      <contour>
        <pt x="2366" y="1295" on="1"/>
        <pt x="2366" y="1243" on="0"/>
        <pt x="2264" y="1191" on="1"/>
        <pt x="2189" y="1158" on="0"/>
        <pt x="2115" y="1123" on="1"/>
        <pt x="2102" y="1116" on="0"/>
        <pt x="1801" y="963" on="1"/>
        <pt x="1743" y="963" on="1"/>
        <pt x="1743" y="1017" on="1"/>
        <pt x="1743" y="1042" on="0"/>
        <pt x="1974" y="1157" on="1"/>
        <pt x="2142" y="1239" on="0"/>
        <pt x="2308" y="1320" on="1"/>
        <pt x="2351" y="1320" on="1"/>
        <pt x="2366" y="1319" on="0"/>
      </contour>
      <contour>
        <pt x="1668" y="1669" on="1"/>
        <pt x="1668" y="1626" on="0"/>
        <pt x="1635" y="1608" on="1"/>
        <pt x="1513" y="1542" on="0"/>
        <pt x="1308" y="1452" on="1"/>
        <pt x="1137" y="1376" on="0"/>
        <pt x="965" y="1300" on="1"/>
        <pt x="911" y="1300" on="1"/>
        <pt x="894" y="1314" on="0"/>
        <pt x="894" y="1331" on="1"/>
        <pt x="894" y="1379" on="0"/>
        <pt x="934" y="1398" on="1"/>
        <pt x="1160" y="1493" on="0"/>
        <pt x="1609" y="1699" on="1"/>
        <pt x="1651" y="1699" on="1"/>
        <pt x="1668" y="1686" on="0"/>
      </contour>
      <contour>
        <pt x="2266" y="307" on="1"/>
        <pt x="2266" y="80" on="0"/>
        <pt x="2102" y="-108" on="1"/>
        <pt x="1920" y="-317" on="0"/>
        <pt x="1656" y="-317" on="1"/>
        <pt x="1550" y="-317" on="1"/>
        <pt x="1587" y="-317" on="0"/>
        <pt x="1312" y="-294" on="1"/>
        <pt x="1282" y="-291" on="0"/>
        <pt x="1232" y="-251" on="1"/>
        <pt x="1270" y="-215" on="0"/>
        <pt x="1300" y="-215" on="1"/>
        <pt x="1315" y="-215" on="0"/>
        <pt x="1447" y="-225" on="0"/>
        <pt x="1462" y="-225" on="1"/>
        <pt x="1635" y="-225" on="0"/>
        <pt x="1808" y="-140" on="1"/>
        <pt x="2011" y="-42" on="0"/>
        <pt x="2132" y="142" on="1"/>
        <pt x="2132" y="154" on="1"/>
        <pt x="2078" y="123" on="0"/>
        <pt x="2024" y="123" on="1"/>
        <pt x="1927" y="123" on="0"/>
        <pt x="1874" y="187" on="1"/>
        <pt x="1830" y="238" on="0"/>
        <pt x="1830" y="302" on="1"/>
        <pt x="1830" y="369" on="0"/>
        <pt x="1886" y="455" on="1"/>
        <pt x="1955" y="563" on="0"/>
        <pt x="2054" y="563" on="1"/>
        <pt x="2137" y="563" on="0"/>
        <pt x="2209" y="447" on="1"/>
        <pt x="2266" y="353" on="0"/>
      </contour>
      <contour>
        <pt x="1542" y="1166" on="1"/>
        <pt x="1542" y="1092" on="0"/>
        <pt x="1513" y="1057" on="1"/>
        <pt x="1475" y="1037" on="0"/>
        <pt x="1434" y="997" on="1"/>
        <pt x="1419" y="890" on="0"/>
        <pt x="1389" y="700" on="1"/>
        <pt x="1378" y="643" on="0"/>
        <pt x="1334" y="519" on="1"/>
        <pt x="1293" y="404" on="0"/>
        <pt x="1293" y="394" on="1"/>
        <pt x="1293" y="381" on="0"/>
        <pt x="1393" y="146" on="0"/>
        <pt x="1393" y="133" on="1"/>
        <pt x="1393" y="31" on="0"/>
        <pt x="1340" y="13" on="1"/>
        <pt x="1151" y="-51" on="0"/>
        <pt x="807" y="-51" on="1"/>
        <pt x="775" y="-51" on="0"/>
        <pt x="696" y="0" on="0"/>
        <pt x="696" y="25" on="1"/>
        <pt x="696" y="49" on="0"/>
        <pt x="722" y="89" on="1"/>
        <pt x="752" y="133" on="0"/>
        <pt x="776" y="133" on="1"/>
        <pt x="789" y="133" on="0"/>
        <pt x="837" y="123" on="0"/>
        <pt x="850" y="123" on="1"/>
        <pt x="911" y="123" on="0"/>
        <pt x="1022" y="219" on="1"/>
        <pt x="1132" y="312" on="0"/>
        <pt x="1132" y="353" on="1"/>
        <pt x="1132" y="361" on="0"/>
        <pt x="1049" y="463" on="1"/>
        <pt x="977" y="555" on="0"/>
        <pt x="841" y="708" on="1"/>
        <pt x="796" y="750" on="0"/>
        <pt x="697" y="822" on="1"/>
        <pt x="587" y="901" on="0"/>
        <pt x="564" y="901" on="1"/>
        <pt x="548" y="901" on="0"/>
        <pt x="530" y="890" on="0"/>
        <pt x="514" y="890" on="1"/>
        <pt x="318" y="890" on="0"/>
        <pt x="318" y="1108" on="1"/>
        <pt x="318" y="1138" on="0"/>
        <pt x="322" y="1176" on="1"/>
        <pt x="322" y="1176" on="0"/>
        <pt x="342" y="1195" on="1"/>
        <pt x="356" y="1208" on="0"/>
        <pt x="376" y="1208" on="1"/>
        <pt x="434" y="1208" on="0"/>
        <pt x="645" y="1053" on="1"/>
        <pt x="814" y="927" on="0"/>
        <pt x="876" y="868" on="1"/>
        <pt x="945" y="800" on="0"/>
        <pt x="1042" y="687" on="1"/>
        <pt x="1166" y="538" on="0"/>
        <pt x="1200" y="501" on="1"/>
        <pt x="1244" y="539" on="0"/>
        <pt x="1260" y="623" on="1"/>
        <pt x="1260" y="629" on="0"/>
        <pt x="1272" y="753" on="1"/>
        <pt x="1276" y="795" on="0"/>
        <pt x="1326" y="1071" on="1"/>
        <pt x="1312" y="1105" on="0"/>
        <pt x="1308" y="1184" on="1"/>
        <pt x="1326" y="1253" on="0"/>
        <pt x="1422" y="1351" on="1"/>
        <pt x="1466" y="1351" on="1"/>
        <pt x="1468" y="1345" on="0"/>
        <pt x="1468" y="1259" on="1"/>
        <pt x="1468" y="1203" on="0"/>
      </contour>
      <contour>
        <pt x="2104" y="333" on="1"/>
        <pt x="2104" y="351" on="0"/>
        <pt x="2026" y="411" on="0"/>
        <pt x="1997" y="419" on="1"/>
        <pt x="1954" y="385" on="0"/>
        <pt x="1954" y="358" on="1"/>
        <pt x="1954" y="331" on="0"/>
        <pt x="2009" y="287" on="0"/>
        <pt x="2042" y="287" on="1"/>
        <pt x="2060" y="287" on="0"/>
        <pt x="2087" y="298" on="0"/>
        <pt x="2091" y="298" on="1"/>
        <pt x="2091" y="301" on="0"/>
        <pt x="2104" y="318" on="0"/>
      </contour>
      <contour>
        <pt x="1256" y="178" on="1"/>
        <pt x="1256" y="222" on="0"/>
        <pt x="1199" y="246" on="1"/>
        <pt x="1149" y="204" on="0"/>
        <pt x="1120" y="156" on="1"/>
        <pt x="1243" y="156" on="1"/>
        <pt x="1243" y="165" on="0"/>
      </contour>
    </TTGlyph>
    <TTGlyph name="endash" xMin="318" yMin="-317" xMax="1342" yMax="1699">
      <contour>
        <pt x="1342" y="1295" on="1"/>
        <pt x="1342" y="1243" on="0"/>
        <pt x="1291" y="1191" on="1"/>
        <pt x="1254" y="1158" on="0"/>
        <pt x="1217" y="1123" on="1"/>
        <pt x="1210" y="1116" on="0"/>
        <pt x="1059" y="963" on="1"/>
        <pt x="1031" y="963" on="1"/>
        <pt x="1031" y="1017" on="1"/>
        <pt x="1031" y="1042" on="0"/>
        <pt x="1146" y="1157" on="1"/>
        <pt x="1230" y="1239" on="0"/>
        <pt x="1313" y="1320" on="1"/>
        <pt x="1335" y="1320" on="1"/>
        <pt x="1342" y="1319" on="0"/>
      </contour>
      <contour>
        <pt x="993" y="1669" on="1"/>
        <pt x="993" y="1626" on="0"/>
        <pt x="977" y="1608" on="1"/>
        <pt x="916" y="1542" on="0"/>
        <pt x="813" y="1452" on="1"/>
        <pt x="727" y="1376" on="0"/>
        <pt x="641" y="1300" on="1"/>
        <pt x="615" y="1300" on="1"/>
        <pt x="606" y="1314" on="0"/>
        <pt x="606" y="1331" on="1"/>
        <pt x="606" y="1379" on="0"/>
        <pt x="626" y="1398" on="1"/>
        <pt x="739" y="1493" on="0"/>
        <pt x="964" y="1699" on="1"/>
        <pt x="984" y="1699" on="1"/>
        <pt x="993" y="1686" on="0"/>
      </contour>
      <contour>
        <pt x="1292" y="307" on="1"/>
        <pt x="1292" y="80" on="0"/>
        <pt x="1210" y="-108" on="1"/>
        <pt x="1119" y="-317" on="0"/>
        <pt x="987" y="-317" on="1"/>
        <pt x="934" y="-317" on="1"/>
        <pt x="953" y="-317" on="0"/>
        <pt x="815" y="-294" on="1"/>
        <pt x="800" y="-291" on="0"/>
        <pt x="775" y="-251" on="1"/>
        <pt x="794" y="-215" on="0"/>
        <pt x="809" y="-215" on="1"/>
        <pt x="816" y="-215" on="0"/>
        <pt x="883" y="-225" on="0"/>
        <pt x="890" y="-225" on="1"/>
        <pt x="977" y="-225" on="0"/>
        <pt x="1063" y="-140" on="1"/>
        <pt x="1165" y="-42" on="0"/>
        <pt x="1225" y="142" on="1"/>
        <pt x="1225" y="154" on="1"/>
        <pt x="1198" y="123" on="0"/>
        <pt x="1171" y="123" on="1"/>
        <pt x="1123" y="123" on="0"/>
        <pt x="1096" y="187" on="1"/>
        <pt x="1074" y="238" on="0"/>
        <pt x="1074" y="302" on="1"/>
        <pt x="1074" y="369" on="0"/>
        <pt x="1102" y="455" on="1"/>
        <pt x="1137" y="563" on="0"/>
        <pt x="1186" y="563" on="1"/>
        <pt x="1227" y="563" on="0"/>
        <pt x="1263" y="447" on="1"/>
        <pt x="1292" y="353" on="0"/>
      </contour>
      <contour>
        <pt x="930" y="1166" on="1"/>
        <pt x="930" y="1092" on="0"/>
        <pt x="916" y="1057" on="1"/>
        <pt x="897" y="1037" on="0"/>
        <pt x="876" y="997" on="1"/>
        <pt x="869" y="890" on="0"/>
        <pt x="853" y="700" on="1"/>
        <pt x="848" y="643" on="0"/>
        <pt x="826" y="519" on="1"/>
        <pt x="805" y="404" on="0"/>
        <pt x="805" y="394" on="1"/>
        <pt x="805" y="381" on="0"/>
        <pt x="855" y="146" on="0"/>
        <pt x="855" y="133" on="1"/>
        <pt x="855" y="31" on="0"/>
        <pt x="829" y="13" on="1"/>
        <pt x="735" y="-51" on="0"/>
        <pt x="562" y="-51" on="1"/>
        <pt x="546" y="-51" on="0"/>
        <pt x="507" y="0" on="0"/>
        <pt x="507" y="25" on="1"/>
        <pt x="507" y="49" on="0"/>
        <pt x="520" y="89" on="1"/>
        <pt x="535" y="133" on="0"/>
        <pt x="547" y="133" on="1"/>
        <pt x="554" y="133" on="0"/>
        <pt x="578" y="123" on="0"/>
        <pt x="584" y="123" on="1"/>
        <pt x="615" y="123" on="0"/>
        <pt x="670" y="219" on="1"/>
        <pt x="725" y="312" on="0"/>
        <pt x="725" y="353" on="1"/>
        <pt x="725" y="361" on="0"/>
        <pt x="683" y="463" on="1"/>
        <pt x="648" y="555" on="0"/>
        <pt x="579" y="708" on="1"/>
        <pt x="557" y="750" on="0"/>
        <pt x="507" y="822" on="1"/>
        <pt x="453" y="901" on="0"/>
        <pt x="441" y="901" on="1"/>
        <pt x="433" y="901" on="0"/>
        <pt x="424" y="890" on="0"/>
        <pt x="416" y="890" on="1"/>
        <pt x="318" y="890" on="0"/>
        <pt x="318" y="1108" on="1"/>
        <pt x="318" y="1138" on="0"/>
        <pt x="320" y="1176" on="1"/>
        <pt x="320" y="1176" on="0"/>
        <pt x="330" y="1195" on="1"/>
        <pt x="337" y="1208" on="0"/>
        <pt x="347" y="1208" on="1"/>
        <pt x="376" y="1208" on="0"/>
        <pt x="481" y="1053" on="1"/>
        <pt x="566" y="927" on="0"/>
        <pt x="597" y="868" on="1"/>
        <pt x="632" y="800" on="0"/>
        <pt x="680" y="687" on="1"/>
        <pt x="742" y="538" on="0"/>
        <pt x="759" y="501" on="1"/>
        <pt x="781" y="539" on="0"/>
        <pt x="789" y="623" on="1"/>
        <pt x="789" y="629" on="0"/>
        <pt x="795" y="753" on="1"/>
        <pt x="797" y="795" on="0"/>
        <pt x="822" y="1071" on="1"/>
        <pt x="815" y="1105" on="0"/>
        <pt x="813" y="1184" on="1"/>
        <pt x="822" y="1253" on="0"/>
        <pt x="870" y="1351" on="1"/>
        <pt x="892" y="1351" on="1"/>
        <pt x="893" y="1345" on="0"/>
        <pt x="893" y="1259" on="1"/>
        <pt x="893" y="1203" on="0"/>
      </contour>
      <contour>
        <pt x="1211" y="333" on="1"/>
        <pt x="1211" y="351" on="0"/>
        <pt x="1172" y="411" on="0"/>
        <pt x="1157" y="419" on="1"/>
        <pt x="1136" y="385" on="0"/>
        <pt x="1136" y="358" on="1"/>
        <pt x="1136" y="331" on="0"/>
        <pt x="1164" y="287" on="0"/>
        <pt x="1180" y="287" on="1"/>
        <pt x="1189" y="287" on="0"/>
        <pt x="1203" y="298" on="0"/>
        <pt x="1204" y="298" on="1"/>
        <pt x="1204" y="301" on="0"/>
        <pt x="1211" y="318" on="0"/>
      </contour>
      <contour>
        <pt x="787" y="178" on="1"/>
        <pt x="787" y="222" on="0"/>
        <pt x="758" y="246" on="1"/>
        <pt x="733" y="204" on="0"/>
        <pt x="719" y="156" on="1"/>
        <pt x="780" y="156" on="1"/>
        <pt x="780" y="165" on="0"/>
      </contour>
    </TTGlyph>
    <TTGlyph name="equal" xMin="142" yMin="226" xMax="842" yMax="1588">
      <contour>
        <pt x="142" y="226" on="1"/>
        <pt x="142" y="1588" on="1"/>
        <pt x="842" y="1588" on="1"/>
        <pt x="842" y="226" on="1"/>
      </contour>
      <contour>
        <pt x="284" y="368" on="1"/>
        <pt x="700" y="368" on="1"/>
        <pt x="700" y="1447" on="1"/>
        <pt x="284" y="1447" on="1"/>
      </contour>
    </TTGlyph>
    <TTGlyph name="exclam" xMin="142" yMin="226" xMax="842" yMax="1588">
      <contour>
        <pt x="142" y="226" on="1"/>
        <pt x="142" y="1588" on="1"/>
        <pt x="842" y="1588" on="1"/>
        <pt x="842" y="226" on="1"/>
      </contour>
      <contour>
        <pt x="284" y="368" on="1"/>
        <pt x="700" y="368" on="1"/>
        <pt x="700" y="1447" on="1"/>
        <pt x="284" y="1447" on="1"/>
      </contour>
    </TTGlyph>
    <TTGlyph name="figuredash" xMin="318" yMin="-317" xMax="1999" yMax="1699">
      <contour>
        <pt x="1999" y="1295" on="1"/>
        <pt x="1999" y="1243" on="0"/>
        <pt x="1915" y="1191" on="1"/>
        <pt x="1854" y="1158" on="0"/>
        <pt x="1793" y="1123" on="1"/>
        <pt x="1782" y="1116" on="0"/>
        <pt x="1535" y="963" on="1"/>
        <pt x="1488" y="963" on="1"/>
        <pt x="1488" y="1017" on="1"/>
        <pt x="1488" y="1042" on="0"/>
        <pt x="1677" y="1157" on="1"/>
        <pt x="1815" y="1239" on="0"/>
        <pt x="1951" y="1320" on="1"/>
        <pt x="1987" y="1320" on="1"/>
        <pt x="1999" y="1319" on="0"/>
      </contour>
      <contour>
        <pt x="1426" y="1669" on="1"/>
        <pt x="1426" y="1626" on="0"/>
        <pt x="1399" y="1608" on="1"/>
        <pt x="1299" y="1542" on="0"/>
        <pt x="1131" y="1452" on="1"/>
        <pt x="990" y="1376" on="0"/>
        <pt x="849" y="1300" on="1"/>
        <pt x="805" y="1300" on="1"/>
        <pt x="791" y="1314" on="0"/>
        <pt x="791" y="1331" on="1"/>
        <pt x="791" y="1379" on="0"/>
        <pt x="824" y="1398" on="1"/>
        <pt x="1009" y="1493" on="0"/>
        <pt x="1378" y="1699" on="1"/>
        <pt x="1412" y="1699" on="1"/>
        <pt x="1426" y="1686" on="0"/>
      </contour>
      <contour>
        <pt x="1917" y="307" on="1"/>
        <pt x="1917" y="80" on="0"/>
        <pt x="1782" y="-108" on="1"/>
        <pt x="1633" y="-317" on="0"/>
        <pt x="1416" y="-317" on="1"/>
        <pt x="1329" y="-317" on="1"/>
        <pt x="1360" y="-317" on="0"/>
        <pt x="1134" y="-294" on="1"/>
        <pt x="1109" y="-291" on="0"/>
        <pt x="1068" y="-251" on="1"/>
        <pt x="1099" y="-215" on="0"/>
        <pt x="1124" y="-215" on="1"/>
        <pt x="1136" y="-215" on="0"/>
        <pt x="1245" y="-225" on="0"/>
        <pt x="1257" y="-225" on="1"/>
        <pt x="1399" y="-225" on="0"/>
        <pt x="1541" y="-140" on="1"/>
        <pt x="1708" y="-42" on="0"/>
        <pt x="1807" y="142" on="1"/>
        <pt x="1807" y="154" on="1"/>
        <pt x="1763" y="123" on="0"/>
        <pt x="1718" y="123" on="1"/>
        <pt x="1639" y="123" on="0"/>
        <pt x="1595" y="187" on="1"/>
        <pt x="1559" y="238" on="0"/>
        <pt x="1559" y="302" on="1"/>
        <pt x="1559" y="369" on="0"/>
        <pt x="1605" y="455" on="1"/>
        <pt x="1662" y="563" on="0"/>
        <pt x="1743" y="563" on="1"/>
        <pt x="1811" y="563" on="0"/>
        <pt x="1870" y="447" on="1"/>
        <pt x="1917" y="353" on="0"/>
      </contour>
      <contour>
        <pt x="1323" y="1166" on="1"/>
        <pt x="1323" y="1092" on="0"/>
        <pt x="1299" y="1057" on="1"/>
        <pt x="1268" y="1037" on="0"/>
        <pt x="1234" y="997" on="1"/>
        <pt x="1222" y="890" on="0"/>
        <pt x="1197" y="700" on="1"/>
        <pt x="1188" y="643" on="0"/>
        <pt x="1152" y="519" on="1"/>
        <pt x="1118" y="404" on="0"/>
        <pt x="1118" y="394" on="1"/>
        <pt x="1118" y="381" on="0"/>
        <pt x="1200" y="146" on="0"/>
        <pt x="1200" y="133" on="1"/>
        <pt x="1200" y="31" on="0"/>
        <pt x="1157" y="13" on="1"/>
        <pt x="1002" y="-51" on="0"/>
        <pt x="719" y="-51" on="1"/>
        <pt x="693" y="-51" on="0"/>
        <pt x="628" y="0" on="0"/>
        <pt x="628" y="25" on="1"/>
        <pt x="628" y="49" on="0"/>
        <pt x="650" y="89" on="1"/>
        <pt x="674" y="133" on="0"/>
        <pt x="694" y="133" on="1"/>
        <pt x="705" y="133" on="0"/>
        <pt x="744" y="123" on="0"/>
        <pt x="755" y="123" on="1"/>
        <pt x="805" y="123" on="0"/>
        <pt x="896" y="219" on="1"/>
        <pt x="986" y="312" on="0"/>
        <pt x="986" y="353" on="1"/>
        <pt x="986" y="361" on="0"/>
        <pt x="918" y="463" on="1"/>
        <pt x="859" y="555" on="0"/>
        <pt x="747" y="708" on="1"/>
        <pt x="710" y="750" on="0"/>
        <pt x="629" y="822" on="1"/>
        <pt x="539" y="901" on="0"/>
        <pt x="520" y="901" on="1"/>
        <pt x="507" y="901" on="0"/>
        <pt x="492" y="890" on="0"/>
        <pt x="479" y="890" on="1"/>
        <pt x="318" y="890" on="0"/>
        <pt x="318" y="1108" on="1"/>
        <pt x="318" y="1138" on="0"/>
        <pt x="321" y="1176" on="1"/>
        <pt x="321" y="1176" on="0"/>
        <pt x="338" y="1195" on="1"/>
        <pt x="349" y="1208" on="0"/>
        <pt x="366" y="1208" on="1"/>
        <pt x="413" y="1208" on="0"/>
        <pt x="586" y="1053" on="1"/>
        <pt x="725" y="927" on="0"/>
        <pt x="776" y="868" on="1"/>
        <pt x="833" y="800" on="0"/>
        <pt x="912" y="687" on="1"/>
        <pt x="1014" y="538" on="0"/>
        <pt x="1042" y="501" on="1"/>
        <pt x="1078" y="539" on="0"/>
        <pt x="1091" y="623" on="1"/>
        <pt x="1091" y="629" on="0"/>
        <pt x="1101" y="753" on="1"/>
        <pt x="1104" y="795" on="0"/>
        <pt x="1145" y="1071" on="1"/>
        <pt x="1134" y="1105" on="0"/>
        <pt x="1131" y="1184" on="1"/>
        <pt x="1145" y="1253" on="0"/>
        <pt x="1224" y="1351" on="1"/>
        <pt x="1260" y="1351" on="1"/>
        <pt x="1262" y="1345" on="0"/>
        <pt x="1262" y="1259" on="1"/>
        <pt x="1262" y="1203" on="0"/>
      </contour>
      <contour>
        <pt x="1784" y="333" on="1"/>
        <pt x="1784" y="351" on="0"/>
        <pt x="1720" y="411" on="0"/>
        <pt x="1696" y="419" on="1"/>
        <pt x="1661" y="385" on="0"/>
        <pt x="1661" y="358" on="1"/>
        <pt x="1661" y="331" on="0"/>
        <pt x="1706" y="287" on="0"/>
        <pt x="1733" y="287" on="1"/>
        <pt x="1748" y="287" on="0"/>
        <pt x="1770" y="298" on="0"/>
        <pt x="1773" y="298" on="1"/>
        <pt x="1773" y="301" on="0"/>
        <pt x="1784" y="318" on="0"/>
      </contour>
      <contour>
        <pt x="1088" y="178" on="1"/>
        <pt x="1088" y="222" on="0"/>
        <pt x="1041" y="246" on="1"/>
        <pt x="1000" y="204" on="0"/>
        <pt x="976" y="156" on="1"/>
        <pt x="1077" y="156" on="1"/>
        <pt x="1077" y="165" on="0"/>
      </contour>
    </TTGlyph>
    <TTGlyph name="gaffinalarabic" xMin="142" yMin="226" xMax="842" yMax="1588">
      <contour>
        <pt x="142" y="226" on="1"/>
        <pt x="142" y="1588" on="1"/>
        <pt x="842" y="1588" on="1"/>
        <pt x="842" y="226" on="1"/>
      </contour>
      <contour>
        <pt x="284" y="368" on="1"/>
        <pt x="700" y="368" on="1"/>
        <pt x="700" y="1447" on="1"/>
        <pt x="284" y="1447" on="1"/>
      </contour>
    </TTGlyph>
    <TTGlyph name="gafinitialarabic" xMin="142" yMin="226" xMax="842" yMax="1588">
      <contour>
        <pt x="142" y="226" on="1"/>
        <pt x="142" y="1588" on="1"/>
        <pt x="842" y="1588" on="1"/>
        <pt x="842" y="226" on="1"/>
      </contour>
      <contour>
        <pt x="284" y="368" on="1"/>
        <pt x="700" y="368" on="1"/>
        <pt x="700" y="1447" on="1"/>
        <pt x="284" y="1447" on="1"/>
      </contour>
    </TTGlyph>
    <TTGlyph name="gafmedialarabic" xMin="142" yMin="226" xMax="842" yMax="1588">
      <contour>
        <pt x="142" y="226" on="1"/>
        <pt x="142" y="1588" on="1"/>
        <pt x="842" y="1588" on="1"/>
        <pt x="842" y="226" on="1"/>
      </contour>
      <contour>
        <pt x="284" y="368" on="1"/>
        <pt x="700" y="368" on="1"/>
        <pt x="700" y="1447" on="1"/>
        <pt x="284" y="1447" on="1"/>
      </contour>
    </TTGlyph>
    <TTGlyph name="glyph41" xMin="142" yMin="226" xMax="842" yMax="1588">
      <contour>
        <pt x="142" y="226" on="1"/>
        <pt x="142" y="1588" on="1"/>
        <pt x="842" y="1588" on="1"/>
        <pt x="842" y="226" on="1"/>
      </contour>
      <contour>
        <pt x="284" y="368" on="1"/>
        <pt x="700" y="368" on="1"/>
        <pt x="700" y="1447" on="1"/>
        <pt x="284" y="1447" on="1"/>
      </contour>
    </TTGlyph>
    <TTGlyph name="glyph42" xMin="142" yMin="226" xMax="842" yMax="1588">
      <contour>
        <pt x="142" y="226" on="1"/>
        <pt x="142" y="1588" on="1"/>
        <pt x="842" y="1588" on="1"/>
        <pt x="842" y="226" on="1"/>
      </contour>
      <contour>
        <pt x="284" y="368" on="1"/>
        <pt x="700" y="368" on="1"/>
        <pt x="700" y="1447" on="1"/>
        <pt x="284" y="1447" on="1"/>
      </contour>
    </TTGlyph>
    <TTGlyph name="glyph43" xMin="142" yMin="226" xMax="842" yMax="1588">
      <contour>
        <pt x="142" y="226" on="1"/>
        <pt x="142" y="1588" on="1"/>
        <pt x="842" y="1588" on="1"/>
        <pt x="842" y="226" on="1"/>
      </contour>
      <contour>
        <pt x="284" y="368" on="1"/>
        <pt x="700" y="368" on="1"/>
        <pt x="700" y="1447" on="1"/>
        <pt x="284" y="1447" on="1"/>
      </contour>
    </TTGlyph>
    <TTGlyph name="glyph44" xMin="142" yMin="226" xMax="842" yMax="1588">
      <contour>
        <pt x="142" y="226" on="1"/>
        <pt x="142" y="1588" on="1"/>
        <pt x="842" y="1588" on="1"/>
        <pt x="842" y="226" on="1"/>
      </contour>
      <contour>
        <pt x="284" y="368" on="1"/>
        <pt x="700" y="368" on="1"/>
        <pt x="700" y="1447" on="1"/>
        <pt x="284" y="1447" on="1"/>
      </contour>
    </TTGlyph>
    <TTGlyph name="glyph45" xMin="142" yMin="226" xMax="842" yMax="1588">
      <contour>
        <pt x="142" y="226" on="1"/>
        <pt x="142" y="1588" on="1"/>
        <pt x="842" y="1588" on="1"/>
        <pt x="842" y="226" on="1"/>
      </contour>
      <contour>
        <pt x="284" y="368" on="1"/>
        <pt x="700" y="368" on="1"/>
        <pt x="700" y="1447" on="1"/>
        <pt x="284" y="1447" on="1"/>
      </contour>
    </TTGlyph>
    <TTGlyph name="glyph46" xMin="142" yMin="226" xMax="842" yMax="1588">
      <contour>
        <pt x="142" y="226" on="1"/>
        <pt x="142" y="1588" on="1"/>
        <pt x="842" y="1588" on="1"/>
        <pt x="842" y="226" on="1"/>
      </contour>
      <contour>
        <pt x="284" y="368" on="1"/>
        <pt x="700" y="368" on="1"/>
        <pt x="700" y="1447" on="1"/>
        <pt x="284" y="1447" on="1"/>
      </contour>
    </TTGlyph>
    <TTGlyph name="glyph47" xMin="142" yMin="226" xMax="842" yMax="1588">
      <contour>
        <pt x="142" y="226" on="1"/>
        <pt x="142" y="1588" on="1"/>
        <pt x="842" y="1588" on="1"/>
        <pt x="842" y="226" on="1"/>
      </contour>
      <contour>
        <pt x="284" y="368" on="1"/>
        <pt x="700" y="368" on="1"/>
        <pt x="700" y="1447" on="1"/>
        <pt x="284" y="1447" on="1"/>
      </contour>
    </TTGlyph>
    <TTGlyph name="glyph48" xMin="142" yMin="226" xMax="842" yMax="1588">
      <contour>
        <pt x="142" y="226" on="1"/>
        <pt x="142" y="1588" on="1"/>
        <pt x="842" y="1588" on="1"/>
        <pt x="842" y="226" on="1"/>
      </contour>
      <contour>
        <pt x="284" y="368" on="1"/>
        <pt x="700" y="368" on="1"/>
        <pt x="700" y="1447" on="1"/>
        <pt x="284" y="1447" on="1"/>
      </contour>
    </TTGlyph>
    <TTGlyph name="glyph50" xMin="142" yMin="226" xMax="842" yMax="1588">
      <contour>
        <pt x="142" y="226" on="1"/>
        <pt x="142" y="1588" on="1"/>
        <pt x="842" y="1588" on="1"/>
        <pt x="842" y="226" on="1"/>
      </contour>
      <contour>
        <pt x="284" y="368" on="1"/>
        <pt x="700" y="368" on="1"/>
        <pt x="700" y="1447" on="1"/>
        <pt x="284" y="1447" on="1"/>
      </contour>
    </TTGlyph>
    <TTGlyph name="glyph51" xMin="142" yMin="226" xMax="842" yMax="1588">
      <contour>
        <pt x="142" y="226" on="1"/>
        <pt x="142" y="1588" on="1"/>
        <pt x="842" y="1588" on="1"/>
        <pt x="842" y="226" on="1"/>
      </contour>
      <contour>
        <pt x="284" y="368" on="1"/>
        <pt x="700" y="368" on="1"/>
        <pt x="700" y="1447" on="1"/>
        <pt x="284" y="1447" on="1"/>
      </contour>
    </TTGlyph>
    <TTGlyph name="greater" xMin="142" yMin="226" xMax="842" yMax="1588">
      <contour>
        <pt x="142" y="226" on="1"/>
        <pt x="142" y="1588" on="1"/>
        <pt x="842" y="1588" on="1"/>
        <pt x="842" y="226" on="1"/>
      </contour>
      <contour>
        <pt x="284" y="368" on="1"/>
        <pt x="700" y="368" on="1"/>
        <pt x="700" y="1447" on="1"/>
        <pt x="284" y="1447" on="1"/>
      </contour>
    </TTGlyph>
    <TTGlyph name="hahhamzabovefinal" xMin="142" yMin="226" xMax="842" yMax="1588">
      <contour>
        <pt x="142" y="226" on="1"/>
        <pt x="142" y="1588" on="1"/>
        <pt x="842" y="1588" on="1"/>
        <pt x="842" y="226" on="1"/>
      </contour>
      <contour>
        <pt x="284" y="368" on="1"/>
        <pt x="700" y="368" on="1"/>
        <pt x="700" y="1447" on="1"/>
        <pt x="284" y="1447" on="1"/>
      </contour>
    </TTGlyph>
    <TTGlyph name="hahhamzaboveinitial" xMin="142" yMin="226" xMax="842" yMax="1588">
      <contour>
        <pt x="142" y="226" on="1"/>
        <pt x="142" y="1588" on="1"/>
        <pt x="842" y="1588" on="1"/>
        <pt x="842" y="226" on="1"/>
      </contour>
      <contour>
        <pt x="284" y="368" on="1"/>
        <pt x="700" y="368" on="1"/>
        <pt x="700" y="1447" on="1"/>
        <pt x="284" y="1447" on="1"/>
      </contour>
    </TTGlyph>
    <TTGlyph name="hahhamzabovemedial" xMin="142" yMin="226" xMax="842" yMax="1588">
      <contour>
        <pt x="142" y="226" on="1"/>
        <pt x="142" y="1588" on="1"/>
        <pt x="842" y="1588" on="1"/>
        <pt x="842" y="226" on="1"/>
      </contour>
      <contour>
        <pt x="284" y="368" on="1"/>
        <pt x="700" y="368" on="1"/>
        <pt x="700" y="1447" on="1"/>
        <pt x="284" y="1447" on="1"/>
      </contour>
    </TTGlyph>
    <TTGlyph name="hahthreedotsabovefinal" xMin="142" yMin="226" xMax="842" yMax="1588">
      <contour>
        <pt x="142" y="226" on="1"/>
        <pt x="142" y="1588" on="1"/>
        <pt x="842" y="1588" on="1"/>
        <pt x="842" y="226" on="1"/>
      </contour>
      <contour>
        <pt x="284" y="368" on="1"/>
        <pt x="700" y="368" on="1"/>
        <pt x="700" y="1447" on="1"/>
        <pt x="284" y="1447" on="1"/>
      </contour>
    </TTGlyph>
    <TTGlyph name="hahthreedotsaboveinitial" xMin="142" yMin="226" xMax="842" yMax="1588">
      <contour>
        <pt x="142" y="226" on="1"/>
        <pt x="142" y="1588" on="1"/>
        <pt x="842" y="1588" on="1"/>
        <pt x="842" y="226" on="1"/>
      </contour>
      <contour>
        <pt x="284" y="368" on="1"/>
        <pt x="700" y="368" on="1"/>
        <pt x="700" y="1447" on="1"/>
        <pt x="284" y="1447" on="1"/>
      </contour>
    </TTGlyph>
    <TTGlyph name="hahthreedotsabovemedial" xMin="142" yMin="226" xMax="842" yMax="1588">
      <contour>
        <pt x="142" y="226" on="1"/>
        <pt x="142" y="1588" on="1"/>
        <pt x="842" y="1588" on="1"/>
        <pt x="842" y="226" on="1"/>
      </contour>
      <contour>
        <pt x="284" y="368" on="1"/>
        <pt x="700" y="368" on="1"/>
        <pt x="700" y="1447" on="1"/>
        <pt x="284" y="1447" on="1"/>
      </contour>
    </TTGlyph>
    <TTGlyph name="hehdoachashmeefinalarabic" xMin="142" yMin="226" xMax="842" yMax="1588">
      <contour>
        <pt x="142" y="226" on="1"/>
        <pt x="142" y="1588" on="1"/>
        <pt x="842" y="1588" on="1"/>
        <pt x="842" y="226" on="1"/>
      </contour>
      <contour>
        <pt x="284" y="368" on="1"/>
        <pt x="700" y="368" on="1"/>
        <pt x="700" y="1447" on="1"/>
        <pt x="284" y="1447" on="1"/>
      </contour>
    </TTGlyph>
    <TTGlyph name="hehdoachashmeeinitialarabic" xMin="142" yMin="226" xMax="842" yMax="1588">
      <contour>
        <pt x="142" y="226" on="1"/>
        <pt x="142" y="1588" on="1"/>
        <pt x="842" y="1588" on="1"/>
        <pt x="842" y="226" on="1"/>
      </contour>
      <contour>
        <pt x="284" y="368" on="1"/>
        <pt x="700" y="368" on="1"/>
        <pt x="700" y="1447" on="1"/>
        <pt x="284" y="1447" on="1"/>
      </contour>
    </TTGlyph>
    <TTGlyph name="hehdoachashmeemedialarabic" xMin="142" yMin="226" xMax="842" yMax="1588">
      <contour>
        <pt x="142" y="226" on="1"/>
        <pt x="142" y="1588" on="1"/>
        <pt x="842" y="1588" on="1"/>
        <pt x="842" y="226" on="1"/>
      </contour>
      <contour>
        <pt x="284" y="368" on="1"/>
        <pt x="700" y="368" on="1"/>
        <pt x="700" y="1447" on="1"/>
        <pt x="284" y="1447" on="1"/>
      </contour>
    </TTGlyph>
    <TTGlyph name="hehfinalaltonearabic" xMin="142" yMin="226" xMax="842" yMax="1588">
      <contour>
        <pt x="142" y="226" on="1"/>
        <pt x="142" y="1588" on="1"/>
        <pt x="842" y="1588" on="1"/>
        <pt x="842" y="226" on="1"/>
      </contour>
      <contour>
        <pt x="284" y="368" on="1"/>
        <pt x="700" y="368" on="1"/>
        <pt x="700" y="1447" on="1"/>
        <pt x="284" y="1447" on="1"/>
      </contour>
    </TTGlyph>
    <TTGlyph name="hehhamzaabovefinalarabic" xMin="142" yMin="226" xMax="842" yMax="1588">
      <contour>
        <pt x="142" y="226" on="1"/>
        <pt x="142" y="1588" on="1"/>
        <pt x="842" y="1588" on="1"/>
        <pt x="842" y="226" on="1"/>
      </contour>
      <contour>
        <pt x="284" y="368" on="1"/>
        <pt x="700" y="368" on="1"/>
        <pt x="700" y="1447" on="1"/>
        <pt x="284" y="1447" on="1"/>
      </contour>
    </TTGlyph>
    <TTGlyph name="hehinitialaltonearabic" xMin="142" yMin="226" xMax="842" yMax="1588">
      <contour>
        <pt x="142" y="226" on="1"/>
        <pt x="142" y="1588" on="1"/>
        <pt x="842" y="1588" on="1"/>
        <pt x="842" y="226" on="1"/>
      </contour>
      <contour>
        <pt x="284" y="368" on="1"/>
        <pt x="700" y="368" on="1"/>
        <pt x="700" y="1447" on="1"/>
        <pt x="284" y="1447" on="1"/>
      </contour>
    </TTGlyph>
    <TTGlyph name="hehmedialaltonearabic" xMin="142" yMin="226" xMax="842" yMax="1588">
      <contour>
        <pt x="142" y="226" on="1"/>
        <pt x="142" y="1588" on="1"/>
        <pt x="842" y="1588" on="1"/>
        <pt x="842" y="226" on="1"/>
      </contour>
      <contour>
        <pt x="284" y="368" on="1"/>
        <pt x="700" y="368" on="1"/>
        <pt x="700" y="1447" on="1"/>
        <pt x="284" y="1447" on="1"/>
      </contour>
    </TTGlyph>
    <TTGlyph name="hyphen" xMin="318" yMin="-317" xMax="1999" yMax="1699">
      <contour>
        <pt x="1999" y="1295" on="1"/>
        <pt x="1999" y="1243" on="0"/>
        <pt x="1915" y="1191" on="1"/>
        <pt x="1854" y="1158" on="0"/>
        <pt x="1793" y="1123" on="1"/>
        <pt x="1782" y="1116" on="0"/>
        <pt x="1535" y="963" on="1"/>
        <pt x="1488" y="963" on="1"/>
        <pt x="1488" y="1017" on="1"/>
        <pt x="1488" y="1042" on="0"/>
        <pt x="1677" y="1157" on="1"/>
        <pt x="1815" y="1239" on="0"/>
        <pt x="1951" y="1320" on="1"/>
        <pt x="1987" y="1320" on="1"/>
        <pt x="1999" y="1319" on="0"/>
      </contour>
      <contour>
        <pt x="1426" y="1669" on="1"/>
        <pt x="1426" y="1626" on="0"/>
        <pt x="1399" y="1608" on="1"/>
        <pt x="1299" y="1542" on="0"/>
        <pt x="1131" y="1452" on="1"/>
        <pt x="990" y="1376" on="0"/>
        <pt x="849" y="1300" on="1"/>
        <pt x="805" y="1300" on="1"/>
        <pt x="791" y="1314" on="0"/>
        <pt x="791" y="1331" on="1"/>
        <pt x="791" y="1379" on="0"/>
        <pt x="824" y="1398" on="1"/>
        <pt x="1009" y="1493" on="0"/>
        <pt x="1378" y="1699" on="1"/>
        <pt x="1412" y="1699" on="1"/>
        <pt x="1426" y="1686" on="0"/>
      </contour>
      <contour>
        <pt x="1917" y="307" on="1"/>
        <pt x="1917" y="80" on="0"/>
        <pt x="1782" y="-108" on="1"/>
        <pt x="1633" y="-317" on="0"/>
        <pt x="1416" y="-317" on="1"/>
        <pt x="1329" y="-317" on="1"/>
        <pt x="1360" y="-317" on="0"/>
        <pt x="1134" y="-294" on="1"/>
        <pt x="1109" y="-291" on="0"/>
        <pt x="1068" y="-251" on="1"/>
        <pt x="1099" y="-215" on="0"/>
        <pt x="1124" y="-215" on="1"/>
        <pt x="1136" y="-215" on="0"/>
        <pt x="1245" y="-225" on="0"/>
        <pt x="1257" y="-225" on="1"/>
        <pt x="1399" y="-225" on="0"/>
        <pt x="1541" y="-140" on="1"/>
        <pt x="1708" y="-42" on="0"/>
        <pt x="1807" y="142" on="1"/>
        <pt x="1807" y="154" on="1"/>
        <pt x="1763" y="123" on="0"/>
        <pt x="1718" y="123" on="1"/>
        <pt x="1639" y="123" on="0"/>
        <pt x="1595" y="187" on="1"/>
        <pt x="1559" y="238" on="0"/>
        <pt x="1559" y="302" on="1"/>
        <pt x="1559" y="369" on="0"/>
        <pt x="1605" y="455" on="1"/>
        <pt x="1662" y="563" on="0"/>
        <pt x="1743" y="563" on="1"/>
        <pt x="1811" y="563" on="0"/>
        <pt x="1870" y="447" on="1"/>
        <pt x="1917" y="353" on="0"/>
      </contour>
      <contour>
        <pt x="1323" y="1166" on="1"/>
        <pt x="1323" y="1092" on="0"/>
        <pt x="1299" y="1057" on="1"/>
        <pt x="1268" y="1037" on="0"/>
        <pt x="1234" y="997" on="1"/>
        <pt x="1222" y="890" on="0"/>
        <pt x="1197" y="700" on="1"/>
        <pt x="1188" y="643" on="0"/>
        <pt x="1152" y="519" on="1"/>
        <pt x="1118" y="404" on="0"/>
        <pt x="1118" y="394" on="1"/>
        <pt x="1118" y="381" on="0"/>
        <pt x="1200" y="146" on="0"/>
        <pt x="1200" y="133" on="1"/>
        <pt x="1200" y="31" on="0"/>
        <pt x="1157" y="13" on="1"/>
        <pt x="1002" y="-51" on="0"/>
        <pt x="719" y="-51" on="1"/>
        <pt x="693" y="-51" on="0"/>
        <pt x="628" y="0" on="0"/>
        <pt x="628" y="25" on="1"/>
        <pt x="628" y="49" on="0"/>
        <pt x="650" y="89" on="1"/>
        <pt x="674" y="133" on="0"/>
        <pt x="694" y="133" on="1"/>
        <pt x="705" y="133" on="0"/>
        <pt x="744" y="123" on="0"/>
        <pt x="755" y="123" on="1"/>
        <pt x="805" y="123" on="0"/>
        <pt x="896" y="219" on="1"/>
        <pt x="986" y="312" on="0"/>
        <pt x="986" y="353" on="1"/>
        <pt x="986" y="361" on="0"/>
        <pt x="918" y="463" on="1"/>
        <pt x="859" y="555" on="0"/>
        <pt x="747" y="708" on="1"/>
        <pt x="710" y="750" on="0"/>
        <pt x="629" y="822" on="1"/>
        <pt x="539" y="901" on="0"/>
        <pt x="520" y="901" on="1"/>
        <pt x="507" y="901" on="0"/>
        <pt x="492" y="890" on="0"/>
        <pt x="479" y="890" on="1"/>
        <pt x="318" y="890" on="0"/>
        <pt x="318" y="1108" on="1"/>
        <pt x="318" y="1138" on="0"/>
        <pt x="321" y="1176" on="1"/>
        <pt x="321" y="1176" on="0"/>
        <pt x="338" y="1195" on="1"/>
        <pt x="349" y="1208" on="0"/>
        <pt x="366" y="1208" on="1"/>
        <pt x="413" y="1208" on="0"/>
        <pt x="586" y="1053" on="1"/>
        <pt x="725" y="927" on="0"/>
        <pt x="776" y="868" on="1"/>
        <pt x="833" y="800" on="0"/>
        <pt x="912" y="687" on="1"/>
        <pt x="1014" y="538" on="0"/>
        <pt x="1042" y="501" on="1"/>
        <pt x="1078" y="539" on="0"/>
        <pt x="1091" y="623" on="1"/>
        <pt x="1091" y="629" on="0"/>
        <pt x="1101" y="753" on="1"/>
        <pt x="1104" y="795" on="0"/>
        <pt x="1145" y="1071" on="1"/>
        <pt x="1134" y="1105" on="0"/>
        <pt x="1131" y="1184" on="1"/>
        <pt x="1145" y="1253" on="0"/>
        <pt x="1224" y="1351" on="1"/>
        <pt x="1260" y="1351" on="1"/>
        <pt x="1262" y="1345" on="0"/>
        <pt x="1262" y="1259" on="1"/>
        <pt x="1262" y="1203" on="0"/>
      </contour>
      <contour>
        <pt x="1784" y="333" on="1"/>
        <pt x="1784" y="351" on="0"/>
        <pt x="1720" y="411" on="0"/>
        <pt x="1696" y="419" on="1"/>
        <pt x="1661" y="385" on="0"/>
        <pt x="1661" y="358" on="1"/>
        <pt x="1661" y="331" on="0"/>
        <pt x="1706" y="287" on="0"/>
        <pt x="1733" y="287" on="1"/>
        <pt x="1748" y="287" on="0"/>
        <pt x="1770" y="298" on="0"/>
        <pt x="1773" y="298" on="1"/>
        <pt x="1773" y="301" on="0"/>
        <pt x="1784" y="318" on="0"/>
      </contour>
      <contour>
        <pt x="1088" y="178" on="1"/>
        <pt x="1088" y="222" on="0"/>
        <pt x="1041" y="246" on="1"/>
        <pt x="1000" y="204" on="0"/>
        <pt x="976" y="156" on="1"/>
        <pt x="1077" y="156" on="1"/>
        <pt x="1077" y="165" on="0"/>
      </contour>
    </TTGlyph>
    <TTGlyph name="irghizufinal" xMin="142" yMin="226" xMax="842" yMax="1588">
      <contour>
        <pt x="142" y="226" on="1"/>
        <pt x="142" y="1588" on="1"/>
        <pt x="842" y="1588" on="1"/>
        <pt x="842" y="226" on="1"/>
      </contour>
      <contour>
        <pt x="284" y="368" on="1"/>
        <pt x="700" y="368" on="1"/>
        <pt x="700" y="1447" on="1"/>
        <pt x="284" y="1447" on="1"/>
      </contour>
    </TTGlyph>
    <TTGlyph name="jehfinalarabic" xMin="142" yMin="226" xMax="842" yMax="1588">
      <contour>
        <pt x="142" y="226" on="1"/>
        <pt x="142" y="1588" on="1"/>
        <pt x="842" y="1588" on="1"/>
        <pt x="842" y="226" on="1"/>
      </contour>
      <contour>
        <pt x="284" y="368" on="1"/>
        <pt x="700" y="368" on="1"/>
        <pt x="700" y="1447" on="1"/>
        <pt x="284" y="1447" on="1"/>
      </contour>
    </TTGlyph>
    <TTGlyph name="kafringfinal" xMin="142" yMin="226" xMax="842" yMax="1588">
      <contour>
        <pt x="142" y="226" on="1"/>
        <pt x="142" y="1588" on="1"/>
        <pt x="842" y="1588" on="1"/>
        <pt x="842" y="226" on="1"/>
      </contour>
      <contour>
        <pt x="284" y="368" on="1"/>
        <pt x="700" y="368" on="1"/>
        <pt x="700" y="1447" on="1"/>
        <pt x="284" y="1447" on="1"/>
      </contour>
    </TTGlyph>
    <TTGlyph name="kafringinitial" xMin="142" yMin="226" xMax="842" yMax="1588">
      <contour>
        <pt x="142" y="226" on="1"/>
        <pt x="142" y="1588" on="1"/>
        <pt x="842" y="1588" on="1"/>
        <pt x="842" y="226" on="1"/>
      </contour>
      <contour>
        <pt x="284" y="368" on="1"/>
        <pt x="700" y="368" on="1"/>
        <pt x="700" y="1447" on="1"/>
        <pt x="284" y="1447" on="1"/>
      </contour>
    </TTGlyph>
    <TTGlyph name="kafringmedial" xMin="142" yMin="226" xMax="842" yMax="1588">
      <contour>
        <pt x="142" y="226" on="1"/>
        <pt x="142" y="1588" on="1"/>
        <pt x="842" y="1588" on="1"/>
        <pt x="842" y="226" on="1"/>
      </contour>
      <contour>
        <pt x="284" y="368" on="1"/>
        <pt x="700" y="368" on="1"/>
        <pt x="700" y="1447" on="1"/>
        <pt x="284" y="1447" on="1"/>
      </contour>
    </TTGlyph>
    <TTGlyph name="kashidaautoarabic" xMin="142" yMin="226" xMax="842" yMax="1588">
      <contour>
        <pt x="142" y="226" on="1"/>
        <pt x="142" y="1588" on="1"/>
        <pt x="842" y="1588" on="1"/>
        <pt x="842" y="226" on="1"/>
      </contour>
      <contour>
        <pt x="284" y="368" on="1"/>
        <pt x="700" y="368" on="1"/>
        <pt x="700" y="1447" on="1"/>
        <pt x="284" y="1447" on="1"/>
      </contour>
    </TTGlyph>
    <TTGlyph name="kashidaautonosidebearingarabic" xMin="142" yMin="226" xMax="842" yMax="1588">
      <contour>
        <pt x="142" y="226" on="1"/>
        <pt x="142" y="1588" on="1"/>
        <pt x="842" y="1588" on="1"/>
        <pt x="842" y="226" on="1"/>
      </contour>
      <contour>
        <pt x="284" y="368" on="1"/>
        <pt x="700" y="368" on="1"/>
        <pt x="700" y="1447" on="1"/>
        <pt x="284" y="1447" on="1"/>
      </contour>
    </TTGlyph>
    <TTGlyph name="kehehfinalarabic" xMin="142" yMin="226" xMax="842" yMax="1588">
      <contour>
        <pt x="142" y="226" on="1"/>
        <pt x="142" y="1588" on="1"/>
        <pt x="842" y="1588" on="1"/>
        <pt x="842" y="226" on="1"/>
      </contour>
      <contour>
        <pt x="284" y="368" on="1"/>
        <pt x="700" y="368" on="1"/>
        <pt x="700" y="1447" on="1"/>
        <pt x="284" y="1447" on="1"/>
      </contour>
    </TTGlyph>
    <TTGlyph name="kehehinitialarabic" xMin="142" yMin="226" xMax="842" yMax="1588">
      <contour>
        <pt x="142" y="226" on="1"/>
        <pt x="142" y="1588" on="1"/>
        <pt x="842" y="1588" on="1"/>
        <pt x="842" y="226" on="1"/>
      </contour>
      <contour>
        <pt x="284" y="368" on="1"/>
        <pt x="700" y="368" on="1"/>
        <pt x="700" y="1447" on="1"/>
        <pt x="284" y="1447" on="1"/>
      </contour>
    </TTGlyph>
    <TTGlyph name="kehehmedialarabic" xMin="142" yMin="226" xMax="842" yMax="1588">
      <contour>
        <pt x="142" y="226" on="1"/>
        <pt x="142" y="1588" on="1"/>
        <pt x="842" y="1588" on="1"/>
        <pt x="842" y="226" on="1"/>
      </contour>
      <contour>
        <pt x="284" y="368" on="1"/>
        <pt x="700" y="368" on="1"/>
        <pt x="700" y="1447" on="1"/>
        <pt x="284" y="1447" on="1"/>
      </contour>
    </TTGlyph>
    <TTGlyph name="kirghizyifinal" xMin="142" yMin="226" xMax="842" yMax="1588">
      <contour>
        <pt x="142" y="226" on="1"/>
        <pt x="142" y="1588" on="1"/>
        <pt x="842" y="1588" on="1"/>
        <pt x="842" y="226" on="1"/>
      </contour>
      <contour>
        <pt x="284" y="368" on="1"/>
        <pt x="700" y="368" on="1"/>
        <pt x="700" y="1447" on="1"/>
        <pt x="284" y="1447" on="1"/>
      </contour>
    </TTGlyph>
    <TTGlyph name="lammeemjeeminitialarabic" xMin="142" yMin="226" xMax="842" yMax="1588">
      <contour>
        <pt x="142" y="226" on="1"/>
        <pt x="142" y="1588" on="1"/>
        <pt x="842" y="1588" on="1"/>
        <pt x="842" y="226" on="1"/>
      </contour>
      <contour>
        <pt x="284" y="368" on="1"/>
        <pt x="700" y="368" on="1"/>
        <pt x="700" y="1447" on="1"/>
        <pt x="284" y="1447" on="1"/>
      </contour>
    </TTGlyph>
    <TTGlyph name="lammeemkhahinitialarabic" xMin="142" yMin="226" xMax="842" yMax="1588">
      <contour>
        <pt x="142" y="226" on="1"/>
        <pt x="142" y="1588" on="1"/>
        <pt x="842" y="1588" on="1"/>
        <pt x="842" y="226" on="1"/>
      </contour>
      <contour>
        <pt x="284" y="368" on="1"/>
        <pt x="700" y="368" on="1"/>
        <pt x="700" y="1447" on="1"/>
        <pt x="284" y="1447" on="1"/>
      </contour>
    </TTGlyph>
    <TTGlyph name="lamthreedotsabovefinal" xMin="142" yMin="226" xMax="842" yMax="1588">
      <contour>
        <pt x="142" y="226" on="1"/>
        <pt x="142" y="1588" on="1"/>
        <pt x="842" y="1588" on="1"/>
        <pt x="842" y="226" on="1"/>
      </contour>
      <contour>
        <pt x="284" y="368" on="1"/>
        <pt x="700" y="368" on="1"/>
        <pt x="700" y="1447" on="1"/>
        <pt x="284" y="1447" on="1"/>
      </contour>
    </TTGlyph>
    <TTGlyph name="lamthreedotsaboveinitial" xMin="142" yMin="226" xMax="842" yMax="1588">
      <contour>
        <pt x="142" y="226" on="1"/>
        <pt x="142" y="1588" on="1"/>
        <pt x="842" y="1588" on="1"/>
        <pt x="842" y="226" on="1"/>
      </contour>
      <contour>
        <pt x="284" y="368" on="1"/>
        <pt x="700" y="368" on="1"/>
        <pt x="700" y="1447" on="1"/>
        <pt x="284" y="1447" on="1"/>
      </contour>
    </TTGlyph>
    <TTGlyph name="lamthreedotsabovemedial" xMin="142" yMin="226" xMax="842" yMax="1588">
      <contour>
        <pt x="142" y="226" on="1"/>
        <pt x="142" y="1588" on="1"/>
        <pt x="842" y="1588" on="1"/>
        <pt x="842" y="226" on="1"/>
      </contour>
      <contour>
        <pt x="284" y="368" on="1"/>
        <pt x="700" y="368" on="1"/>
        <pt x="700" y="1447" on="1"/>
        <pt x="284" y="1447" on="1"/>
      </contour>
    </TTGlyph>
    <TTGlyph name="less" xMin="142" yMin="226" xMax="842" yMax="1588">
      <contour>
        <pt x="142" y="226" on="1"/>
        <pt x="142" y="1588" on="1"/>
        <pt x="842" y="1588" on="1"/>
        <pt x="842" y="226" on="1"/>
      </contour>
      <contour>
        <pt x="284" y="368" on="1"/>
        <pt x="700" y="368" on="1"/>
        <pt x="700" y="1447" on="1"/>
        <pt x="284" y="1447" on="1"/>
      </contour>
    </TTGlyph>
    <TTGlyph name="meemmeemisolatedarabic" xMin="142" yMin="226" xMax="842" yMax="1588">
      <contour>
        <pt x="142" y="226" on="1"/>
        <pt x="142" y="1588" on="1"/>
        <pt x="842" y="1588" on="1"/>
        <pt x="842" y="226" on="1"/>
      </contour>
      <contour>
        <pt x="284" y="368" on="1"/>
        <pt x="700" y="368" on="1"/>
        <pt x="700" y="1447" on="1"/>
        <pt x="284" y="1447" on="1"/>
      </contour>
    </TTGlyph>
    <TTGlyph name="multiply" xMin="142" yMin="226" xMax="842" yMax="1588">
      <contour>
        <pt x="142" y="226" on="1"/>
        <pt x="142" y="1588" on="1"/>
        <pt x="842" y="1588" on="1"/>
        <pt x="842" y="226" on="1"/>
      </contour>
      <contour>
        <pt x="284" y="368" on="1"/>
        <pt x="700" y="368" on="1"/>
        <pt x="700" y="1447" on="1"/>
        <pt x="284" y="1447" on="1"/>
      </contour>
    </TTGlyph>
    <TTGlyph name="noonghunnafinalarabic" xMin="142" yMin="226" xMax="842" yMax="1588">
      <contour>
        <pt x="142" y="226" on="1"/>
        <pt x="142" y="1588" on="1"/>
        <pt x="842" y="1588" on="1"/>
        <pt x="842" y="226" on="1"/>
      </contour>
      <contour>
        <pt x="284" y="368" on="1"/>
        <pt x="700" y="368" on="1"/>
        <pt x="700" y="1447" on="1"/>
        <pt x="284" y="1447" on="1"/>
      </contour>
    </TTGlyph>
    <TTGlyph name="noonjeemisolatedarabic" xMin="142" yMin="226" xMax="842" yMax="1588">
      <contour>
        <pt x="142" y="226" on="1"/>
        <pt x="142" y="1588" on="1"/>
        <pt x="842" y="1588" on="1"/>
        <pt x="842" y="226" on="1"/>
      </contour>
      <contour>
        <pt x="284" y="368" on="1"/>
        <pt x="700" y="368" on="1"/>
        <pt x="700" y="1447" on="1"/>
        <pt x="284" y="1447" on="1"/>
      </contour>
    </TTGlyph>
    <TTGlyph name="noonmeemisolatedarabic" xMin="142" yMin="226" xMax="842" yMax="1588">
      <contour>
        <pt x="142" y="226" on="1"/>
        <pt x="142" y="1588" on="1"/>
        <pt x="842" y="1588" on="1"/>
        <pt x="842" y="226" on="1"/>
      </contour>
      <contour>
        <pt x="284" y="368" on="1"/>
        <pt x="700" y="368" on="1"/>
        <pt x="700" y="1447" on="1"/>
        <pt x="284" y="1447" on="1"/>
      </contour>
    </TTGlyph>
    <TTGlyph name="noonringfinal" xMin="142" yMin="226" xMax="842" yMax="1588">
      <contour>
        <pt x="142" y="226" on="1"/>
        <pt x="142" y="1588" on="1"/>
        <pt x="842" y="1588" on="1"/>
        <pt x="842" y="226" on="1"/>
      </contour>
      <contour>
        <pt x="284" y="368" on="1"/>
        <pt x="700" y="368" on="1"/>
        <pt x="700" y="1447" on="1"/>
        <pt x="284" y="1447" on="1"/>
      </contour>
    </TTGlyph>
    <TTGlyph name="noonringinitial" xMin="142" yMin="226" xMax="842" yMax="1588">
      <contour>
        <pt x="142" y="226" on="1"/>
        <pt x="142" y="1588" on="1"/>
        <pt x="842" y="1588" on="1"/>
        <pt x="842" y="226" on="1"/>
      </contour>
      <contour>
        <pt x="284" y="368" on="1"/>
        <pt x="700" y="368" on="1"/>
        <pt x="700" y="1447" on="1"/>
        <pt x="284" y="1447" on="1"/>
      </contour>
    </TTGlyph>
    <TTGlyph name="noonringmedial" xMin="142" yMin="226" xMax="842" yMax="1588">
      <contour>
        <pt x="142" y="226" on="1"/>
        <pt x="142" y="1588" on="1"/>
        <pt x="842" y="1588" on="1"/>
        <pt x="842" y="226" on="1"/>
      </contour>
      <contour>
        <pt x="284" y="368" on="1"/>
        <pt x="700" y="368" on="1"/>
        <pt x="700" y="1447" on="1"/>
        <pt x="284" y="1447" on="1"/>
      </contour>
    </TTGlyph>
    <TTGlyph name="numbersign" xMin="142" yMin="226" xMax="842" yMax="1588">
      <contour>
        <pt x="142" y="226" on="1"/>
        <pt x="142" y="1588" on="1"/>
        <pt x="842" y="1588" on="1"/>
        <pt x="842" y="226" on="1"/>
      </contour>
      <contour>
        <pt x="284" y="368" on="1"/>
        <pt x="700" y="368" on="1"/>
        <pt x="700" y="1447" on="1"/>
        <pt x="284" y="1447" on="1"/>
      </contour>
    </TTGlyph>
    <TTGlyph name="parenleft" xMin="142" yMin="226" xMax="842" yMax="1588">
      <contour>
        <pt x="142" y="226" on="1"/>
        <pt x="142" y="1588" on="1"/>
        <pt x="842" y="1588" on="1"/>
        <pt x="842" y="226" on="1"/>
      </contour>
      <contour>
        <pt x="284" y="368" on="1"/>
        <pt x="700" y="368" on="1"/>
        <pt x="700" y="1447" on="1"/>
        <pt x="284" y="1447" on="1"/>
      </contour>
    </TTGlyph>
    <TTGlyph name="parenright" xMin="142" yMin="226" xMax="842" yMax="1588">
      <contour>
        <pt x="142" y="226" on="1"/>
        <pt x="142" y="1588" on="1"/>
        <pt x="842" y="1588" on="1"/>
        <pt x="842" y="226" on="1"/>
      </contour>
      <contour>
        <pt x="284" y="368" on="1"/>
        <pt x="700" y="368" on="1"/>
        <pt x="700" y="1447" on="1"/>
        <pt x="284" y="1447" on="1"/>
      </contour>
    </TTGlyph>
    <TTGlyph name="pashtoefinal" xMin="142" yMin="226" xMax="842" yMax="1588">
      <contour>
        <pt x="142" y="226" on="1"/>
        <pt x="142" y="1588" on="1"/>
        <pt x="842" y="1588" on="1"/>
        <pt x="842" y="226" on="1"/>
      </contour>
      <contour>
        <pt x="284" y="368" on="1"/>
        <pt x="700" y="368" on="1"/>
        <pt x="700" y="1447" on="1"/>
        <pt x="284" y="1447" on="1"/>
      </contour>
    </TTGlyph>
    <TTGlyph name="pashtoeinitial" xMin="142" yMin="226" xMax="842" yMax="1588">
      <contour>
        <pt x="142" y="226" on="1"/>
        <pt x="142" y="1588" on="1"/>
        <pt x="842" y="1588" on="1"/>
        <pt x="842" y="226" on="1"/>
      </contour>
      <contour>
        <pt x="284" y="368" on="1"/>
        <pt x="700" y="368" on="1"/>
        <pt x="700" y="1447" on="1"/>
        <pt x="284" y="1447" on="1"/>
      </contour>
    </TTGlyph>
    <TTGlyph name="pashtoemedial" xMin="142" yMin="226" xMax="842" yMax="1588">
      <contour>
        <pt x="142" y="226" on="1"/>
        <pt x="142" y="1588" on="1"/>
        <pt x="842" y="1588" on="1"/>
        <pt x="842" y="226" on="1"/>
      </contour>
      <contour>
        <pt x="284" y="368" on="1"/>
        <pt x="700" y="368" on="1"/>
        <pt x="700" y="1447" on="1"/>
        <pt x="284" y="1447" on="1"/>
      </contour>
    </TTGlyph>
    <TTGlyph name="pehfinalarabic" xMin="142" yMin="226" xMax="842" yMax="1588">
      <contour>
        <pt x="142" y="226" on="1"/>
        <pt x="142" y="1588" on="1"/>
        <pt x="842" y="1588" on="1"/>
        <pt x="842" y="226" on="1"/>
      </contour>
      <contour>
        <pt x="284" y="368" on="1"/>
        <pt x="700" y="368" on="1"/>
        <pt x="700" y="1447" on="1"/>
        <pt x="284" y="1447" on="1"/>
      </contour>
    </TTGlyph>
    <TTGlyph name="pehinitialarabic" xMin="142" yMin="226" xMax="842" yMax="1588">
      <contour>
        <pt x="142" y="226" on="1"/>
        <pt x="142" y="1588" on="1"/>
        <pt x="842" y="1588" on="1"/>
        <pt x="842" y="226" on="1"/>
      </contour>
      <contour>
        <pt x="284" y="368" on="1"/>
        <pt x="700" y="368" on="1"/>
        <pt x="700" y="1447" on="1"/>
        <pt x="284" y="1447" on="1"/>
      </contour>
    </TTGlyph>
    <TTGlyph name="pehmedialarabic" xMin="142" yMin="226" xMax="842" yMax="1588">
      <contour>
        <pt x="142" y="226" on="1"/>
        <pt x="142" y="1588" on="1"/>
        <pt x="842" y="1588" on="1"/>
        <pt x="842" y="226" on="1"/>
      </contour>
      <contour>
        <pt x="284" y="368" on="1"/>
        <pt x="700" y="368" on="1"/>
        <pt x="700" y="1447" on="1"/>
        <pt x="284" y="1447" on="1"/>
      </contour>
    </TTGlyph>
    <TTGlyph name="percent" xMin="142" yMin="226" xMax="842" yMax="1588">
      <contour>
        <pt x="142" y="226" on="1"/>
        <pt x="142" y="1588" on="1"/>
        <pt x="842" y="1588" on="1"/>
        <pt x="842" y="226" on="1"/>
      </contour>
      <contour>
        <pt x="284" y="368" on="1"/>
        <pt x="700" y="368" on="1"/>
        <pt x="700" y="1447" on="1"/>
        <pt x="284" y="1447" on="1"/>
      </contour>
    </TTGlyph>
    <TTGlyph name="period" xMin="142" yMin="226" xMax="842" yMax="1588">
      <contour>
        <pt x="142" y="226" on="1"/>
        <pt x="142" y="1588" on="1"/>
        <pt x="842" y="1588" on="1"/>
        <pt x="842" y="226" on="1"/>
      </contour>
      <contour>
        <pt x="284" y="368" on="1"/>
        <pt x="700" y="368" on="1"/>
        <pt x="700" y="1447" on="1"/>
        <pt x="284" y="1447" on="1"/>
      </contour>
    </TTGlyph>
    <TTGlyph name="plus" xMin="142" yMin="226" xMax="842" yMax="1588">
      <contour>
        <pt x="142" y="226" on="1"/>
        <pt x="142" y="1588" on="1"/>
        <pt x="842" y="1588" on="1"/>
        <pt x="842" y="226" on="1"/>
      </contour>
      <contour>
        <pt x="284" y="368" on="1"/>
        <pt x="700" y="368" on="1"/>
        <pt x="700" y="1447" on="1"/>
        <pt x="284" y="1447" on="1"/>
      </contour>
    </TTGlyph>
    <TTGlyph name="quotedbl" xMin="142" yMin="226" xMax="842" yMax="1588">
      <contour>
        <pt x="142" y="226" on="1"/>
        <pt x="142" y="1588" on="1"/>
        <pt x="842" y="1588" on="1"/>
        <pt x="842" y="226" on="1"/>
      </contour>
      <contour>
        <pt x="284" y="368" on="1"/>
        <pt x="700" y="368" on="1"/>
        <pt x="700" y="1447" on="1"/>
        <pt x="284" y="1447" on="1"/>
      </contour>
    </TTGlyph>
    <TTGlyph name="quotesingle" xMin="142" yMin="226" xMax="842" yMax="1588">
      <contour>
        <pt x="142" y="226" on="1"/>
        <pt x="142" y="1588" on="1"/>
        <pt x="842" y="1588" on="1"/>
        <pt x="842" y="226" on="1"/>
      </contour>
      <contour>
        <pt x="284" y="368" on="1"/>
        <pt x="700" y="368" on="1"/>
        <pt x="700" y="1447" on="1"/>
        <pt x="284" y="1447" on="1"/>
      </contour>
    </TTGlyph>
    <TTGlyph name="rehdotbelowdotabovefinal" xMin="142" yMin="226" xMax="842" yMax="1588">
      <contour>
        <pt x="142" y="226" on="1"/>
        <pt x="142" y="1588" on="1"/>
        <pt x="842" y="1588" on="1"/>
        <pt x="842" y="226" on="1"/>
      </contour>
      <contour>
        <pt x="284" y="368" on="1"/>
        <pt x="700" y="368" on="1"/>
        <pt x="700" y="1447" on="1"/>
        <pt x="284" y="1447" on="1"/>
      </contour>
    </TTGlyph>
    <TTGlyph name="rehringfinal" xMin="142" yMin="226" xMax="842" yMax="1588">
      <contour>
        <pt x="142" y="226" on="1"/>
        <pt x="142" y="1588" on="1"/>
        <pt x="842" y="1588" on="1"/>
        <pt x="842" y="226" on="1"/>
      </contour>
      <contour>
        <pt x="284" y="368" on="1"/>
        <pt x="700" y="368" on="1"/>
        <pt x="700" y="1447" on="1"/>
        <pt x="284" y="1447" on="1"/>
      </contour>
    </TTGlyph>
    <TTGlyph name="rrehfinalarabic" xMin="142" yMin="226" xMax="842" yMax="1588">
      <contour>
        <pt x="142" y="226" on="1"/>
        <pt x="142" y="1588" on="1"/>
        <pt x="842" y="1588" on="1"/>
        <pt x="842" y="226" on="1"/>
      </contour>
      <contour>
        <pt x="284" y="368" on="1"/>
        <pt x="700" y="368" on="1"/>
        <pt x="700" y="1447" on="1"/>
        <pt x="284" y="1447" on="1"/>
      </contour>
    </TTGlyph>
    <TTGlyph name="seendotbelowdotabovefinal" xMin="142" yMin="226" xMax="842" yMax="1588">
      <contour>
        <pt x="142" y="226" on="1"/>
        <pt x="142" y="1588" on="1"/>
        <pt x="842" y="1588" on="1"/>
        <pt x="842" y="226" on="1"/>
      </contour>
      <contour>
        <pt x="284" y="368" on="1"/>
        <pt x="700" y="368" on="1"/>
        <pt x="700" y="1447" on="1"/>
        <pt x="284" y="1447" on="1"/>
      </contour>
    </TTGlyph>
    <TTGlyph name="seendotbelowdotaboveinitial" xMin="142" yMin="226" xMax="842" yMax="1588">
      <contour>
        <pt x="142" y="226" on="1"/>
        <pt x="142" y="1588" on="1"/>
        <pt x="842" y="1588" on="1"/>
        <pt x="842" y="226" on="1"/>
      </contour>
      <contour>
        <pt x="284" y="368" on="1"/>
        <pt x="700" y="368" on="1"/>
        <pt x="700" y="1447" on="1"/>
        <pt x="284" y="1447" on="1"/>
      </contour>
    </TTGlyph>
    <TTGlyph name="seendotbelowdotabovemedial" xMin="142" yMin="226" xMax="842" yMax="1588">
      <contour>
        <pt x="142" y="226" on="1"/>
        <pt x="142" y="1588" on="1"/>
        <pt x="842" y="1588" on="1"/>
        <pt x="842" y="226" on="1"/>
      </contour>
      <contour>
        <pt x="284" y="368" on="1"/>
        <pt x="700" y="368" on="1"/>
        <pt x="700" y="1447" on="1"/>
        <pt x="284" y="1447" on="1"/>
      </contour>
    </TTGlyph>
    <TTGlyph name="shaddadammaarabic" xMin="142" yMin="226" xMax="842" yMax="1588">
      <contour>
        <pt x="142" y="226" on="1"/>
        <pt x="142" y="1588" on="1"/>
        <pt x="842" y="1588" on="1"/>
        <pt x="842" y="226" on="1"/>
      </contour>
      <contour>
        <pt x="284" y="368" on="1"/>
        <pt x="700" y="368" on="1"/>
        <pt x="700" y="1447" on="1"/>
        <pt x="284" y="1447" on="1"/>
      </contour>
    </TTGlyph>
    <TTGlyph name="shaddadammatanarabic" xMin="142" yMin="226" xMax="842" yMax="1588">
      <contour>
        <pt x="142" y="226" on="1"/>
        <pt x="142" y="1588" on="1"/>
        <pt x="842" y="1588" on="1"/>
        <pt x="842" y="226" on="1"/>
      </contour>
      <contour>
        <pt x="284" y="368" on="1"/>
        <pt x="700" y="368" on="1"/>
        <pt x="700" y="1447" on="1"/>
        <pt x="284" y="1447" on="1"/>
      </contour>
    </TTGlyph>
    <TTGlyph name="shaddafathaarabic" xMin="142" yMin="226" xMax="842" yMax="1588">
      <contour>
        <pt x="142" y="226" on="1"/>
        <pt x="142" y="1588" on="1"/>
        <pt x="842" y="1588" on="1"/>
        <pt x="842" y="226" on="1"/>
      </contour>
      <contour>
        <pt x="284" y="368" on="1"/>
        <pt x="700" y="368" on="1"/>
        <pt x="700" y="1447" on="1"/>
        <pt x="284" y="1447" on="1"/>
      </contour>
    </TTGlyph>
    <TTGlyph name="shaddakasraarabic" xMin="142" yMin="226" xMax="842" yMax="1588">
      <contour>
        <pt x="142" y="226" on="1"/>
        <pt x="142" y="1588" on="1"/>
        <pt x="842" y="1588" on="1"/>
        <pt x="842" y="226" on="1"/>
      </contour>
      <contour>
        <pt x="284" y="368" on="1"/>
        <pt x="700" y="368" on="1"/>
        <pt x="700" y="1447" on="1"/>
        <pt x="284" y="1447" on="1"/>
      </contour>
    </TTGlyph>
    <TTGlyph name="shaddakasratanarabic" xMin="142" yMin="226" xMax="842" yMax="1588">
      <contour>
        <pt x="142" y="226" on="1"/>
        <pt x="142" y="1588" on="1"/>
        <pt x="842" y="1588" on="1"/>
        <pt x="842" y="226" on="1"/>
      </contour>
      <contour>
        <pt x="284" y="368" on="1"/>
        <pt x="700" y="368" on="1"/>
        <pt x="700" y="1447" on="1"/>
        <pt x="284" y="1447" on="1"/>
      </contour>
    </TTGlyph>
    <TTGlyph name="slash" xMin="142" yMin="226" xMax="842" yMax="1588">
      <contour>
        <pt x="142" y="226" on="1"/>
        <pt x="142" y="1588" on="1"/>
        <pt x="842" y="1588" on="1"/>
        <pt x="842" y="226" on="1"/>
      </contour>
      <contour>
        <pt x="284" y="368" on="1"/>
        <pt x="700" y="368" on="1"/>
        <pt x="700" y="1447" on="1"/>
        <pt x="284" y="1447" on="1"/>
      </contour>
    </TTGlyph>
    <TTGlyph name="space" xMin="142" yMin="226" xMax="842" yMax="1588">
      <contour>
        <pt x="142" y="226" on="1"/>
        <pt x="142" y="1588" on="1"/>
        <pt x="842" y="1588" on="1"/>
        <pt x="842" y="226" on="1"/>
      </contour>
      <contour>
        <pt x="284" y="368" on="1"/>
        <pt x="700" y="368" on="1"/>
        <pt x="700" y="1447" on="1"/>
        <pt x="284" y="1447" on="1"/>
      </contour>
    </TTGlyph>
    <TTGlyph name="tchehfinalarabic" xMin="142" yMin="226" xMax="842" yMax="1588">
      <contour>
        <pt x="142" y="226" on="1"/>
        <pt x="142" y="1588" on="1"/>
        <pt x="842" y="1588" on="1"/>
        <pt x="842" y="226" on="1"/>
      </contour>
      <contour>
        <pt x="284" y="368" on="1"/>
        <pt x="700" y="368" on="1"/>
        <pt x="700" y="1447" on="1"/>
        <pt x="284" y="1447" on="1"/>
      </contour>
    </TTGlyph>
    <TTGlyph name="tchehinitialarabic" xMin="142" yMin="226" xMax="842" yMax="1588">
      <contour>
        <pt x="142" y="226" on="1"/>
        <pt x="142" y="1588" on="1"/>
        <pt x="842" y="1588" on="1"/>
        <pt x="842" y="226" on="1"/>
      </contour>
      <contour>
        <pt x="284" y="368" on="1"/>
        <pt x="700" y="368" on="1"/>
        <pt x="700" y="1447" on="1"/>
        <pt x="284" y="1447" on="1"/>
      </contour>
    </TTGlyph>
    <TTGlyph name="tchehmedialarabic" xMin="142" yMin="226" xMax="842" yMax="1588">
      <contour>
        <pt x="142" y="226" on="1"/>
        <pt x="142" y="1588" on="1"/>
        <pt x="842" y="1588" on="1"/>
        <pt x="842" y="226" on="1"/>
      </contour>
      <contour>
        <pt x="284" y="368" on="1"/>
        <pt x="700" y="368" on="1"/>
        <pt x="700" y="1447" on="1"/>
        <pt x="284" y="1447" on="1"/>
      </contour>
    </TTGlyph>
    <TTGlyph name="tehhahisolatedarabic" xMin="142" yMin="226" xMax="842" yMax="1588">
      <contour>
        <pt x="142" y="226" on="1"/>
        <pt x="142" y="1588" on="1"/>
        <pt x="842" y="1588" on="1"/>
        <pt x="842" y="226" on="1"/>
      </contour>
      <contour>
        <pt x="284" y="368" on="1"/>
        <pt x="700" y="368" on="1"/>
        <pt x="700" y="1447" on="1"/>
        <pt x="284" y="1447" on="1"/>
      </contour>
    </TTGlyph>
    <TTGlyph name="tehjeemisolatedarabic" xMin="142" yMin="226" xMax="842" yMax="1588">
      <contour>
        <pt x="142" y="226" on="1"/>
        <pt x="142" y="1588" on="1"/>
        <pt x="842" y="1588" on="1"/>
        <pt x="842" y="226" on="1"/>
      </contour>
      <contour>
        <pt x="284" y="368" on="1"/>
        <pt x="700" y="368" on="1"/>
        <pt x="700" y="1447" on="1"/>
        <pt x="284" y="1447" on="1"/>
      </contour>
    </TTGlyph>
    <TTGlyph name="tehmeemisolatedarabic" xMin="142" yMin="226" xMax="842" yMax="1588">
      <contour>
        <pt x="142" y="226" on="1"/>
        <pt x="142" y="1588" on="1"/>
        <pt x="842" y="1588" on="1"/>
        <pt x="842" y="226" on="1"/>
      </contour>
      <contour>
        <pt x="284" y="368" on="1"/>
        <pt x="700" y="368" on="1"/>
        <pt x="700" y="1447" on="1"/>
        <pt x="284" y="1447" on="1"/>
      </contour>
    </TTGlyph>
    <TTGlyph name="tehnoonfinalarabic" xMin="142" yMin="226" xMax="842" yMax="1588">
      <contour>
        <pt x="142" y="226" on="1"/>
        <pt x="142" y="1588" on="1"/>
        <pt x="842" y="1588" on="1"/>
        <pt x="842" y="226" on="1"/>
      </contour>
      <contour>
        <pt x="284" y="368" on="1"/>
        <pt x="700" y="368" on="1"/>
        <pt x="700" y="1447" on="1"/>
        <pt x="284" y="1447" on="1"/>
      </contour>
    </TTGlyph>
    <TTGlyph name="tehringfinal" xMin="142" yMin="226" xMax="842" yMax="1588">
      <contour>
        <pt x="142" y="226" on="1"/>
        <pt x="142" y="1588" on="1"/>
        <pt x="842" y="1588" on="1"/>
        <pt x="842" y="226" on="1"/>
      </contour>
      <contour>
        <pt x="284" y="368" on="1"/>
        <pt x="700" y="368" on="1"/>
        <pt x="700" y="1447" on="1"/>
        <pt x="284" y="1447" on="1"/>
      </contour>
    </TTGlyph>
    <TTGlyph name="tehringinitial" xMin="142" yMin="226" xMax="842" yMax="1588">
      <contour>
        <pt x="142" y="226" on="1"/>
        <pt x="142" y="1588" on="1"/>
        <pt x="842" y="1588" on="1"/>
        <pt x="842" y="226" on="1"/>
      </contour>
      <contour>
        <pt x="284" y="368" on="1"/>
        <pt x="700" y="368" on="1"/>
        <pt x="700" y="1447" on="1"/>
        <pt x="284" y="1447" on="1"/>
      </contour>
    </TTGlyph>
    <TTGlyph name="tehringmedial" xMin="142" yMin="226" xMax="842" yMax="1588">
      <contour>
        <pt x="142" y="226" on="1"/>
        <pt x="142" y="1588" on="1"/>
        <pt x="842" y="1588" on="1"/>
        <pt x="842" y="226" on="1"/>
      </contour>
      <contour>
        <pt x="284" y="368" on="1"/>
        <pt x="700" y="368" on="1"/>
        <pt x="700" y="1447" on="1"/>
        <pt x="284" y="1447" on="1"/>
      </contour>
    </TTGlyph>
    <TTGlyph name="ttehfinalarabic" xMin="142" yMin="226" xMax="842" yMax="1588">
      <contour>
        <pt x="142" y="226" on="1"/>
        <pt x="142" y="1588" on="1"/>
        <pt x="842" y="1588" on="1"/>
        <pt x="842" y="226" on="1"/>
      </contour>
      <contour>
        <pt x="284" y="368" on="1"/>
        <pt x="700" y="368" on="1"/>
        <pt x="700" y="1447" on="1"/>
        <pt x="284" y="1447" on="1"/>
      </contour>
    </TTGlyph>
    <TTGlyph name="ttehinitialarabic" xMin="142" yMin="226" xMax="842" yMax="1588">
      <contour>
        <pt x="142" y="226" on="1"/>
        <pt x="142" y="1588" on="1"/>
        <pt x="842" y="1588" on="1"/>
        <pt x="842" y="226" on="1"/>
      </contour>
      <contour>
        <pt x="284" y="368" on="1"/>
        <pt x="700" y="368" on="1"/>
        <pt x="700" y="1447" on="1"/>
        <pt x="284" y="1447" on="1"/>
      </contour>
    </TTGlyph>
    <TTGlyph name="ttehmedialarabic" xMin="142" yMin="226" xMax="842" yMax="1588">
      <contour>
        <pt x="142" y="226" on="1"/>
        <pt x="142" y="1588" on="1"/>
        <pt x="842" y="1588" on="1"/>
        <pt x="842" y="226" on="1"/>
      </contour>
      <contour>
        <pt x="284" y="368" on="1"/>
        <pt x="700" y="368" on="1"/>
        <pt x="700" y="1447" on="1"/>
        <pt x="284" y="1447" on="1"/>
      </contour>
    </TTGlyph>
    <TTGlyph name="uni000D" xMin="142" yMin="226" xMax="842" yMax="1588">
      <contour>
        <pt x="142" y="226" on="1"/>
        <pt x="142" y="1588" on="1"/>
        <pt x="842" y="1588" on="1"/>
        <pt x="842" y="226" on="1"/>
      </contour>
      <contour>
        <pt x="284" y="368" on="1"/>
        <pt x="700" y="368" on="1"/>
        <pt x="700" y="1447" on="1"/>
        <pt x="284" y="1447" on="1"/>
      </contour>
    </TTGlyph>
    <TTGlyph name="uni00A0" xMin="142" yMin="226" xMax="842" yMax="1588">
      <contour>
        <pt x="142" y="226" on="1"/>
        <pt x="142" y="1588" on="1"/>
        <pt x="842" y="1588" on="1"/>
        <pt x="842" y="226" on="1"/>
      </contour>
      <contour>
        <pt x="284" y="368" on="1"/>
        <pt x="700" y="368" on="1"/>
        <pt x="700" y="1447" on="1"/>
        <pt x="284" y="1447" on="1"/>
      </contour>
    </TTGlyph>
    <TTGlyph name="uni00AD" xMin="142" yMin="226" xMax="842" yMax="1588">
      <contour>
        <pt x="142" y="226" on="1"/>
        <pt x="142" y="1588" on="1"/>
        <pt x="842" y="1588" on="1"/>
        <pt x="842" y="226" on="1"/>
      </contour>
      <contour>
        <pt x="284" y="368" on="1"/>
        <pt x="700" y="368" on="1"/>
        <pt x="700" y="1447" on="1"/>
        <pt x="284" y="1447" on="1"/>
      </contour>
    </TTGlyph>
    <TTGlyph name="uni0653" xMin="142" yMin="226" xMax="842" yMax="1588">
      <contour>
        <pt x="142" y="226" on="1"/>
        <pt x="142" y="1588" on="1"/>
        <pt x="842" y="1588" on="1"/>
        <pt x="842" y="226" on="1"/>
      </contour>
      <contour>
        <pt x="284" y="368" on="1"/>
        <pt x="700" y="368" on="1"/>
        <pt x="700" y="1447" on="1"/>
        <pt x="284" y="1447" on="1"/>
      </contour>
    </TTGlyph>
    <TTGlyph name="uni0654" xMin="142" yMin="226" xMax="842" yMax="1588">
      <contour>
        <pt x="142" y="226" on="1"/>
        <pt x="142" y="1588" on="1"/>
        <pt x="842" y="1588" on="1"/>
        <pt x="842" y="226" on="1"/>
      </contour>
      <contour>
        <pt x="284" y="368" on="1"/>
        <pt x="700" y="368" on="1"/>
        <pt x="700" y="1447" on="1"/>
        <pt x="284" y="1447" on="1"/>
      </contour>
    </TTGlyph>
    <TTGlyph name="uni0655" xMin="142" yMin="226" xMax="842" yMax="1588">
      <contour>
        <pt x="142" y="226" on="1"/>
        <pt x="142" y="1588" on="1"/>
        <pt x="842" y="1588" on="1"/>
        <pt x="842" y="226" on="1"/>
      </contour>
      <contour>
        <pt x="284" y="368" on="1"/>
        <pt x="700" y="368" on="1"/>
        <pt x="700" y="1447" on="1"/>
        <pt x="284" y="1447" on="1"/>
      </contour>
    </TTGlyph>
    <TTGlyph name="uni066B" xMin="142" yMin="226" xMax="842" yMax="1588">
      <contour>
        <pt x="142" y="226" on="1"/>
        <pt x="142" y="1588" on="1"/>
        <pt x="842" y="1588" on="1"/>
        <pt x="842" y="226" on="1"/>
      </contour>
      <contour>
        <pt x="284" y="368" on="1"/>
        <pt x="700" y="368" on="1"/>
        <pt x="700" y="1447" on="1"/>
        <pt x="284" y="1447" on="1"/>
      </contour>
    </TTGlyph>
    <TTGlyph name="uni066C" xMin="142" yMin="226" xMax="842" yMax="1588">
      <contour>
        <pt x="142" y="226" on="1"/>
        <pt x="142" y="1588" on="1"/>
        <pt x="842" y="1588" on="1"/>
        <pt x="842" y="226" on="1"/>
      </contour>
      <contour>
        <pt x="284" y="368" on="1"/>
        <pt x="700" y="368" on="1"/>
        <pt x="700" y="1447" on="1"/>
        <pt x="284" y="1447" on="1"/>
      </contour>
    </TTGlyph>
    <TTGlyph name="uni0671" xMin="142" yMin="226" xMax="842" yMax="1588">
      <contour>
        <pt x="142" y="226" on="1"/>
        <pt x="142" y="1588" on="1"/>
        <pt x="842" y="1588" on="1"/>
        <pt x="842" y="226" on="1"/>
      </contour>
      <contour>
        <pt x="284" y="368" on="1"/>
        <pt x="700" y="368" on="1"/>
        <pt x="700" y="1447" on="1"/>
        <pt x="284" y="1447" on="1"/>
      </contour>
    </TTGlyph>
    <TTGlyph name="uni067C" xMin="142" yMin="226" xMax="842" yMax="1588">
      <contour>
        <pt x="142" y="226" on="1"/>
        <pt x="142" y="1588" on="1"/>
        <pt x="842" y="1588" on="1"/>
        <pt x="842" y="226" on="1"/>
      </contour>
      <contour>
        <pt x="284" y="368" on="1"/>
        <pt x="700" y="368" on="1"/>
        <pt x="700" y="1447" on="1"/>
        <pt x="284" y="1447" on="1"/>
      </contour>
    </TTGlyph>
    <TTGlyph name="uni0681" xMin="142" yMin="226" xMax="842" yMax="1588">
      <contour>
        <pt x="142" y="226" on="1"/>
        <pt x="142" y="1588" on="1"/>
        <pt x="842" y="1588" on="1"/>
        <pt x="842" y="226" on="1"/>
      </contour>
      <contour>
        <pt x="284" y="368" on="1"/>
        <pt x="700" y="368" on="1"/>
        <pt x="700" y="1447" on="1"/>
        <pt x="284" y="1447" on="1"/>
      </contour>
    </TTGlyph>
    <TTGlyph name="uni0685" xMin="142" yMin="226" xMax="842" yMax="1588">
      <contour>
        <pt x="142" y="226" on="1"/>
        <pt x="142" y="1588" on="1"/>
        <pt x="842" y="1588" on="1"/>
        <pt x="842" y="226" on="1"/>
      </contour>
      <contour>
        <pt x="284" y="368" on="1"/>
        <pt x="700" y="368" on="1"/>
        <pt x="700" y="1447" on="1"/>
        <pt x="284" y="1447" on="1"/>
      </contour>
    </TTGlyph>
    <TTGlyph name="uni0689" xMin="142" yMin="226" xMax="842" yMax="1588">
      <contour>
        <pt x="142" y="226" on="1"/>
        <pt x="142" y="1588" on="1"/>
        <pt x="842" y="1588" on="1"/>
        <pt x="842" y="226" on="1"/>
      </contour>
      <contour>
        <pt x="284" y="368" on="1"/>
        <pt x="700" y="368" on="1"/>
        <pt x="700" y="1447" on="1"/>
        <pt x="284" y="1447" on="1"/>
      </contour>
    </TTGlyph>
    <TTGlyph name="uni0693" xMin="142" yMin="226" xMax="842" yMax="1588">
      <contour>
        <pt x="142" y="226" on="1"/>
        <pt x="142" y="1588" on="1"/>
        <pt x="842" y="1588" on="1"/>
        <pt x="842" y="226" on="1"/>
      </contour>
      <contour>
        <pt x="284" y="368" on="1"/>
        <pt x="700" y="368" on="1"/>
        <pt x="700" y="1447" on="1"/>
        <pt x="284" y="1447" on="1"/>
      </contour>
    </TTGlyph>
    <TTGlyph name="uni0696" xMin="142" yMin="226" xMax="842" yMax="1588">
      <contour>
        <pt x="142" y="226" on="1"/>
        <pt x="142" y="1588" on="1"/>
        <pt x="842" y="1588" on="1"/>
        <pt x="842" y="226" on="1"/>
      </contour>
      <contour>
        <pt x="284" y="368" on="1"/>
        <pt x="700" y="368" on="1"/>
        <pt x="700" y="1447" on="1"/>
        <pt x="284" y="1447" on="1"/>
      </contour>
    </TTGlyph>
    <TTGlyph name="uni069A" xMin="142" yMin="226" xMax="842" yMax="1588">
      <contour>
        <pt x="142" y="226" on="1"/>
        <pt x="142" y="1588" on="1"/>
        <pt x="842" y="1588" on="1"/>
        <pt x="842" y="226" on="1"/>
      </contour>
      <contour>
        <pt x="284" y="368" on="1"/>
        <pt x="700" y="368" on="1"/>
        <pt x="700" y="1447" on="1"/>
        <pt x="284" y="1447" on="1"/>
      </contour>
    </TTGlyph>
    <TTGlyph name="uni06A9" xMin="142" yMin="226" xMax="842" yMax="1588">
      <contour>
        <pt x="142" y="226" on="1"/>
        <pt x="142" y="1588" on="1"/>
        <pt x="842" y="1588" on="1"/>
        <pt x="842" y="226" on="1"/>
      </contour>
      <contour>
        <pt x="284" y="368" on="1"/>
        <pt x="700" y="368" on="1"/>
        <pt x="700" y="1447" on="1"/>
        <pt x="284" y="1447" on="1"/>
      </contour>
    </TTGlyph>
    <TTGlyph name="uni06AB" xMin="142" yMin="226" xMax="842" yMax="1588">
      <contour>
        <pt x="142" y="226" on="1"/>
        <pt x="142" y="1588" on="1"/>
        <pt x="842" y="1588" on="1"/>
        <pt x="842" y="226" on="1"/>
      </contour>
      <contour>
        <pt x="284" y="368" on="1"/>
        <pt x="700" y="368" on="1"/>
        <pt x="700" y="1447" on="1"/>
        <pt x="284" y="1447" on="1"/>
      </contour>
    </TTGlyph>
    <TTGlyph name="uni06B7" xMin="142" yMin="226" xMax="842" yMax="1588">
      <contour>
        <pt x="142" y="226" on="1"/>
        <pt x="142" y="1588" on="1"/>
        <pt x="842" y="1588" on="1"/>
        <pt x="842" y="226" on="1"/>
      </contour>
      <contour>
        <pt x="284" y="368" on="1"/>
        <pt x="700" y="368" on="1"/>
        <pt x="700" y="1447" on="1"/>
        <pt x="284" y="1447" on="1"/>
      </contour>
    </TTGlyph>
    <TTGlyph name="uni06BC" xMin="142" yMin="226" xMax="842" yMax="1588">
      <contour>
        <pt x="142" y="226" on="1"/>
        <pt x="142" y="1588" on="1"/>
        <pt x="842" y="1588" on="1"/>
        <pt x="842" y="226" on="1"/>
      </contour>
      <contour>
        <pt x="284" y="368" on="1"/>
        <pt x="700" y="368" on="1"/>
        <pt x="700" y="1447" on="1"/>
        <pt x="284" y="1447" on="1"/>
      </contour>
    </TTGlyph>
    <TTGlyph name="uni06BE" xMin="142" yMin="226" xMax="842" yMax="1588">
      <contour>
        <pt x="142" y="226" on="1"/>
        <pt x="142" y="1588" on="1"/>
        <pt x="842" y="1588" on="1"/>
        <pt x="842" y="226" on="1"/>
      </contour>
      <contour>
        <pt x="284" y="368" on="1"/>
        <pt x="700" y="368" on="1"/>
        <pt x="700" y="1447" on="1"/>
        <pt x="284" y="1447" on="1"/>
      </contour>
    </TTGlyph>
    <TTGlyph name="uni06C2" xMin="142" yMin="226" xMax="842" yMax="1588">
      <contour>
        <pt x="142" y="226" on="1"/>
        <pt x="142" y="1588" on="1"/>
        <pt x="842" y="1588" on="1"/>
        <pt x="842" y="226" on="1"/>
      </contour>
      <contour>
        <pt x="284" y="368" on="1"/>
        <pt x="700" y="368" on="1"/>
        <pt x="700" y="1447" on="1"/>
        <pt x="284" y="1447" on="1"/>
      </contour>
    </TTGlyph>
    <TTGlyph name="uni06C7" xMin="142" yMin="226" xMax="842" yMax="1588">
      <contour>
        <pt x="142" y="226" on="1"/>
        <pt x="142" y="1588" on="1"/>
        <pt x="842" y="1588" on="1"/>
        <pt x="842" y="226" on="1"/>
      </contour>
      <contour>
        <pt x="284" y="368" on="1"/>
        <pt x="700" y="368" on="1"/>
        <pt x="700" y="1447" on="1"/>
        <pt x="284" y="1447" on="1"/>
      </contour>
    </TTGlyph>
    <TTGlyph name="uni06C9" xMin="142" yMin="226" xMax="842" yMax="1588">
      <contour>
        <pt x="142" y="226" on="1"/>
        <pt x="142" y="1588" on="1"/>
        <pt x="842" y="1588" on="1"/>
        <pt x="842" y="226" on="1"/>
      </contour>
      <contour>
        <pt x="284" y="368" on="1"/>
        <pt x="700" y="368" on="1"/>
        <pt x="700" y="1447" on="1"/>
        <pt x="284" y="1447" on="1"/>
      </contour>
    </TTGlyph>
    <TTGlyph name="uni06CC" xMin="142" yMin="226" xMax="842" yMax="1588">
      <contour>
        <pt x="142" y="226" on="1"/>
        <pt x="142" y="1588" on="1"/>
        <pt x="842" y="1588" on="1"/>
        <pt x="842" y="226" on="1"/>
      </contour>
      <contour>
        <pt x="284" y="368" on="1"/>
        <pt x="700" y="368" on="1"/>
        <pt x="700" y="1447" on="1"/>
        <pt x="284" y="1447" on="1"/>
      </contour>
    </TTGlyph>
    <TTGlyph name="uni06CD" xMin="142" yMin="226" xMax="842" yMax="1588">
      <contour>
        <pt x="142" y="226" on="1"/>
        <pt x="142" y="1588" on="1"/>
        <pt x="842" y="1588" on="1"/>
        <pt x="842" y="226" on="1"/>
      </contour>
      <contour>
        <pt x="284" y="368" on="1"/>
        <pt x="700" y="368" on="1"/>
        <pt x="700" y="1447" on="1"/>
        <pt x="284" y="1447" on="1"/>
      </contour>
    </TTGlyph>
    <TTGlyph name="uni06D0" xMin="142" yMin="226" xMax="842" yMax="1588">
      <contour>
        <pt x="142" y="226" on="1"/>
        <pt x="142" y="1588" on="1"/>
        <pt x="842" y="1588" on="1"/>
        <pt x="842" y="226" on="1"/>
      </contour>
      <contour>
        <pt x="284" y="368" on="1"/>
        <pt x="700" y="368" on="1"/>
        <pt x="700" y="1447" on="1"/>
        <pt x="284" y="1447" on="1"/>
      </contour>
    </TTGlyph>
    <TTGlyph name="uni06D1" xMin="142" yMin="226" xMax="842" yMax="1588">
      <contour>
        <pt x="142" y="226" on="1"/>
        <pt x="142" y="1588" on="1"/>
        <pt x="842" y="1588" on="1"/>
        <pt x="842" y="226" on="1"/>
      </contour>
      <contour>
        <pt x="284" y="368" on="1"/>
        <pt x="700" y="368" on="1"/>
        <pt x="700" y="1447" on="1"/>
        <pt x="284" y="1447" on="1"/>
      </contour>
    </TTGlyph>
    <TTGlyph name="uni06D3" xMin="142" yMin="226" xMax="842" yMax="1588">
      <contour>
        <pt x="142" y="226" on="1"/>
        <pt x="142" y="1588" on="1"/>
        <pt x="842" y="1588" on="1"/>
        <pt x="842" y="226" on="1"/>
      </contour>
      <contour>
        <pt x="284" y="368" on="1"/>
        <pt x="700" y="368" on="1"/>
        <pt x="700" y="1447" on="1"/>
        <pt x="284" y="1447" on="1"/>
      </contour>
    </TTGlyph>
    <TTGlyph name="uni06D4" xMin="142" yMin="226" xMax="842" yMax="1588">
      <contour>
        <pt x="142" y="226" on="1"/>
        <pt x="142" y="1588" on="1"/>
        <pt x="842" y="1588" on="1"/>
        <pt x="842" y="226" on="1"/>
      </contour>
      <contour>
        <pt x="284" y="368" on="1"/>
        <pt x="700" y="368" on="1"/>
        <pt x="700" y="1447" on="1"/>
        <pt x="284" y="1447" on="1"/>
      </contour>
    </TTGlyph>
    <TTGlyph name="uni06F0" xMin="142" yMin="226" xMax="842" yMax="1588">
      <contour>
        <pt x="142" y="226" on="1"/>
        <pt x="142" y="1588" on="1"/>
        <pt x="842" y="1588" on="1"/>
        <pt x="842" y="226" on="1"/>
      </contour>
      <contour>
        <pt x="284" y="368" on="1"/>
        <pt x="700" y="368" on="1"/>
        <pt x="700" y="1447" on="1"/>
        <pt x="284" y="1447" on="1"/>
      </contour>
    </TTGlyph>
    <TTGlyph name="uni06F1" xMin="142" yMin="226" xMax="842" yMax="1588">
      <contour>
        <pt x="142" y="226" on="1"/>
        <pt x="142" y="1588" on="1"/>
        <pt x="842" y="1588" on="1"/>
        <pt x="842" y="226" on="1"/>
      </contour>
      <contour>
        <pt x="284" y="368" on="1"/>
        <pt x="700" y="368" on="1"/>
        <pt x="700" y="1447" on="1"/>
        <pt x="284" y="1447" on="1"/>
      </contour>
    </TTGlyph>
    <TTGlyph name="uni06F2" xMin="142" yMin="226" xMax="842" yMax="1588">
      <contour>
        <pt x="142" y="226" on="1"/>
        <pt x="142" y="1588" on="1"/>
        <pt x="842" y="1588" on="1"/>
        <pt x="842" y="226" on="1"/>
      </contour>
      <contour>
        <pt x="284" y="368" on="1"/>
        <pt x="700" y="368" on="1"/>
        <pt x="700" y="1447" on="1"/>
        <pt x="284" y="1447" on="1"/>
      </contour>
    </TTGlyph>
    <TTGlyph name="uni06F3" xMin="142" yMin="226" xMax="842" yMax="1588">
      <contour>
        <pt x="142" y="226" on="1"/>
        <pt x="142" y="1588" on="1"/>
        <pt x="842" y="1588" on="1"/>
        <pt x="842" y="226" on="1"/>
      </contour>
      <contour>
        <pt x="284" y="368" on="1"/>
        <pt x="700" y="368" on="1"/>
        <pt x="700" y="1447" on="1"/>
        <pt x="284" y="1447" on="1"/>
      </contour>
    </TTGlyph>
    <TTGlyph name="uni06F4" xMin="142" yMin="226" xMax="842" yMax="1588">
      <contour>
        <pt x="142" y="226" on="1"/>
        <pt x="142" y="1588" on="1"/>
        <pt x="842" y="1588" on="1"/>
        <pt x="842" y="226" on="1"/>
      </contour>
      <contour>
        <pt x="284" y="368" on="1"/>
        <pt x="700" y="368" on="1"/>
        <pt x="700" y="1447" on="1"/>
        <pt x="284" y="1447" on="1"/>
      </contour>
    </TTGlyph>
    <TTGlyph name="uni06F5" xMin="142" yMin="226" xMax="842" yMax="1588">
      <contour>
        <pt x="142" y="226" on="1"/>
        <pt x="142" y="1588" on="1"/>
        <pt x="842" y="1588" on="1"/>
        <pt x="842" y="226" on="1"/>
      </contour>
      <contour>
        <pt x="284" y="368" on="1"/>
        <pt x="700" y="368" on="1"/>
        <pt x="700" y="1447" on="1"/>
        <pt x="284" y="1447" on="1"/>
      </contour>
    </TTGlyph>
    <TTGlyph name="uni06F6" xMin="142" yMin="226" xMax="842" yMax="1588">
      <contour>
        <pt x="142" y="226" on="1"/>
        <pt x="142" y="1588" on="1"/>
        <pt x="842" y="1588" on="1"/>
        <pt x="842" y="226" on="1"/>
      </contour>
      <contour>
        <pt x="284" y="368" on="1"/>
        <pt x="700" y="368" on="1"/>
        <pt x="700" y="1447" on="1"/>
        <pt x="284" y="1447" on="1"/>
      </contour>
    </TTGlyph>
    <TTGlyph name="uni06F7" xMin="142" yMin="226" xMax="842" yMax="1588">
      <contour>
        <pt x="142" y="226" on="1"/>
        <pt x="142" y="1588" on="1"/>
        <pt x="842" y="1588" on="1"/>
        <pt x="842" y="226" on="1"/>
      </contour>
      <contour>
        <pt x="284" y="368" on="1"/>
        <pt x="700" y="368" on="1"/>
        <pt x="700" y="1447" on="1"/>
        <pt x="284" y="1447" on="1"/>
      </contour>
    </TTGlyph>
    <TTGlyph name="uni06F8" xMin="142" yMin="226" xMax="842" yMax="1588">
      <contour>
        <pt x="142" y="226" on="1"/>
        <pt x="142" y="1588" on="1"/>
        <pt x="842" y="1588" on="1"/>
        <pt x="842" y="226" on="1"/>
      </contour>
      <contour>
        <pt x="284" y="368" on="1"/>
        <pt x="700" y="368" on="1"/>
        <pt x="700" y="1447" on="1"/>
        <pt x="284" y="1447" on="1"/>
      </contour>
    </TTGlyph>
    <TTGlyph name="uni06F9" xMin="142" yMin="226" xMax="842" yMax="1588">
      <contour>
        <pt x="142" y="226" on="1"/>
        <pt x="142" y="1588" on="1"/>
        <pt x="842" y="1588" on="1"/>
        <pt x="842" y="226" on="1"/>
      </contour>
      <contour>
        <pt x="284" y="368" on="1"/>
        <pt x="700" y="368" on="1"/>
        <pt x="700" y="1447" on="1"/>
        <pt x="284" y="1447" on="1"/>
      </contour>
    </TTGlyph>
    <TTGlyph name="uni2010" xMin="318" yMin="-317" xMax="1999" yMax="1699">
      <contour>
        <pt x="1999" y="1295" on="1"/>
        <pt x="1999" y="1243" on="0"/>
        <pt x="1915" y="1191" on="1"/>
        <pt x="1854" y="1158" on="0"/>
        <pt x="1793" y="1123" on="1"/>
        <pt x="1782" y="1116" on="0"/>
        <pt x="1535" y="963" on="1"/>
        <pt x="1488" y="963" on="1"/>
        <pt x="1488" y="1017" on="1"/>
        <pt x="1488" y="1042" on="0"/>
        <pt x="1677" y="1157" on="1"/>
        <pt x="1815" y="1239" on="0"/>
        <pt x="1951" y="1320" on="1"/>
        <pt x="1987" y="1320" on="1"/>
        <pt x="1999" y="1319" on="0"/>
      </contour>
      <contour>
        <pt x="1426" y="1669" on="1"/>
        <pt x="1426" y="1626" on="0"/>
        <pt x="1399" y="1608" on="1"/>
        <pt x="1299" y="1542" on="0"/>
        <pt x="1131" y="1452" on="1"/>
        <pt x="990" y="1376" on="0"/>
        <pt x="849" y="1300" on="1"/>
        <pt x="805" y="1300" on="1"/>
        <pt x="791" y="1314" on="0"/>
        <pt x="791" y="1331" on="1"/>
        <pt x="791" y="1379" on="0"/>
        <pt x="824" y="1398" on="1"/>
        <pt x="1009" y="1493" on="0"/>
        <pt x="1378" y="1699" on="1"/>
        <pt x="1412" y="1699" on="1"/>
        <pt x="1426" y="1686" on="0"/>
      </contour>
      <contour>
        <pt x="1917" y="307" on="1"/>
        <pt x="1917" y="80" on="0"/>
        <pt x="1782" y="-108" on="1"/>
        <pt x="1633" y="-317" on="0"/>
        <pt x="1416" y="-317" on="1"/>
        <pt x="1329" y="-317" on="1"/>
        <pt x="1360" y="-317" on="0"/>
        <pt x="1134" y="-294" on="1"/>
        <pt x="1109" y="-291" on="0"/>
        <pt x="1068" y="-251" on="1"/>
        <pt x="1099" y="-215" on="0"/>
        <pt x="1124" y="-215" on="1"/>
        <pt x="1136" y="-215" on="0"/>
        <pt x="1245" y="-225" on="0"/>
        <pt x="1257" y="-225" on="1"/>
        <pt x="1399" y="-225" on="0"/>
        <pt x="1541" y="-140" on="1"/>
        <pt x="1708" y="-42" on="0"/>
        <pt x="1807" y="142" on="1"/>
        <pt x="1807" y="154" on="1"/>
        <pt x="1763" y="123" on="0"/>
        <pt x="1718" y="123" on="1"/>
        <pt x="1639" y="123" on="0"/>
        <pt x="1595" y="187" on="1"/>
        <pt x="1559" y="238" on="0"/>
        <pt x="1559" y="302" on="1"/>
        <pt x="1559" y="369" on="0"/>
        <pt x="1605" y="455" on="1"/>
        <pt x="1662" y="563" on="0"/>
        <pt x="1743" y="563" on="1"/>
        <pt x="1811" y="563" on="0"/>
        <pt x="1870" y="447" on="1"/>
        <pt x="1917" y="353" on="0"/>
      </contour>
      <contour>
        <pt x="1323" y="1166" on="1"/>
        <pt x="1323" y="1092" on="0"/>
        <pt x="1299" y="1057" on="1"/>
        <pt x="1268" y="1037" on="0"/>
        <pt x="1234" y="997" on="1"/>
        <pt x="1222" y="890" on="0"/>
        <pt x="1197" y="700" on="1"/>
        <pt x="1188" y="643" on="0"/>
        <pt x="1152" y="519" on="1"/>
        <pt x="1118" y="404" on="0"/>
        <pt x="1118" y="394" on="1"/>
        <pt x="1118" y="381" on="0"/>
        <pt x="1200" y="146" on="0"/>
        <pt x="1200" y="133" on="1"/>
        <pt x="1200" y="31" on="0"/>
        <pt x="1157" y="13" on="1"/>
        <pt x="1002" y="-51" on="0"/>
        <pt x="719" y="-51" on="1"/>
        <pt x="693" y="-51" on="0"/>
        <pt x="628" y="0" on="0"/>
        <pt x="628" y="25" on="1"/>
        <pt x="628" y="49" on="0"/>
        <pt x="650" y="89" on="1"/>
        <pt x="674" y="133" on="0"/>
        <pt x="694" y="133" on="1"/>
        <pt x="705" y="133" on="0"/>
        <pt x="744" y="123" on="0"/>
        <pt x="755" y="123" on="1"/>
        <pt x="805" y="123" on="0"/>
        <pt x="896" y="219" on="1"/>
        <pt x="986" y="312" on="0"/>
        <pt x="986" y="353" on="1"/>
        <pt x="986" y="361" on="0"/>
        <pt x="918" y="463" on="1"/>
        <pt x="859" y="555" on="0"/>
        <pt x="747" y="708" on="1"/>
        <pt x="710" y="750" on="0"/>
        <pt x="629" y="822" on="1"/>
        <pt x="539" y="901" on="0"/>
        <pt x="520" y="901" on="1"/>
        <pt x="507" y="901" on="0"/>
        <pt x="492" y="890" on="0"/>
        <pt x="479" y="890" on="1"/>
        <pt x="318" y="890" on="0"/>
        <pt x="318" y="1108" on="1"/>
        <pt x="318" y="1138" on="0"/>
        <pt x="321" y="1176" on="1"/>
        <pt x="321" y="1176" on="0"/>
        <pt x="338" y="1195" on="1"/>
        <pt x="349" y="1208" on="0"/>
        <pt x="366" y="1208" on="1"/>
        <pt x="413" y="1208" on="0"/>
        <pt x="586" y="1053" on="1"/>
        <pt x="725" y="927" on="0"/>
        <pt x="776" y="868" on="1"/>
        <pt x="833" y="800" on="0"/>
        <pt x="912" y="687" on="1"/>
        <pt x="1014" y="538" on="0"/>
        <pt x="1042" y="501" on="1"/>
        <pt x="1078" y="539" on="0"/>
        <pt x="1091" y="623" on="1"/>
        <pt x="1091" y="629" on="0"/>
        <pt x="1101" y="753" on="1"/>
        <pt x="1104" y="795" on="0"/>
        <pt x="1145" y="1071" on="1"/>
        <pt x="1134" y="1105" on="0"/>
        <pt x="1131" y="1184" on="1"/>
        <pt x="1145" y="1253" on="0"/>
        <pt x="1224" y="1351" on="1"/>
        <pt x="1260" y="1351" on="1"/>
        <pt x="1262" y="1345" on="0"/>
        <pt x="1262" y="1259" on="1"/>
        <pt x="1262" y="1203" on="0"/>
      </contour>
      <contour>
        <pt x="1784" y="333" on="1"/>
        <pt x="1784" y="351" on="0"/>
        <pt x="1720" y="411" on="0"/>
        <pt x="1696" y="419" on="1"/>
        <pt x="1661" y="385" on="0"/>
        <pt x="1661" y="358" on="1"/>
        <pt x="1661" y="331" on="0"/>
        <pt x="1706" y="287" on="0"/>
        <pt x="1733" y="287" on="1"/>
        <pt x="1748" y="287" on="0"/>
        <pt x="1770" y="298" on="0"/>
        <pt x="1773" y="298" on="1"/>
        <pt x="1773" y="301" on="0"/>
        <pt x="1784" y="318" on="0"/>
      </contour>
      <contour>
        <pt x="1088" y="178" on="1"/>
        <pt x="1088" y="222" on="0"/>
        <pt x="1041" y="246" on="1"/>
        <pt x="1000" y="204" on="0"/>
        <pt x="976" y="156" on="1"/>
        <pt x="1077" y="156" on="1"/>
        <pt x="1077" y="165" on="0"/>
      </contour>
    </TTGlyph>
    <TTGlyph name="uni2011" xMin="318" yMin="-317" xMax="1999" yMax="1699">
      <contour>
        <pt x="1999" y="1295" on="1"/>
        <pt x="1999" y="1243" on="0"/>
        <pt x="1915" y="1191" on="1"/>
        <pt x="1854" y="1158" on="0"/>
        <pt x="1793" y="1123" on="1"/>
        <pt x="1782" y="1116" on="0"/>
        <pt x="1535" y="963" on="1"/>
        <pt x="1488" y="963" on="1"/>
        <pt x="1488" y="1017" on="1"/>
        <pt x="1488" y="1042" on="0"/>
        <pt x="1677" y="1157" on="1"/>
        <pt x="1815" y="1239" on="0"/>
        <pt x="1951" y="1320" on="1"/>
        <pt x="1987" y="1320" on="1"/>
        <pt x="1999" y="1319" on="0"/>
      </contour>
      <contour>
        <pt x="1426" y="1669" on="1"/>
        <pt x="1426" y="1626" on="0"/>
        <pt x="1399" y="1608" on="1"/>
        <pt x="1299" y="1542" on="0"/>
        <pt x="1131" y="1452" on="1"/>
        <pt x="990" y="1376" on="0"/>
        <pt x="849" y="1300" on="1"/>
        <pt x="805" y="1300" on="1"/>
        <pt x="791" y="1314" on="0"/>
        <pt x="791" y="1331" on="1"/>
        <pt x="791" y="1379" on="0"/>
        <pt x="824" y="1398" on="1"/>
        <pt x="1009" y="1493" on="0"/>
        <pt x="1378" y="1699" on="1"/>
        <pt x="1412" y="1699" on="1"/>
        <pt x="1426" y="1686" on="0"/>
      </contour>
      <contour>
        <pt x="1917" y="307" on="1"/>
        <pt x="1917" y="80" on="0"/>
        <pt x="1782" y="-108" on="1"/>
        <pt x="1633" y="-317" on="0"/>
        <pt x="1416" y="-317" on="1"/>
        <pt x="1329" y="-317" on="1"/>
        <pt x="1360" y="-317" on="0"/>
        <pt x="1134" y="-294" on="1"/>
        <pt x="1109" y="-291" on="0"/>
        <pt x="1068" y="-251" on="1"/>
        <pt x="1099" y="-215" on="0"/>
        <pt x="1124" y="-215" on="1"/>
        <pt x="1136" y="-215" on="0"/>
        <pt x="1245" y="-225" on="0"/>
        <pt x="1257" y="-225" on="1"/>
        <pt x="1399" y="-225" on="0"/>
        <pt x="1541" y="-140" on="1"/>
        <pt x="1708" y="-42" on="0"/>
        <pt x="1807" y="142" on="1"/>
        <pt x="1807" y="154" on="1"/>
        <pt x="1763" y="123" on="0"/>
        <pt x="1718" y="123" on="1"/>
        <pt x="1639" y="123" on="0"/>
        <pt x="1595" y="187" on="1"/>
        <pt x="1559" y="238" on="0"/>
        <pt x="1559" y="302" on="1"/>
        <pt x="1559" y="369" on="0"/>
        <pt x="1605" y="455" on="1"/>
        <pt x="1662" y="563" on="0"/>
        <pt x="1743" y="563" on="1"/>
        <pt x="1811" y="563" on="0"/>
        <pt x="1870" y="447" on="1"/>
        <pt x="1917" y="353" on="0"/>
      </contour>
      <contour>
        <pt x="1323" y="1166" on="1"/>
        <pt x="1323" y="1092" on="0"/>
        <pt x="1299" y="1057" on="1"/>
        <pt x="1268" y="1037" on="0"/>
        <pt x="1234" y="997" on="1"/>
        <pt x="1222" y="890" on="0"/>
        <pt x="1197" y="700" on="1"/>
        <pt x="1188" y="643" on="0"/>
        <pt x="1152" y="519" on="1"/>
        <pt x="1118" y="404" on="0"/>
        <pt x="1118" y="394" on="1"/>
        <pt x="1118" y="381" on="0"/>
        <pt x="1200" y="146" on="0"/>
        <pt x="1200" y="133" on="1"/>
        <pt x="1200" y="31" on="0"/>
        <pt x="1157" y="13" on="1"/>
        <pt x="1002" y="-51" on="0"/>
        <pt x="719" y="-51" on="1"/>
        <pt x="693" y="-51" on="0"/>
        <pt x="628" y="0" on="0"/>
        <pt x="628" y="25" on="1"/>
        <pt x="628" y="49" on="0"/>
        <pt x="650" y="89" on="1"/>
        <pt x="674" y="133" on="0"/>
        <pt x="694" y="133" on="1"/>
        <pt x="705" y="133" on="0"/>
        <pt x="744" y="123" on="0"/>
        <pt x="755" y="123" on="1"/>
        <pt x="805" y="123" on="0"/>
        <pt x="896" y="219" on="1"/>
        <pt x="986" y="312" on="0"/>
        <pt x="986" y="353" on="1"/>
        <pt x="986" y="361" on="0"/>
        <pt x="918" y="463" on="1"/>
        <pt x="859" y="555" on="0"/>
        <pt x="747" y="708" on="1"/>
        <pt x="710" y="750" on="0"/>
        <pt x="629" y="822" on="1"/>
        <pt x="539" y="901" on="0"/>
        <pt x="520" y="901" on="1"/>
        <pt x="507" y="901" on="0"/>
        <pt x="492" y="890" on="0"/>
        <pt x="479" y="890" on="1"/>
        <pt x="318" y="890" on="0"/>
        <pt x="318" y="1108" on="1"/>
        <pt x="318" y="1138" on="0"/>
        <pt x="321" y="1176" on="1"/>
        <pt x="321" y="1176" on="0"/>
        <pt x="338" y="1195" on="1"/>
        <pt x="349" y="1208" on="0"/>
        <pt x="366" y="1208" on="1"/>
        <pt x="413" y="1208" on="0"/>
        <pt x="586" y="1053" on="1"/>
        <pt x="725" y="927" on="0"/>
        <pt x="776" y="868" on="1"/>
        <pt x="833" y="800" on="0"/>
        <pt x="912" y="687" on="1"/>
        <pt x="1014" y="538" on="0"/>
        <pt x="1042" y="501" on="1"/>
        <pt x="1078" y="539" on="0"/>
        <pt x="1091" y="623" on="1"/>
        <pt x="1091" y="629" on="0"/>
        <pt x="1101" y="753" on="1"/>
        <pt x="1104" y="795" on="0"/>
        <pt x="1145" y="1071" on="1"/>
        <pt x="1134" y="1105" on="0"/>
        <pt x="1131" y="1184" on="1"/>
        <pt x="1145" y="1253" on="0"/>
        <pt x="1224" y="1351" on="1"/>
        <pt x="1260" y="1351" on="1"/>
        <pt x="1262" y="1345" on="0"/>
        <pt x="1262" y="1259" on="1"/>
        <pt x="1262" y="1203" on="0"/>
      </contour>
      <contour>
        <pt x="1784" y="333" on="1"/>
        <pt x="1784" y="351" on="0"/>
        <pt x="1720" y="411" on="0"/>
        <pt x="1696" y="419" on="1"/>
        <pt x="1661" y="385" on="0"/>
        <pt x="1661" y="358" on="1"/>
        <pt x="1661" y="331" on="0"/>
        <pt x="1706" y="287" on="0"/>
        <pt x="1733" y="287" on="1"/>
        <pt x="1748" y="287" on="0"/>
        <pt x="1770" y="298" on="0"/>
        <pt x="1773" y="298" on="1"/>
        <pt x="1773" y="301" on="0"/>
        <pt x="1784" y="318" on="0"/>
      </contour>
      <contour>
        <pt x="1088" y="178" on="1"/>
        <pt x="1088" y="222" on="0"/>
        <pt x="1041" y="246" on="1"/>
        <pt x="1000" y="204" on="0"/>
        <pt x="976" y="156" on="1"/>
        <pt x="1077" y="156" on="1"/>
        <pt x="1077" y="165" on="0"/>
      </contour>
    </TTGlyph>
    <TTGlyph name="uniE000" xMin="0" yMin="0" xMax="1840" yMax="1840">
      <contour>
        <pt x="0" y="1840" on="1"/>
        <pt x="1840" y="1840" on="1"/>
        <pt x="1840" y="0" on="1"/>
        <pt x="0" y="0" on="1"/>
      </contour>
    </TTGlyph>
    <TTGlyph name="uniFB51" xMin="172" yMin="-366" xMax="3745" yMax="1682">
      <contour>
        <pt x="3724" y="1108" on="1"/>
        <pt x="3724" y="1058" on="0"/>
        <pt x="3691" y="1040" on="1"/>
        <pt x="3542" y="967" on="0"/>
        <pt x="3250" y="822" on="1"/>
        <pt x="3215" y="822" on="1"/>
        <pt x="3202" y="836" on="0"/>
        <pt x="3202" y="853" on="1"/>
        <pt x="3202" y="910" on="0"/>
        <pt x="3396" y="1008" on="1"/>
        <pt x="3532" y="1073" on="0"/>
        <pt x="3667" y="1139" on="1"/>
        <pt x="3711" y="1139" on="1"/>
        <pt x="3724" y="1126" on="0"/>
      </contour>
      <contour>
        <pt x="3120" y="1646" on="1"/>
        <pt x="3120" y="1599" on="0"/>
        <pt x="2909" y="1473" on="1"/>
        <pt x="2762" y="1389" on="0"/>
        <pt x="2615" y="1304" on="1"/>
        <pt x="2579" y="1304" on="1"/>
        <pt x="2579" y="1371" on="1"/>
        <pt x="2637" y="1439" on="0"/>
        <pt x="2816" y="1534" on="1"/>
        <pt x="2961" y="1607" on="0"/>
        <pt x="3106" y="1682" on="1"/>
        <pt x="3120" y="1667" on="0"/>
      </contour>
      <contour>
        <pt x="3745" y="1570" on="1"/>
        <pt x="3745" y="1472" on="0"/>
        <pt x="3547" y="1392" on="1"/>
        <pt x="3487" y="1362" on="0"/>
        <pt x="3383" y="1310" on="1"/>
        <pt x="3267" y="1243" on="0"/>
        <pt x="3025" y="1112" on="1"/>
        <pt x="2701" y="944" on="0"/>
        <pt x="2701" y="883" on="1"/>
        <pt x="2701" y="868" on="0"/>
        <pt x="2732" y="842" on="0"/>
        <pt x="2733" y="840" on="1"/>
        <pt x="2834" y="766" on="0"/>
        <pt x="2929" y="621" on="1"/>
        <pt x="3016" y="490" on="0"/>
        <pt x="3045" y="388" on="1"/>
        <pt x="3059" y="337" on="0"/>
        <pt x="3059" y="248" on="1"/>
        <pt x="3059" y="86" on="0"/>
        <pt x="2961" y="18" on="1"/>
        <pt x="2879" y="-38" on="0"/>
        <pt x="2711" y="-38" on="1"/>
        <pt x="2542" y="-38" on="0"/>
        <pt x="2428" y="156" on="1"/>
        <pt x="2234" y="-18" on="0"/>
        <pt x="2046" y="-18" on="1"/>
        <pt x="1977" y="-18" on="0"/>
        <pt x="1925" y="18" on="1"/>
        <pt x="1871" y="57" on="0"/>
        <pt x="1871" y="111" on="1"/>
        <pt x="1871" y="153" on="0"/>
        <pt x="1915" y="217" on="1"/>
        <pt x="1926" y="217" on="0"/>
        <pt x="1946" y="197" on="1"/>
        <pt x="1973" y="173" on="0"/>
        <pt x="1982" y="169" on="1"/>
        <pt x="2020" y="146" on="0"/>
        <pt x="2076" y="146" on="1"/>
        <pt x="2158" y="146" on="0"/>
        <pt x="2253" y="177" on="1"/>
        <pt x="2394" y="223" on="0"/>
        <pt x="2394" y="310" on="1"/>
        <pt x="2394" y="321" on="0"/>
        <pt x="2353" y="585" on="0"/>
        <pt x="2353" y="596" on="1"/>
        <pt x="2353" y="623" on="0"/>
        <pt x="2369" y="668" on="1"/>
        <pt x="2388" y="718" on="0"/>
        <pt x="2409" y="740" on="1"/>
        <pt x="2431" y="703" on="0"/>
        <pt x="2453" y="523" on="1"/>
        <pt x="2476" y="340" on="0"/>
        <pt x="2519" y="256" on="1"/>
        <pt x="2589" y="125" on="0"/>
        <pt x="2742" y="125" on="1"/>
        <pt x="2789" y="125" on="0"/>
        <pt x="2868" y="146" on="1"/>
        <pt x="2965" y="171" on="0"/>
        <pt x="2977" y="202" on="1"/>
        <pt x="2974" y="283" on="0"/>
        <pt x="2906" y="420" on="1"/>
        <pt x="2829" y="572" on="0"/>
        <pt x="2755" y="604" on="1"/>
        <pt x="2752" y="605" on="0"/>
        <pt x="2677" y="619" on="1"/>
        <pt x="2625" y="629" on="0"/>
        <pt x="2578" y="692" on="0"/>
        <pt x="2578" y="755" on="1"/>
        <pt x="2578" y="767" on="0"/>
        <pt x="2603" y="834" on="0"/>
        <pt x="2604" y="848" on="1"/>
        <pt x="2614" y="973" on="0"/>
        <pt x="2757" y="1083" on="1"/>
        <pt x="2884" y="1165" on="0"/>
        <pt x="3010" y="1247" on="1"/>
        <pt x="3047" y="1263" on="0"/>
        <pt x="3113" y="1294" on="1"/>
        <pt x="3308" y="1396" on="0"/>
        <pt x="3698" y="1600" on="1"/>
        <pt x="3731" y="1600" on="1"/>
        <pt x="3745" y="1586" on="0"/>
      </contour>
      <contour>
        <pt x="2414" y="1534" on="1"/>
        <pt x="2414" y="1491" on="0"/>
        <pt x="2253" y="1393" on="1"/>
        <pt x="2168" y="1347" on="0"/>
        <pt x="2084" y="1300" on="1"/>
        <pt x="2030" y="1263" on="0"/>
        <pt x="1905" y="1201" on="1"/>
        <pt x="1892" y="1203" on="0"/>
        <pt x="1892" y="1226" on="1"/>
        <pt x="1892" y="1285" on="0"/>
        <pt x="1977" y="1339" on="1"/>
        <pt x="2037" y="1373" on="0"/>
        <pt x="2099" y="1407" on="1"/>
        <pt x="2259" y="1511" on="0"/>
        <pt x="2367" y="1569" on="1"/>
        <pt x="2401" y="1569" on="1"/>
        <pt x="2414" y="1556" on="0"/>
      </contour>
      <contour>
        <pt x="3714" y="152" on="1"/>
        <pt x="3714" y="-5" on="0"/>
        <pt x="3575" y="-179" on="1"/>
        <pt x="3425" y="-366" on="0"/>
        <pt x="3259" y="-366" on="1"/>
        <pt x="3248" y="-366" on="0"/>
        <pt x="3142" y="-355" on="0"/>
        <pt x="3125" y="-355" on="1"/>
        <pt x="3091" y="-355" on="0"/>
        <pt x="2988" y="-322" on="1"/>
        <pt x="2890" y="-292" on="0"/>
        <pt x="2875" y="-280" on="1"/>
        <pt x="2878" y="-232" on="0"/>
        <pt x="2916" y="-232" on="1"/>
        <pt x="2929" y="-232" on="0"/>
        <pt x="3087" y="-263" on="0"/>
        <pt x="3100" y="-263" on="1"/>
        <pt x="3250" y="-263" on="0"/>
        <pt x="3422" y="-140" on="1"/>
        <pt x="3578" y="-27" on="0"/>
        <pt x="3622" y="80" on="1"/>
        <pt x="3615" y="116" on="1"/>
        <pt x="3560" y="64" on="0"/>
        <pt x="3505" y="64" on="1"/>
        <pt x="3430" y="64" on="0"/>
        <pt x="3393" y="128" on="1"/>
        <pt x="3366" y="175" on="0"/>
        <pt x="3366" y="238" on="1"/>
        <pt x="3366" y="297" on="0"/>
        <pt x="3406" y="374" on="1"/>
        <pt x="3459" y="473" on="0"/>
        <pt x="3540" y="473" on="1"/>
        <pt x="3627" y="473" on="0"/>
        <pt x="3678" y="329" on="1"/>
        <pt x="3714" y="228" on="0"/>
      </contour>
      <contour>
        <pt x="2373" y="996" on="1"/>
        <pt x="2373" y="958" on="0"/>
        <pt x="2319" y="894" on="0"/>
        <pt x="2286" y="894" on="1"/>
        <pt x="2256" y="894" on="0"/>
        <pt x="2189" y="952" on="0"/>
        <pt x="2189" y="976" on="1"/>
        <pt x="2189" y="997" on="0"/>
        <pt x="2214" y="1035" on="1"/>
        <pt x="2243" y="1078" on="0"/>
        <pt x="2271" y="1078" on="1"/>
        <pt x="2302" y="1078" on="0"/>
        <pt x="2339" y="1046" on="1"/>
        <pt x="2373" y="1016" on="0"/>
      </contour>
      <contour>
        <pt x="2005" y="587" on="1"/>
        <pt x="2005" y="503" on="0"/>
        <pt x="1958" y="473" on="1"/>
        <pt x="1940" y="487" on="1"/>
        <pt x="1930" y="565" on="0"/>
        <pt x="1909" y="631" on="1"/>
        <pt x="1903" y="647" on="0"/>
        <pt x="1870" y="706" on="1"/>
        <pt x="1841" y="759" on="0"/>
        <pt x="1841" y="771" on="1"/>
        <pt x="1841" y="797" on="0"/>
        <pt x="1875" y="831" on="1"/>
        <pt x="1936" y="817" on="0"/>
        <pt x="1973" y="727" on="1"/>
        <pt x="2005" y="656" on="0"/>
      </contour>
      <contour>
        <pt x="1093" y="1641" on="1"/>
        <pt x="1093" y="1584" on="0"/>
        <pt x="862" y="1461" on="1"/>
        <pt x="709" y="1382" on="0"/>
        <pt x="557" y="1303" on="1"/>
        <pt x="522" y="1303" on="1"/>
        <pt x="510" y="1305" on="0"/>
        <pt x="510" y="1329" on="1"/>
        <pt x="510" y="1366" on="0"/>
        <pt x="591" y="1425" on="1"/>
        <pt x="650" y="1467" on="0"/>
        <pt x="686" y="1483" on="1"/>
        <pt x="816" y="1547" on="0"/>
        <pt x="1079" y="1671" on="1"/>
        <pt x="1093" y="1657" on="0"/>
      </contour>
      <contour>
        <pt x="1666" y="222" on="1"/>
        <pt x="1649" y="146" on="0"/>
        <pt x="1631" y="69" on="1"/>
        <pt x="1600" y="-18" on="0"/>
        <pt x="1508" y="-18" on="1"/>
        <pt x="1313" y="-18" on="0"/>
        <pt x="1240" y="197" on="1"/>
        <pt x="945" y="-38" on="0"/>
        <pt x="540" y="-38" on="1"/>
        <pt x="459" y="-38" on="0"/>
        <pt x="380" y="-14" on="1"/>
        <pt x="327" y="1" on="0"/>
        <pt x="254" y="72" on="1"/>
        <pt x="172" y="152" on="0"/>
        <pt x="172" y="213" on="1"/>
        <pt x="172" y="279" on="0"/>
        <pt x="215" y="361" on="1"/>
        <pt x="266" y="459" on="0"/>
        <pt x="350" y="514" on="1"/>
        <pt x="407" y="501" on="1"/>
        <pt x="295" y="333" on="0"/>
        <pt x="295" y="300" on="1"/>
        <pt x="295" y="204" on="0"/>
        <pt x="419" y="153" on="1"/>
        <pt x="513" y="116" on="0"/>
        <pt x="627" y="116" on="1"/>
        <pt x="786" y="116" on="0"/>
        <pt x="989" y="184" on="1"/>
        <pt x="1226" y="265" on="0"/>
        <pt x="1226" y="366" on="1"/>
        <pt x="1165" y="1017" on="1"/>
        <pt x="1165" y="1168" on="0"/>
        <pt x="1233" y="1190" on="1"/>
        <pt x="1239" y="1178" on="0"/>
        <pt x="1253" y="1156" on="1"/>
        <pt x="1266" y="1018" on="0"/>
        <pt x="1294" y="694" on="1"/>
        <pt x="1301" y="592" on="0"/>
        <pt x="1325" y="387" on="1"/>
        <pt x="1327" y="350" on="0"/>
        <pt x="1330" y="312" on="1"/>
        <pt x="1338" y="257" on="0"/>
        <pt x="1371" y="215" on="1"/>
        <pt x="1395" y="186" on="0"/>
        <pt x="1451" y="160" on="1"/>
        <pt x="1500" y="136" on="0"/>
        <pt x="1523" y="136" on="1"/>
        <pt x="1578" y="136" on="0"/>
        <pt x="1578" y="190" on="1"/>
        <pt x="1578" y="199" on="0"/>
        <pt x="1574" y="206" on="1"/>
        <pt x="1441" y="1048" on="1"/>
        <pt x="1478" y="1148" on="0"/>
        <pt x="1529" y="1211" on="1"/>
        <pt x="1554" y="1177" on="0"/>
        <pt x="1554" y="1144" on="1"/>
        <pt x="1554" y="1098" on="0"/>
        <pt x="1589" y="1076" on="1"/>
        <pt x="1628" y="1055" on="0"/>
        <pt x="1665" y="1035" on="1"/>
        <pt x="1665" y="979" on="0"/>
        <pt x="1642" y="937" on="1"/>
        <pt x="1621" y="922" on="0"/>
        <pt x="1586" y="886" on="1"/>
        <pt x="1574" y="868" on="0"/>
        <pt x="1574" y="837" on="1"/>
      </contour>
      <contour>
        <pt x="940" y="755" on="1"/>
        <pt x="940" y="727" on="0"/>
        <pt x="879" y="658" on="0"/>
        <pt x="837" y="642" on="1"/>
        <pt x="929" y="581" on="0"/>
        <pt x="929" y="551" on="1"/>
        <pt x="929" y="508" on="0"/>
        <pt x="790" y="371" on="0"/>
        <pt x="745" y="371" on="1"/>
        <pt x="695" y="371" on="0"/>
        <pt x="640" y="400" on="1"/>
        <pt x="569" y="436" on="0"/>
        <pt x="572" y="492" on="1"/>
        <pt x="573" y="505" on="0"/>
        <pt x="596" y="505" on="1"/>
        <pt x="602" y="505" on="0"/>
        <pt x="677" y="453" on="0"/>
        <pt x="719" y="453" on="1"/>
        <pt x="749" y="453" on="0"/>
        <pt x="796" y="472" on="1"/>
        <pt x="796" y="499" on="1"/>
        <pt x="796" y="510" on="0"/>
        <pt x="779" y="509" on="1"/>
        <pt x="754" y="505" on="0"/>
        <pt x="749" y="507" on="1"/>
        <pt x="694" y="527" on="0"/>
        <pt x="694" y="587" on="1"/>
        <pt x="694" y="623" on="0"/>
        <pt x="760" y="713" on="1"/>
        <pt x="834" y="812" on="0"/>
        <pt x="888" y="812" on="1"/>
        <pt x="907" y="812" on="0"/>
        <pt x="940" y="775" on="0"/>
      </contour>
      <contour>
        <pt x="1800" y="-125" on="1"/>
        <pt x="1800" y="-174" on="0"/>
        <pt x="1746" y="-199" on="1"/>
        <pt x="1653" y="-240" on="0"/>
        <pt x="1500" y="-294" on="1"/>
        <pt x="1353" y="-344" on="0"/>
        <pt x="1333" y="-344" on="1"/>
        <pt x="1289" y="-344" on="1"/>
        <pt x="1289" y="-298" on="1"/>
        <pt x="1307" y="-258" on="0"/>
        <pt x="1475" y="-195" on="1"/>
        <pt x="1733" y="-99" on="0"/>
        <pt x="1745" y="-99" on="1"/>
        <pt x="1787" y="-99" on="1"/>
        <pt x="1800" y="-101" on="0"/>
      </contour>
      <contour>
        <pt x="3570" y="277" on="1"/>
        <pt x="3525" y="299" on="0"/>
        <pt x="3514" y="310" on="1"/>
        <pt x="3509" y="305" on="0"/>
        <pt x="3484" y="280" on="0"/>
        <pt x="3478" y="275" on="1"/>
        <pt x="3497" y="238" on="0"/>
        <pt x="3530" y="238" on="1"/>
        <pt x="3545" y="238" on="0"/>
        <pt x="3559" y="254" on="1"/>
        <pt x="3570" y="267" on="0"/>
      </contour>
    </TTGlyph>
    <TTGlyph name="uniFB52" xMin="126" yMin="-371" xMax="3596" yMax="1728">
      <contour>
        <pt x="3596" y="1697" on="1"/>
        <pt x="3596" y="1645" on="0"/>
        <pt x="3373" y="1543" on="1"/>
        <pt x="3227" y="1477" on="0"/>
        <pt x="3081" y="1411" on="1"/>
        <pt x="3034" y="1411" on="1"/>
        <pt x="3034" y="1445" on="1"/>
        <pt x="3033" y="1483" on="0"/>
        <pt x="3250" y="1589" on="1"/>
        <pt x="3395" y="1659" on="0"/>
        <pt x="3539" y="1728" on="1"/>
        <pt x="3583" y="1728" on="1"/>
        <pt x="3596" y="1715" on="0"/>
      </contour>
      <contour>
        <pt x="3525" y="1262" on="1"/>
        <pt x="3525" y="1232" on="0"/>
        <pt x="3486" y="1212" on="1"/>
        <pt x="3426" y="1178" on="0"/>
        <pt x="3414" y="1167" on="1"/>
        <pt x="3412" y="1158" on="0"/>
        <pt x="3412" y="1114" on="1"/>
        <pt x="3494" y="243" on="1"/>
        <pt x="3494" y="151" on="0"/>
        <pt x="3487" y="119" on="1"/>
        <pt x="3475" y="61" on="0"/>
        <pt x="3427" y="18" on="1"/>
        <pt x="3420" y="35" on="0"/>
        <pt x="3404" y="63" on="1"/>
        <pt x="3404" y="228" on="0"/>
        <pt x="3375" y="479" on="1"/>
        <pt x="3323" y="917" on="0"/>
        <pt x="3309" y="1057" on="1"/>
        <pt x="3309" y="1072" on="0"/>
        <pt x="3331" y="1138" on="1"/>
        <pt x="3324" y="1144" on="0"/>
        <pt x="3304" y="1144" on="1"/>
        <pt x="3299" y="1144" on="0"/>
        <pt x="3234" y="1115" on="1"/>
        <pt x="3188" y="1115" on="1"/>
        <pt x="3188" y="1130" on="0"/>
        <pt x="3208" y="1194" on="0"/>
        <pt x="3208" y="1210" on="1"/>
        <pt x="3156" y="1253" on="0"/>
        <pt x="3156" y="1283" on="1"/>
        <pt x="3156" y="1323" on="0"/>
        <pt x="3294" y="1436" on="1"/>
        <pt x="3312" y="1452" on="0"/>
        <pt x="3345" y="1452" on="1"/>
        <pt x="3422" y="1452" on="0"/>
        <pt x="3422" y="1380" on="1"/>
        <pt x="3422" y="1355" on="0"/>
        <pt x="3388" y="1308" on="0"/>
        <pt x="3366" y="1308" on="1"/>
        <pt x="3356" y="1308" on="0"/>
        <pt x="3308" y="1350" on="0"/>
        <pt x="3296" y="1350" on="1"/>
        <pt x="3278" y="1332" on="0"/>
        <pt x="3278" y="1316" on="1"/>
        <pt x="3345" y="1278" on="0"/>
        <pt x="3366" y="1278" on="1"/>
        <pt x="3368" y="1278" on="0"/>
        <pt x="3445" y="1287" on="0"/>
        <pt x="3512" y="1287" on="1"/>
        <pt x="3525" y="1286" on="0"/>
      </contour>
      <contour>
        <pt x="3043" y="931" on="1"/>
        <pt x="2991" y="877" on="0"/>
        <pt x="2884" y="831" on="1"/>
        <pt x="2781" y="786" on="0"/>
        <pt x="2716" y="786" on="1"/>
        <pt x="2702" y="786" on="0"/>
        <pt x="2679" y="799" on="0"/>
        <pt x="2675" y="799" on="1"/>
        <pt x="2691" y="829" on="0"/>
        <pt x="2758" y="859" on="1"/>
        <pt x="2845" y="895" on="0"/>
        <pt x="2870" y="915" on="1"/>
        <pt x="2839" y="950" on="0"/>
        <pt x="2788" y="950" on="1"/>
        <pt x="2768" y="950" on="0"/>
        <pt x="2647" y="890" on="1"/>
        <pt x="2647" y="893" on="0"/>
        <pt x="2634" y="909" on="0"/>
        <pt x="2634" y="924" on="1"/>
        <pt x="2634" y="972" on="0"/>
        <pt x="2729" y="1017" on="1"/>
        <pt x="2804" y="1053" on="0"/>
        <pt x="2829" y="1053" on="1"/>
        <pt x="2843" y="1053" on="0"/>
        <pt x="2937" y="1026" on="1"/>
        <pt x="3035" y="998" on="0"/>
        <pt x="3043" y="989" on="1"/>
      </contour>
      <contour>
        <pt x="2327" y="1436" on="1"/>
        <pt x="2327" y="1398" on="0"/>
        <pt x="2283" y="1373" on="1"/>
        <pt x="1720" y="1052" on="0"/>
        <pt x="1686" y="1053" on="1"/>
        <pt x="1632" y="1053" on="1"/>
        <pt x="1632" y="1087" on="1"/>
        <pt x="1630" y="1126" on="0"/>
        <pt x="1674" y="1150" on="1"/>
        <pt x="2245" y="1472" on="0"/>
        <pt x="2280" y="1472" on="1"/>
        <pt x="2327" y="1472" on="0"/>
      </contour>
      <contour>
        <pt x="3166" y="188" on="1"/>
        <pt x="3166" y="48" on="0"/>
        <pt x="3068" y="-104" on="1"/>
        <pt x="2961" y="-270" on="0"/>
        <pt x="2805" y="-336" on="1"/>
        <pt x="2774" y="-350" on="0"/>
        <pt x="2680" y="-350" on="1"/>
        <pt x="2484" y="-350" on="0"/>
        <pt x="2257" y="-317" on="1"/>
        <pt x="2257" y="-295" on="0"/>
        <pt x="2245" y="-284" on="1"/>
        <pt x="2265" y="-248" on="0"/>
        <pt x="2312" y="-248" on="1"/>
        <pt x="2325" y="-248" on="0"/>
        <pt x="2406" y="-258" on="0"/>
        <pt x="2419" y="-258" on="1"/>
        <pt x="2861" y="-258" on="0"/>
        <pt x="3074" y="116" on="1"/>
        <pt x="3068" y="152" on="1"/>
        <pt x="3051" y="131" on="0"/>
        <pt x="2950" y="79" on="0"/>
        <pt x="2931" y="79" on="1"/>
        <pt x="2884" y="79" on="0"/>
        <pt x="2849" y="146" on="1"/>
        <pt x="2819" y="203" on="0"/>
        <pt x="2819" y="254" on="1"/>
        <pt x="2819" y="305" on="0"/>
        <pt x="2862" y="392" on="1"/>
        <pt x="2915" y="500" on="0"/>
        <pt x="2983" y="500" on="1"/>
        <pt x="3061" y="500" on="0"/>
        <pt x="3119" y="368" on="1"/>
        <pt x="3166" y="262" on="0"/>
      </contour>
      <contour>
        <pt x="1590" y="1272" on="1"/>
        <pt x="1590" y="1255" on="0"/>
        <pt x="1490" y="1148" on="0"/>
        <pt x="1454" y="1127" on="1"/>
        <pt x="1359" y="1073" on="0"/>
        <pt x="1283" y="1073" on="1"/>
        <pt x="1244" y="1073" on="0"/>
        <pt x="1222" y="1085" on="1"/>
        <pt x="1222" y="1121" on="1"/>
        <pt x="1252" y="1149" on="0"/>
        <pt x="1313" y="1168" on="1"/>
        <pt x="1389" y="1193" on="0"/>
        <pt x="1406" y="1202" on="1"/>
        <pt x="1379" y="1237" on="0"/>
        <pt x="1334" y="1237" on="1"/>
        <pt x="1334" y="1237" on="0"/>
        <pt x="1204" y="1176" on="1"/>
        <pt x="1190" y="1177" on="0"/>
        <pt x="1190" y="1201" on="1"/>
        <pt x="1190" y="1256" on="0"/>
        <pt x="1265" y="1301" on="1"/>
        <pt x="1329" y="1339" on="0"/>
        <pt x="1380" y="1339" on="1"/>
        <pt x="1389" y="1339" on="0"/>
        <pt x="1453" y="1328" on="1"/>
        <pt x="1522" y="1316" on="0"/>
        <pt x="1556" y="1315" on="1"/>
        <pt x="1590" y="1294" on="0"/>
      </contour>
      <contour>
        <pt x="1118" y="1408" on="1"/>
        <pt x="1108" y="1380" on="0"/>
        <pt x="1082" y="1343" on="1"/>
        <pt x="921" y="1237" on="0"/>
        <pt x="654" y="1104" on="1"/>
        <pt x="620" y="1104" on="1"/>
        <pt x="607" y="1117" on="0"/>
        <pt x="607" y="1135" on="1"/>
        <pt x="607" y="1189" on="0"/>
        <pt x="794" y="1270" on="1"/>
        <pt x="893" y="1320" on="0"/>
        <pt x="1093" y="1421" on="1"/>
        <pt x="1108" y="1408" on="0"/>
      </contour>
      <contour>
        <pt x="2542" y="247" on="1"/>
        <pt x="2490" y="174" on="0"/>
        <pt x="2440" y="158" on="1"/>
        <pt x="2421" y="152" on="0"/>
        <pt x="2342" y="152" on="1"/>
        <pt x="2330" y="152" on="0"/>
        <pt x="2161" y="172" on="0"/>
        <pt x="2148" y="172" on="1"/>
        <pt x="2135" y="172" on="0"/>
        <pt x="2002" y="128" on="1"/>
        <pt x="1828" y="70" on="0"/>
        <pt x="1770" y="52" on="1"/>
        <pt x="1591" y="-2" on="0"/>
        <pt x="1503" y="-2" on="1"/>
        <pt x="1418" y="-2" on="0"/>
        <pt x="1347" y="90" on="0"/>
        <pt x="1324" y="90" on="1"/>
        <pt x="1318" y="90" on="0"/>
        <pt x="1162" y="-22" on="0"/>
        <pt x="1098" y="-22" on="1"/>
        <pt x="1087" y="-22" on="0"/>
        <pt x="971" y="8" on="0"/>
        <pt x="960" y="8" on="1"/>
        <pt x="948" y="8" on="0"/>
        <pt x="904" y="-17" on="1"/>
        <pt x="856" y="-45" on="0"/>
        <pt x="839" y="-50" on="1"/>
        <pt x="723" y="-84" on="0"/>
        <pt x="658" y="-84" on="1"/>
        <pt x="587" y="-84" on="0"/>
        <pt x="518" y="-46" on="1"/>
        <pt x="440" y="-3" on="0"/>
        <pt x="425" y="63" on="1"/>
        <pt x="399" y="184" on="0"/>
        <pt x="377" y="424" on="1"/>
        <pt x="361" y="609" on="0"/>
        <pt x="361" y="659" on="1"/>
        <pt x="361" y="923" on="1"/>
        <pt x="361" y="932" on="0"/>
        <pt x="341" y="1023" on="0"/>
        <pt x="341" y="1037" on="1"/>
        <pt x="341" y="1047" on="0"/>
        <pt x="394" y="1153" on="1"/>
        <pt x="431" y="1153" on="1"/>
        <pt x="454" y="1073" on="0"/>
        <pt x="466" y="782" on="1"/>
        <pt x="480" y="653" on="0"/>
        <pt x="500" y="392" on="1"/>
        <pt x="498" y="335" on="0"/>
        <pt x="507" y="229" on="1"/>
        <pt x="522" y="165" on="0"/>
        <pt x="583" y="121" on="1"/>
        <pt x="640" y="79" on="0"/>
        <pt x="704" y="79" on="1"/>
        <pt x="809" y="79" on="0"/>
        <pt x="866" y="112" on="1"/>
        <pt x="903" y="134" on="0"/>
        <pt x="935" y="204" on="1"/>
        <pt x="962" y="261" on="0"/>
        <pt x="1003" y="264" on="1"/>
        <pt x="1019" y="236" on="0"/>
        <pt x="1006" y="129" on="1"/>
        <pt x="1041" y="111" on="0"/>
        <pt x="1078" y="111" on="1"/>
        <pt x="1164" y="111" on="0"/>
        <pt x="1346" y="233" on="0"/>
        <pt x="1360" y="233" on="1"/>
        <pt x="1371" y="233" on="0"/>
        <pt x="1492" y="152" on="0"/>
        <pt x="1565" y="152" on="1"/>
        <pt x="1677" y="152" on="0"/>
        <pt x="1897" y="240" on="1"/>
        <pt x="1889" y="256" on="0"/>
        <pt x="1750" y="325" on="0"/>
        <pt x="1733" y="325" on="1"/>
        <pt x="1705" y="325" on="0"/>
        <pt x="1552" y="274" on="1"/>
        <pt x="1538" y="276" on="0"/>
        <pt x="1538" y="300" on="1"/>
        <pt x="1538" y="333" on="0"/>
        <pt x="1615" y="410" on="1"/>
        <pt x="1684" y="479" on="0"/>
        <pt x="1715" y="496" on="1"/>
        <pt x="1727" y="500" on="0"/>
        <pt x="1754" y="500" on="1"/>
        <pt x="1773" y="500" on="0"/>
        <pt x="1886" y="446" on="1"/>
        <pt x="2027" y="380" on="0"/>
        <pt x="2124" y="348" on="1"/>
        <pt x="2285" y="295" on="0"/>
        <pt x="2424" y="295" on="1"/>
        <pt x="2429" y="295" on="0"/>
        <pt x="2471" y="305" on="0"/>
        <pt x="2484" y="305" on="1"/>
        <pt x="2518" y="305" on="0"/>
        <pt x="2542" y="281" on="1"/>
      </contour>
      <contour>
        <pt x="781" y="1448" on="1"/>
        <pt x="733" y="1357" on="0"/>
        <pt x="587" y="1294" on="1"/>
        <pt x="454" y="1237" on="0"/>
        <pt x="331" y="1237" on="1"/>
        <pt x="319" y="1237" on="0"/>
        <pt x="246" y="1257" on="0"/>
        <pt x="233" y="1257" on="1"/>
        <pt x="219" y="1257" on="0"/>
        <pt x="188" y="1230" on="1"/>
        <pt x="153" y="1201" on="0"/>
        <pt x="139" y="1196" on="1"/>
        <pt x="126" y="1198" on="0"/>
        <pt x="126" y="1221" on="1"/>
        <pt x="126" y="1259" on="0"/>
        <pt x="212" y="1370" on="0"/>
        <pt x="254" y="1370" on="1"/>
        <pt x="265" y="1370" on="0"/>
        <pt x="365" y="1339" on="0"/>
        <pt x="377" y="1339" on="1"/>
        <pt x="458" y="1339" on="0"/>
        <pt x="574" y="1385" on="1"/>
        <pt x="659" y="1424" on="0"/>
        <pt x="744" y="1461" on="1"/>
        <pt x="767" y="1461" on="0"/>
      </contour>
      <contour>
        <pt x="944" y="566" on="1"/>
        <pt x="944" y="537" on="0"/>
        <pt x="902" y="505" on="1"/>
        <pt x="866" y="479" on="0"/>
        <pt x="853" y="479" on="1"/>
        <pt x="826" y="479" on="0"/>
        <pt x="740" y="548" on="0"/>
        <pt x="740" y="571" on="1"/>
        <pt x="740" y="591" on="0"/>
        <pt x="808" y="673" on="0"/>
        <pt x="827" y="673" on="1"/>
        <pt x="860" y="673" on="0"/>
        <pt x="944" y="594" on="0"/>
      </contour>
      <contour>
        <pt x="1651" y="-262" on="1"/>
        <pt x="1651" y="-293" on="0"/>
        <pt x="1609" y="-324" on="1"/>
        <pt x="1573" y="-350" on="0"/>
        <pt x="1559" y="-350" on="1"/>
        <pt x="1548" y="-350" on="0"/>
        <pt x="1480" y="-319" on="0"/>
        <pt x="1467" y="-319" on="1"/>
        <pt x="1454" y="-319" on="0"/>
        <pt x="1383" y="-371" on="0"/>
        <pt x="1370" y="-371" on="1"/>
        <pt x="1329" y="-371" on="0"/>
        <pt x="1293" y="-336" on="1"/>
        <pt x="1262" y="-308" on="0"/>
        <pt x="1262" y="-289" on="1"/>
        <pt x="1262" y="-263" on="0"/>
        <pt x="1327" y="-196" on="0"/>
        <pt x="1349" y="-196" on="1"/>
        <pt x="1360" y="-196" on="0"/>
        <pt x="1427" y="-227" on="0"/>
        <pt x="1442" y="-227" on="1"/>
        <pt x="1454" y="-227" on="0"/>
        <pt x="1536" y="-166" on="0"/>
        <pt x="1549" y="-166" on="1"/>
        <pt x="1570" y="-166" on="0"/>
        <pt x="1612" y="-209" on="1"/>
        <pt x="1651" y="-250" on="0"/>
      </contour>
      <contour>
        <pt x="3013" y="267" on="1"/>
        <pt x="3013" y="301" on="1"/>
        <pt x="3002" y="323" on="0"/>
        <pt x="2956" y="346" on="1"/>
        <pt x="2921" y="310" on="0"/>
        <pt x="2921" y="300" on="1"/>
        <pt x="2921" y="267" on="0"/>
        <pt x="2978" y="243" on="1"/>
        <pt x="2990" y="250" on="0"/>
      </contour>
    </TTGlyph>
    <TTGlyph name="uniFB53" xMin="244" yMin="-516" xMax="2814" yMax="1531">
      <contour>
        <pt x="2179" y="1501" on="1"/>
        <pt x="2179" y="1420" on="0"/>
        <pt x="1746" y="1205" on="1"/>
        <pt x="1710" y="1205" on="1"/>
        <pt x="1710" y="1262" on="1"/>
        <pt x="1790" y="1332" on="0"/>
        <pt x="1926" y="1406" on="1"/>
        <pt x="2088" y="1493" on="0"/>
        <pt x="2142" y="1531" on="1"/>
        <pt x="2179" y="1531" on="0"/>
      </contour>
      <contour>
        <pt x="2568" y="339" on="1"/>
        <pt x="2562" y="250" on="0"/>
        <pt x="2537" y="59" on="1"/>
        <pt x="2530" y="58" on="0"/>
        <pt x="2513" y="48" on="1"/>
        <pt x="2472" y="59" on="0"/>
        <pt x="2469" y="93" on="1"/>
        <pt x="2475" y="147" on="0"/>
        <pt x="2476" y="246" on="1"/>
        <pt x="2462" y="389" on="0"/>
        <pt x="2421" y="720" on="1"/>
        <pt x="2384" y="1009" on="0"/>
        <pt x="2384" y="1020" on="1"/>
        <pt x="2384" y="1095" on="0"/>
        <pt x="2462" y="1162" on="1"/>
      </contour>
      <contour>
        <pt x="1329" y="1496" on="1"/>
        <pt x="1329" y="1457" on="0"/>
        <pt x="1307" y="1443" on="1"/>
        <pt x="1184" y="1365" on="0"/>
        <pt x="971" y="1261" on="1"/>
        <pt x="772" y="1163" on="0"/>
        <pt x="749" y="1163" on="1"/>
        <pt x="707" y="1163" on="1"/>
        <pt x="695" y="1165" on="0"/>
        <pt x="695" y="1189" on="1"/>
        <pt x="695" y="1240" on="0"/>
        <pt x="906" y="1342" on="1"/>
        <pt x="1224" y="1495" on="0"/>
        <pt x="1282" y="1531" on="1"/>
        <pt x="1316" y="1531" on="1"/>
        <pt x="1329" y="1518" on="0"/>
      </contour>
      <contour>
        <pt x="2711" y="-217" on="1"/>
        <pt x="2589" y="-253" on="0"/>
        <pt x="2356" y="-330" on="1"/>
        <pt x="2354" y="-312" on="0"/>
        <pt x="2370" y="-235" on="1"/>
        <pt x="2366" y="-229" on="0"/>
        <pt x="2340" y="-207" on="1"/>
        <pt x="2322" y="-191" on="0"/>
        <pt x="2322" y="-178" on="1"/>
        <pt x="2322" y="-136" on="0"/>
        <pt x="2470" y="-4" on="0"/>
        <pt x="2507" y="-4" on="1"/>
        <pt x="2534" y="-4" on="0"/>
        <pt x="2563" y="-30" on="1"/>
        <pt x="2589" y="-54" on="0"/>
        <pt x="2589" y="-65" on="1"/>
        <pt x="2589" y="-85" on="0"/>
        <pt x="2571" y="-109" on="1"/>
        <pt x="2553" y="-137" on="0"/>
        <pt x="2533" y="-137" on="1"/>
        <pt x="2502" y="-137" on="0"/>
        <pt x="2471" y="-106" on="1"/>
        <pt x="2456" y="-122" on="1"/>
        <pt x="2494" y="-169" on="0"/>
        <pt x="2575" y="-172" on="1"/>
        <pt x="2694" y="-175" on="0"/>
        <pt x="2711" y="-180" on="1"/>
      </contour>
      <contour>
        <pt x="1821" y="754" on="1"/>
        <pt x="1821" y="686" on="0"/>
        <pt x="1696" y="625" on="1"/>
        <pt x="1587" y="572" on="0"/>
        <pt x="1548" y="579" on="1"/>
        <pt x="1504" y="592" on="1"/>
        <pt x="1509" y="627" on="0"/>
        <pt x="1552" y="651" on="1"/>
        <pt x="1615" y="686" on="0"/>
        <pt x="1627" y="697" on="1"/>
        <pt x="1613" y="713" on="0"/>
        <pt x="1586" y="713" on="1"/>
        <pt x="1560" y="713" on="0"/>
        <pt x="1503" y="675" on="0"/>
        <pt x="1487" y="675" on="1"/>
        <pt x="1475" y="675" on="0"/>
        <pt x="1463" y="680" on="1"/>
        <pt x="1528" y="815" on="0"/>
        <pt x="1647" y="815" on="1"/>
        <pt x="1646" y="815" on="0"/>
        <pt x="1809" y="782" on="1"/>
        <pt x="1809" y="779" on="0"/>
        <pt x="1821" y="768" on="0"/>
      </contour>
      <contour>
        <pt x="2814" y="-340" on="1"/>
        <pt x="2797" y="-356" on="0"/>
        <pt x="2770" y="-380" on="1"/>
        <pt x="2625" y="-427" on="0"/>
        <pt x="2338" y="-516" on="1"/>
        <pt x="2323" y="-504" on="0"/>
        <pt x="2314" y="-504" on="1"/>
        <pt x="2314" y="-439" on="0"/>
        <pt x="2356" y="-417" on="1"/>
        <pt x="2434" y="-379" on="0"/>
        <pt x="2587" y="-332" on="1"/>
        <pt x="2724" y="-290" on="0"/>
        <pt x="2749" y="-290" on="1"/>
        <pt x="2801" y="-290" on="1"/>
        <pt x="2814" y="-303" on="1"/>
      </contour>
      <contour>
        <pt x="2158" y="242" on="1"/>
        <pt x="2158" y="146" on="0"/>
        <pt x="2123" y="81" on="1"/>
        <pt x="2077" y="-4" on="0"/>
        <pt x="1980" y="-4" on="1"/>
        <pt x="1910" y="-4" on="0"/>
        <pt x="1773" y="57" on="0"/>
        <pt x="1775" y="57" on="1"/>
        <pt x="1775" y="57" on="0"/>
        <pt x="1600" y="-65" on="0"/>
        <pt x="1493" y="-65" on="1"/>
        <pt x="1393" y="-65" on="0"/>
        <pt x="1315" y="-1" on="1"/>
        <pt x="1230" y="67" on="0"/>
        <pt x="1224" y="174" on="1"/>
        <pt x="1223" y="182" on="0"/>
        <pt x="1211" y="201" on="1"/>
        <pt x="962" y="-24" on="0"/>
        <pt x="608" y="-24" on="1"/>
        <pt x="450" y="-24" on="0"/>
        <pt x="350" y="50" on="1"/>
        <pt x="244" y="128" on="0"/>
        <pt x="244" y="257" on="1"/>
        <pt x="244" y="410" on="0"/>
        <pt x="393" y="508" on="1"/>
        <pt x="408" y="493" on="0"/>
        <pt x="408" y="477" on="1"/>
        <pt x="408" y="466" on="0"/>
        <pt x="357" y="345" on="0"/>
        <pt x="357" y="328" on="1"/>
        <pt x="357" y="218" on="0"/>
        <pt x="468" y="166" on="1"/>
        <pt x="547" y="129" on="0"/>
        <pt x="664" y="129" on="1"/>
        <pt x="797" y="129" on="0"/>
        <pt x="961" y="178" on="1"/>
        <pt x="1197" y="248" on="0"/>
        <pt x="1197" y="374" on="1"/>
        <pt x="1145" y="1014" on="1"/>
        <pt x="1145" y="1124" on="0"/>
        <pt x="1202" y="1173" on="1"/>
        <pt x="1239" y="1125" on="0"/>
        <pt x="1255" y="953" on="1"/>
        <pt x="1265" y="815" on="0"/>
        <pt x="1275" y="677" on="1"/>
        <pt x="1289" y="573" on="0"/>
        <pt x="1305" y="390" on="1"/>
        <pt x="1307" y="226" on="0"/>
        <pt x="1362" y="159" on="1"/>
        <pt x="1413" y="98" on="0"/>
        <pt x="1524" y="98" on="1"/>
        <pt x="1626" y="98" on="0"/>
        <pt x="1779" y="211" on="0"/>
        <pt x="1811" y="211" on="1"/>
        <pt x="1822" y="211" on="0"/>
        <pt x="2002" y="149" on="0"/>
        <pt x="2015" y="149" on="1"/>
        <pt x="2054" y="149" on="0"/>
        <pt x="2063" y="166" on="1"/>
        <pt x="2067" y="174" on="0"/>
        <pt x="2067" y="206" on="1"/>
        <pt x="2067" y="320" on="0"/>
        <pt x="2001" y="706" on="1"/>
        <pt x="1996" y="784" on="0"/>
        <pt x="1971" y="931" on="1"/>
        <pt x="1968" y="940" on="0"/>
        <pt x="1949" y="984" on="1"/>
        <pt x="1933" y="1019" on="0"/>
        <pt x="1933" y="1035" on="1"/>
        <pt x="1933" y="1075" on="0"/>
        <pt x="1982" y="1159" on="1"/>
        <pt x="2024" y="1232" on="0"/>
        <pt x="2041" y="1245" on="1"/>
        <pt x="2059" y="1235" on="0"/>
        <pt x="2063" y="1191" on="1"/>
        <pt x="2067" y="1130" on="0"/>
        <pt x="2079" y="1099" on="1"/>
        <pt x="2088" y="1076" on="0"/>
        <pt x="2135" y="1067" on="1"/>
        <pt x="2158" y="1052" on="0"/>
        <pt x="2158" y="1025" on="1"/>
        <pt x="2158" y="1012" on="0"/>
        <pt x="2087" y="889" on="0"/>
        <pt x="2087" y="877" on="1"/>
      </contour>
      <contour>
        <pt x="1985" y="-306" on="1"/>
        <pt x="1985" y="-344" on="0"/>
        <pt x="1953" y="-370" on="1"/>
        <pt x="1925" y="-393" on="0"/>
        <pt x="1898" y="-393" on="1"/>
        <pt x="1885" y="-393" on="0"/>
        <pt x="1808" y="-352" on="0"/>
        <pt x="1796" y="-352" on="1"/>
        <pt x="1785" y="-352" on="0"/>
        <pt x="1714" y="-413" on="0"/>
        <pt x="1698" y="-413" on="1"/>
        <pt x="1666" y="-413" on="0"/>
        <pt x="1629" y="-380" on="1"/>
        <pt x="1596" y="-348" on="0"/>
        <pt x="1596" y="-326" on="1"/>
        <pt x="1596" y="-307" on="0"/>
        <pt x="1674" y="-229" on="0"/>
        <pt x="1693" y="-229" on="1"/>
        <pt x="1704" y="-229" on="0"/>
        <pt x="1772" y="-270" on="0"/>
        <pt x="1785" y="-270" on="1"/>
        <pt x="1796" y="-270" on="0"/>
        <pt x="1869" y="-208" on="0"/>
        <pt x="1882" y="-208" on="1"/>
        <pt x="1914" y="-208" on="0"/>
        <pt x="1985" y="-273" on="0"/>
      </contour>
      <contour>
        <pt x="981" y="528" on="1"/>
        <pt x="981" y="449" on="0"/>
        <pt x="899" y="387" on="1"/>
        <pt x="827" y="333" on="0"/>
        <pt x="761" y="333" on="1"/>
        <pt x="712" y="333" on="0"/>
        <pt x="642" y="367" on="1"/>
        <pt x="590" y="392" on="0"/>
        <pt x="573" y="408" on="1"/>
        <pt x="573" y="455" on="1"/>
        <pt x="667" y="426" on="0"/>
        <pt x="720" y="426" on="1"/>
        <pt x="773" y="426" on="0"/>
        <pt x="828" y="453" on="1"/>
        <pt x="819" y="476" on="0"/>
        <pt x="786" y="487" on="1"/>
        <pt x="749" y="500" on="0"/>
        <pt x="729" y="531" on="1"/>
        <pt x="715" y="551" on="0"/>
        <pt x="715" y="584" on="1"/>
        <pt x="715" y="628" on="0"/>
        <pt x="776" y="720" on="1"/>
        <pt x="844" y="825" on="0"/>
        <pt x="904" y="825" on="1"/>
        <pt x="961" y="825" on="0"/>
        <pt x="961" y="779" on="1"/>
        <pt x="961" y="736" on="0"/>
        <pt x="886" y="669" on="0"/>
        <pt x="838" y="664" on="1"/>
        <pt x="878" y="612" on="0"/>
        <pt x="941" y="588" on="1"/>
        <pt x="981" y="573" on="0"/>
      </contour>
    </TTGlyph>
    <TTGlyph name="uniFB54" xMin="281" yMin="-301" xMax="2707" yMax="1511">
      <contour>
        <pt x="2657" y="1173" on="1"/>
        <pt x="2657" y="1149" on="0"/>
        <pt x="2622" y="1112" on="1"/>
        <pt x="2611" y="1116" on="0"/>
        <pt x="2566" y="1141" on="1"/>
        <pt x="2527" y="1163" on="0"/>
        <pt x="2513" y="1163" on="1"/>
        <pt x="2518" y="1163" on="0"/>
        <pt x="2361" y="1044" on="1"/>
        <pt x="2196" y="920" on="0"/>
        <pt x="2091" y="893" on="1"/>
        <pt x="2064" y="877" on="0"/>
        <pt x="2046" y="877" on="1"/>
        <pt x="1982" y="877" on="1"/>
        <pt x="1982" y="880" on="0"/>
        <pt x="1995" y="912" on="1"/>
        <pt x="2277" y="1084" on="0"/>
        <pt x="2422" y="1201" on="1"/>
        <pt x="2422" y="1226" on="1"/>
        <pt x="2384" y="1236" on="0"/>
        <pt x="2354" y="1277" on="1"/>
        <pt x="2329" y="1312" on="0"/>
        <pt x="2329" y="1337" on="1"/>
        <pt x="2329" y="1380" on="0"/>
        <pt x="2458" y="1511" on="0"/>
        <pt x="2503" y="1511" on="1"/>
        <pt x="2578" y="1511" on="0"/>
        <pt x="2578" y="1394" on="1"/>
        <pt x="2578" y="1374" on="0"/>
        <pt x="2574" y="1310" on="0"/>
        <pt x="2574" y="1301" on="1"/>
        <pt x="2574" y="1288" on="0"/>
        <pt x="2576" y="1284" on="1"/>
        <pt x="2590" y="1262" on="0"/>
        <pt x="2631" y="1228" on="1"/>
        <pt x="2657" y="1207" on="0"/>
      </contour>
      <contour>
        <pt x="1253" y="1402" on="1"/>
        <pt x="1253" y="1379" on="0"/>
        <pt x="1082" y="1277" on="1"/>
        <pt x="977" y="1215" on="0"/>
        <pt x="872" y="1153" on="1"/>
        <pt x="826" y="1153" on="1"/>
        <pt x="813" y="1154" on="0"/>
        <pt x="813" y="1178" on="1"/>
        <pt x="813" y="1232" on="0"/>
        <pt x="990" y="1334" on="1"/>
        <pt x="1099" y="1392" on="0"/>
        <pt x="1207" y="1448" on="1"/>
        <pt x="1253" y="1448" on="1"/>
      </contour>
      <contour>
        <pt x="2707" y="226" on="1"/>
        <pt x="2707" y="54" on="0"/>
        <pt x="2356" y="-301" on="0"/>
        <pt x="2191" y="-301" on="1"/>
        <pt x="1965" y="-301" on="0"/>
        <pt x="1799" y="-259" on="1"/>
        <pt x="1787" y="-247" on="1"/>
        <pt x="1787" y="-210" on="1"/>
        <pt x="1812" y="-188" on="0"/>
        <pt x="1842" y="-188" on="1"/>
        <pt x="1856" y="-188" on="0"/>
        <pt x="1978" y="-208" on="0"/>
        <pt x="1991" y="-208" on="1"/>
        <pt x="2116" y="-208" on="0"/>
        <pt x="2301" y="-125" on="1"/>
        <pt x="2395" y="-82" on="0"/>
        <pt x="2494" y="17" on="1"/>
        <pt x="2532" y="56" on="0"/>
        <pt x="2626" y="184" on="0"/>
        <pt x="2626" y="201" on="1"/>
        <pt x="2626" y="216" on="0"/>
        <pt x="2517" y="325" on="1"/>
        <pt x="2503" y="339" on="0"/>
        <pt x="2503" y="385" on="1"/>
        <pt x="2503" y="419" on="0"/>
        <pt x="2526" y="466" on="1"/>
        <pt x="2568" y="466" on="1"/>
        <pt x="2603" y="467" on="0"/>
        <pt x="2662" y="393" on="1"/>
        <pt x="2707" y="336" on="0"/>
      </contour>
      <contour>
        <pt x="2063" y="374" on="1"/>
        <pt x="2063" y="270" on="0"/>
        <pt x="1982" y="111" on="1"/>
        <pt x="1874" y="-105" on="0"/>
        <pt x="1724" y="-173" on="1"/>
        <pt x="1623" y="-219" on="0"/>
        <pt x="1402" y="-219" on="1"/>
        <pt x="1235" y="-219" on="0"/>
        <pt x="1162" y="-185" on="1"/>
        <pt x="1162" y="-149" on="1"/>
        <pt x="1169" y="-144" on="0"/>
        <pt x="1186" y="-131" on="1"/>
        <pt x="1384" y="-125" on="0"/>
        <pt x="1474" y="-114" on="1"/>
        <pt x="1596" y="-99" on="0"/>
        <pt x="1750" y="20" on="1"/>
        <pt x="1917" y="149" on="0"/>
        <pt x="1970" y="298" on="1"/>
        <pt x="1964" y="333" on="1"/>
        <pt x="1896" y="251" on="0"/>
        <pt x="1837" y="251" on="1"/>
        <pt x="1785" y="251" on="0"/>
        <pt x="1741" y="326" on="1"/>
        <pt x="1705" y="387" on="0"/>
        <pt x="1705" y="420" on="1"/>
        <pt x="1705" y="471" on="0"/>
        <pt x="1751" y="567" on="1"/>
        <pt x="1806" y="682" on="0"/>
        <pt x="1868" y="682" on="1"/>
        <pt x="1923" y="682" on="0"/>
        <pt x="1983" y="599" on="1"/>
        <pt x="2032" y="532" on="0"/>
        <pt x="2049" y="473" on="1"/>
        <pt x="2063" y="424" on="0"/>
      </contour>
      <contour>
        <pt x="1029" y="1122" on="1"/>
        <pt x="1029" y="1072" on="0"/>
        <pt x="841" y="979" on="1"/>
        <pt x="801" y="960" on="0"/>
        <pt x="584" y="866" on="1"/>
        <pt x="538" y="877" on="1"/>
        <pt x="538" y="927" on="1"/>
        <pt x="606" y="976" on="0"/>
        <pt x="749" y="1040" on="1"/>
        <pt x="906" y="1111" on="0"/>
        <pt x="971" y="1153" on="1"/>
        <pt x="1016" y="1153" on="1"/>
        <pt x="1029" y="1139" on="0"/>
      </contour>
      <contour>
        <pt x="1510" y="283" on="1"/>
        <pt x="1510" y="256" on="0"/>
        <pt x="1442" y="170" on="0"/>
        <pt x="1421" y="170" on="1"/>
        <pt x="1168" y="170" on="1"/>
        <pt x="1167" y="170" on="0"/>
        <pt x="954" y="80" on="1"/>
        <pt x="750" y="-4" on="0"/>
        <pt x="619" y="-4" on="1"/>
        <pt x="564" y="-4" on="0"/>
        <pt x="496" y="21" on="1"/>
        <pt x="407" y="54" on="0"/>
        <pt x="377" y="111" on="1"/>
        <pt x="371" y="138" on="0"/>
        <pt x="360" y="184" on="1"/>
        <pt x="322" y="302" on="0"/>
        <pt x="322" y="554" on="1"/>
        <pt x="281" y="1086" on="1"/>
        <pt x="281" y="1171" on="0"/>
        <pt x="326" y="1214" on="1"/>
        <pt x="379" y="1198" on="0"/>
        <pt x="386" y="1025" on="1"/>
        <pt x="392" y="899" on="0"/>
        <pt x="410" y="646" on="1"/>
        <pt x="414" y="569" on="0"/>
        <pt x="416" y="492" on="1"/>
        <pt x="422" y="385" on="0"/>
        <pt x="441" y="330" on="1"/>
        <pt x="454" y="286" on="0"/>
        <pt x="468" y="242" on="1"/>
        <pt x="496" y="180" on="0"/>
        <pt x="552" y="180" on="1"/>
        <pt x="566" y="180" on="0"/>
        <pt x="791" y="467" on="0"/>
        <pt x="865" y="467" on="1"/>
        <pt x="877" y="467" on="0"/>
        <pt x="1240" y="313" on="0"/>
        <pt x="1325" y="313" on="1"/>
        <pt x="1323" y="313" on="0"/>
        <pt x="1399" y="312" on="1"/>
        <pt x="1464" y="311" on="0"/>
        <pt x="1498" y="311" on="1"/>
        <pt x="1498" y="309" on="0"/>
        <pt x="1510" y="297" on="0"/>
      </contour>
      <contour>
        <pt x="1909" y="439" on="1"/>
        <pt x="1909" y="473" on="0"/>
        <pt x="1865" y="518" on="1"/>
        <pt x="1830" y="518" on="1"/>
        <pt x="1807" y="494" on="0"/>
        <pt x="1807" y="472" on="1"/>
        <pt x="1807" y="453" on="0"/>
        <pt x="1844" y="415" on="0"/>
        <pt x="1863" y="415" on="1"/>
        <pt x="1885" y="415" on="0"/>
      </contour>
      <contour>
        <pt x="947" y="241" on="1"/>
        <pt x="848" y="303" on="0"/>
        <pt x="813" y="303" on="1"/>
        <pt x="783" y="303" on="0"/>
        <pt x="739" y="270" on="1"/>
        <pt x="690" y="235" on="0"/>
        <pt x="677" y="193" on="1"/>
        <pt x="682" y="170" on="1"/>
        <pt x="736" y="170" on="1"/>
        <pt x="775" y="170" on="0"/>
      </contour>
    </TTGlyph>
    <TTGlyph name="uniFB55" xMin="202" yMin="-407" xMax="1697" yMax="1241">
      <contour>
        <pt x="1595" y="1189" on="1"/>
        <pt x="1595" y="1151" on="0"/>
        <pt x="1570" y="1100" on="1"/>
        <pt x="1541" y="1041" on="0"/>
        <pt x="1489" y="1018" on="1"/>
        <pt x="1341" y="954" on="0"/>
        <pt x="1303" y="954" on="1"/>
        <pt x="1273" y="954" on="0"/>
        <pt x="1253" y="978" on="1"/>
        <pt x="1236" y="999" on="0"/>
        <pt x="1236" y="1021" on="1"/>
        <pt x="1236" y="1052" on="0"/>
        <pt x="1297" y="1149" on="0"/>
        <pt x="1325" y="1158" on="1"/>
        <pt x="1331" y="1149" on="0"/>
        <pt x="1325" y="1122" on="1"/>
        <pt x="1318" y="1089" on="0"/>
        <pt x="1318" y="1084" on="1"/>
        <pt x="1336" y="1066" on="0"/>
        <pt x="1351" y="1066" on="1"/>
        <pt x="1382" y="1106" on="0"/>
        <pt x="1423" y="1189" on="1"/>
        <pt x="1459" y="1189" on="1"/>
        <pt x="1460" y="1187" on="0"/>
        <pt x="1464" y="1130" on="1"/>
        <pt x="1465" y="1117" on="0"/>
        <pt x="1468" y="1108" on="1"/>
        <pt x="1491" y="1121" on="0"/>
        <pt x="1518" y="1161" on="1"/>
        <pt x="1552" y="1215" on="0"/>
        <pt x="1557" y="1220" on="1"/>
        <pt x="1595" y="1220" on="0"/>
      </contour>
      <contour>
        <pt x="888" y="1144" on="1"/>
        <pt x="888" y="1083" on="0"/>
        <pt x="732" y="1008" on="1"/>
        <pt x="598" y="944" on="0"/>
        <pt x="561" y="944" on="1"/>
        <pt x="546" y="944" on="0"/>
        <pt x="513" y="956" on="0"/>
        <pt x="510" y="956" on="1"/>
        <pt x="518" y="989" on="0"/>
        <pt x="571" y="1018" on="1"/>
        <pt x="680" y="1078" on="0"/>
        <pt x="704" y="1094" on="1"/>
        <pt x="704" y="1102" on="0"/>
        <pt x="653" y="1128" on="0"/>
        <pt x="643" y="1128" on="1"/>
        <pt x="631" y="1128" on="0"/>
        <pt x="577" y="1101" on="1"/>
        <pt x="519" y="1072" on="0"/>
        <pt x="500" y="1067" on="1"/>
        <pt x="500" y="1101" on="1"/>
        <pt x="499" y="1132" on="0"/>
        <pt x="645" y="1241" on="0"/>
        <pt x="678" y="1241" on="1"/>
        <pt x="716" y="1241" on="0"/>
        <pt x="796" y="1210" on="1"/>
        <pt x="888" y="1176" on="0"/>
      </contour>
      <contour>
        <pt x="1697" y="-172" on="1"/>
        <pt x="1697" y="-212" on="0"/>
        <pt x="1663" y="-230" on="1"/>
        <pt x="1355" y="-387" on="0"/>
        <pt x="1301" y="-386" on="1"/>
        <pt x="1250" y="-386" on="1"/>
        <pt x="1236" y="-373" on="0"/>
        <pt x="1236" y="-356" on="1"/>
        <pt x="1236" y="-305" on="0"/>
        <pt x="1414" y="-241" on="1"/>
        <pt x="1491" y="-207" on="0"/>
        <pt x="1640" y="-141" on="1"/>
        <pt x="1684" y="-141" on="1"/>
        <pt x="1697" y="-154" on="0"/>
      </contour>
      <contour>
        <pt x="694" y="483" on="1"/>
        <pt x="694" y="461" on="0"/>
        <pt x="674" y="424" on="1"/>
        <pt x="652" y="381" on="0"/>
        <pt x="627" y="381" on="1"/>
        <pt x="608" y="381" on="0"/>
        <pt x="499" y="455" on="0"/>
        <pt x="499" y="473" on="1"/>
        <pt x="499" y="496" on="0"/>
        <pt x="539" y="542" on="1"/>
        <pt x="577" y="586" on="0"/>
        <pt x="591" y="586" on="1"/>
        <pt x="640" y="586" on="0"/>
        <pt x="671" y="541" on="1"/>
        <pt x="694" y="509" on="0"/>
      </contour>
      <contour>
        <pt x="1636" y="279" on="1"/>
        <pt x="1636" y="115" on="0"/>
        <pt x="1538" y="115" on="1"/>
        <pt x="1453" y="115" on="0"/>
        <pt x="1381" y="144" on="1"/>
        <pt x="1327" y="170" on="0"/>
        <pt x="1274" y="197" on="1"/>
        <pt x="1218" y="120" on="0"/>
        <pt x="1162" y="87" on="1"/>
        <pt x="1127" y="76" on="0"/>
        <pt x="1064" y="46" on="1"/>
        <pt x="1062" y="-40" on="0"/>
        <pt x="1048" y="-136" on="1"/>
        <pt x="1031" y="-251" on="0"/>
        <pt x="838" y="-335" on="1"/>
        <pt x="675" y="-407" on="0"/>
        <pt x="545" y="-407" on="1"/>
        <pt x="424" y="-407" on="0"/>
        <pt x="322" y="-337" on="1"/>
        <pt x="202" y="-253" on="0"/>
        <pt x="202" y="-115" on="1"/>
        <pt x="202" y="-67" on="0"/>
        <pt x="250" y="39" on="1"/>
        <pt x="304" y="157" on="0"/>
        <pt x="349" y="174" on="1"/>
        <pt x="386" y="174" on="1"/>
        <pt x="380" y="134" on="0"/>
        <pt x="346" y="43" on="1"/>
        <pt x="315" y="-44" on="0"/>
        <pt x="315" y="-54" on="1"/>
        <pt x="315" y="-147" on="0"/>
        <pt x="427" y="-202" on="1"/>
        <pt x="512" y="-244" on="0"/>
        <pt x="591" y="-244" on="1"/>
        <pt x="669" y="-244" on="0"/>
        <pt x="799" y="-202" on="1"/>
        <pt x="970" y="-147" on="0"/>
        <pt x="970" y="-69" on="1"/>
        <pt x="970" y="7" on="0"/>
        <pt x="956" y="46" on="1"/>
        <pt x="943" y="82" on="0"/>
        <pt x="893" y="161" on="1"/>
        <pt x="848" y="230" on="0"/>
        <pt x="848" y="242" on="1"/>
        <pt x="848" y="285" on="0"/>
        <pt x="891" y="350" on="1"/>
        <pt x="931" y="343" on="0"/>
        <pt x="977" y="273" on="1"/>
        <pt x="1020" y="206" on="0"/>
        <pt x="1078" y="206" on="1"/>
        <pt x="1191" y="206" on="0"/>
        <pt x="1291" y="368" on="1"/>
        <pt x="1304" y="390" on="0"/>
        <pt x="1381" y="466" on="1"/>
        <pt x="1470" y="555" on="0"/>
        <pt x="1497" y="555" on="1"/>
        <pt x="1559" y="555" on="0"/>
        <pt x="1603" y="419" on="1"/>
        <pt x="1636" y="320" on="0"/>
      </contour>
      <contour>
        <pt x="1491" y="289" on="1"/>
        <pt x="1491" y="336" on="1"/>
        <pt x="1471" y="380" on="0"/>
        <pt x="1434" y="380" on="1"/>
        <pt x="1429" y="375" on="0"/>
        <pt x="1405" y="340" on="0"/>
        <pt x="1400" y="334" on="1"/>
        <pt x="1446" y="289" on="0"/>
        <pt x="1458" y="289" on="1"/>
      </contour>
    </TTGlyph>
    <TTGlyph name="uniFB56" xMin="284" yMin="-779" xMax="2494" yMax="1779">
      <contour>
        <pt x="2494" y="1720" on="1"/>
        <pt x="2393" y="1647" on="0"/>
        <pt x="1988" y="1452" on="1"/>
        <pt x="1980" y="1457" on="0"/>
        <pt x="1963" y="1467" on="0"/>
        <pt x="1963" y="1483" on="1"/>
        <pt x="1963" y="1528" on="0"/>
        <pt x="1999" y="1549" on="1"/>
        <pt x="2108" y="1615" on="0"/>
        <pt x="2262" y="1695" on="1"/>
        <pt x="2422" y="1779" on="0"/>
        <pt x="2440" y="1778" on="1"/>
        <pt x="2494" y="1778" on="1"/>
      </contour>
      <contour>
        <pt x="2434" y="1278" on="1"/>
        <pt x="2434" y="1246" on="0"/>
        <pt x="2355" y="1226" on="1"/>
        <pt x="2265" y="1201" on="0"/>
        <pt x="2249" y="1180" on="1"/>
        <pt x="2254" y="1176" on="0"/>
        <pt x="2276" y="1141" on="1"/>
        <pt x="2295" y="1017" on="0"/>
        <pt x="2324" y="792" on="1"/>
        <pt x="2372" y="283" on="0"/>
        <pt x="2372" y="208" on="1"/>
        <pt x="2372" y="115" on="0"/>
        <pt x="2327" y="49" on="1"/>
        <pt x="2293" y="72" on="0"/>
        <pt x="2284" y="160" on="1"/>
        <pt x="2279" y="229" on="0"/>
        <pt x="2273" y="299" on="1"/>
        <pt x="2256" y="464" on="0"/>
        <pt x="2215" y="791" on="1"/>
        <pt x="2185" y="989" on="0"/>
        <pt x="2191" y="1078" on="1"/>
        <pt x="2191" y="1081" on="0"/>
        <pt x="2215" y="1125" on="0"/>
        <pt x="2215" y="1144" on="1"/>
        <pt x="2215" y="1155" on="0"/>
        <pt x="2212" y="1166" on="1"/>
        <pt x="2179" y="1153" on="0"/>
        <pt x="2121" y="1124" on="1"/>
        <pt x="2118" y="1150" on="0"/>
        <pt x="2113" y="1198" on="1"/>
        <pt x="2055" y="1259" on="0"/>
        <pt x="2055" y="1278" on="1"/>
        <pt x="2055" y="1320" on="0"/>
        <pt x="2140" y="1388" on="1"/>
        <pt x="2221" y="1452" on="0"/>
        <pt x="2255" y="1452" on="1"/>
        <pt x="2282" y="1452" on="0"/>
        <pt x="2331" y="1405" on="0"/>
        <pt x="2331" y="1385" on="1"/>
        <pt x="2331" y="1370" on="0"/>
        <pt x="2315" y="1348" on="1"/>
        <pt x="2292" y="1320" on="0"/>
        <pt x="2290" y="1316" on="1"/>
        <pt x="2321" y="1308" on="0"/>
        <pt x="2420" y="1308" on="1"/>
        <pt x="2422" y="1307" on="0"/>
        <pt x="2423" y="1306" on="1"/>
        <pt x="2434" y="1296" on="0"/>
      </contour>
      <contour>
        <pt x="2044" y="914" on="1"/>
        <pt x="2044" y="829" on="0"/>
        <pt x="1732" y="725" on="1"/>
        <pt x="1727" y="730" on="0"/>
        <pt x="1702" y="745" on="0"/>
        <pt x="1697" y="750" on="1"/>
        <pt x="1753" y="786" on="0"/>
        <pt x="1861" y="864" on="1"/>
        <pt x="1850" y="889" on="0"/>
        <pt x="1794" y="889" on="1"/>
        <pt x="1792" y="889" on="0"/>
        <pt x="1669" y="827" on="1"/>
        <pt x="1655" y="829" on="0"/>
        <pt x="1655" y="853" on="1"/>
        <pt x="1655" y="888" on="0"/>
        <pt x="1718" y="945" on="1"/>
        <pt x="1778" y="1001" on="0"/>
        <pt x="1809" y="1001" on="1"/>
        <pt x="1791" y="1001" on="0"/>
        <pt x="2021" y="956" on="1"/>
        <pt x="2044" y="941" on="0"/>
      </contour>
      <contour>
        <pt x="980" y="1518" on="1"/>
        <pt x="980" y="1467" on="0"/>
        <pt x="901" y="1425" on="1"/>
        <pt x="842" y="1396" on="0"/>
        <pt x="783" y="1366" on="1"/>
        <pt x="611" y="1249" on="0"/>
        <pt x="513" y="1206" on="1"/>
        <pt x="499" y="1221" on="0"/>
        <pt x="499" y="1242" on="1"/>
        <pt x="499" y="1292" on="0"/>
        <pt x="696" y="1414" on="1"/>
        <pt x="814" y="1484" on="0"/>
        <pt x="932" y="1554" on="1"/>
        <pt x="967" y="1554" on="1"/>
        <pt x="980" y="1540" on="0"/>
      </contour>
      <contour>
        <pt x="765" y="771" on="1"/>
        <pt x="765" y="740" on="0"/>
        <pt x="694" y="664" on="0"/>
        <pt x="673" y="664" on="1"/>
        <pt x="644" y="664" on="0"/>
        <pt x="560" y="722" on="0"/>
        <pt x="560" y="740" on="1"/>
        <pt x="560" y="762" on="0"/>
        <pt x="603" y="806" on="1"/>
        <pt x="644" y="848" on="0"/>
        <pt x="658" y="848" on="1"/>
        <pt x="681" y="848" on="0"/>
        <pt x="721" y="822" on="1"/>
        <pt x="765" y="794" on="0"/>
      </contour>
      <contour>
        <pt x="2024" y="229" on="1"/>
        <pt x="2024" y="206" on="0"/>
        <pt x="1972" y="59" on="0"/>
        <pt x="1959" y="49" on="1"/>
        <pt x="1791" y="34" on="0"/>
        <pt x="1672" y="131" on="1"/>
        <pt x="1583" y="40" on="0"/>
        <pt x="1540" y="21" on="1"/>
        <pt x="1522" y="13" on="0"/>
        <pt x="1455" y="10" on="1"/>
        <pt x="1399" y="6" on="0"/>
        <pt x="1378" y="-14" on="1"/>
        <pt x="1374" y="-18" on="0"/>
        <pt x="1273" y="-224" on="1"/>
        <pt x="1219" y="-334" on="0"/>
        <pt x="1111" y="-407" on="1"/>
        <pt x="1016" y="-473" on="0"/>
        <pt x="939" y="-473" on="1"/>
        <pt x="875" y="-473" on="0"/>
        <pt x="744" y="-448" on="1"/>
        <pt x="601" y="-422" on="0"/>
        <pt x="561" y="-398" on="1"/>
        <pt x="561" y="-362" on="1"/>
        <pt x="567" y="-357" on="0"/>
        <pt x="584" y="-344" on="1"/>
        <pt x="611" y="-340" on="0"/>
        <pt x="677" y="-350" on="1"/>
        <pt x="749" y="-360" on="0"/>
        <pt x="755" y="-360" on="1"/>
        <pt x="807" y="-360" on="0"/>
        <pt x="882" y="-348" on="1"/>
        <pt x="971" y="-332" on="0"/>
        <pt x="1075" y="-266" on="1"/>
        <pt x="1135" y="-227" on="0"/>
        <pt x="1214" y="-121" on="1"/>
        <pt x="1288" y="-22" on="0"/>
        <pt x="1288" y="3" on="1"/>
        <pt x="1288" y="34" on="0"/>
        <pt x="1268" y="48" on="1"/>
        <pt x="1233" y="74" on="0"/>
        <pt x="1219" y="93" on="1"/>
        <pt x="1215" y="105" on="0"/>
        <pt x="1215" y="131" on="1"/>
        <pt x="1215" y="142" on="0"/>
        <pt x="1238" y="219" on="0"/>
        <pt x="1238" y="233" on="1"/>
        <pt x="1284" y="233" on="1"/>
        <pt x="1350" y="161" on="0"/>
        <pt x="1451" y="161" on="1"/>
        <pt x="1559" y="161" on="0"/>
        <pt x="1649" y="247" on="1"/>
        <pt x="1672" y="268" on="0"/>
        <pt x="1779" y="405" on="1"/>
        <pt x="1846" y="489" on="0"/>
        <pt x="1896" y="489" on="1"/>
        <pt x="1936" y="489" on="0"/>
        <pt x="1949" y="462" on="1"/>
        <pt x="1971" y="415" on="0"/>
        <pt x="2024" y="248" on="0"/>
      </contour>
      <contour>
        <pt x="847" y="238" on="1"/>
        <pt x="847" y="191" on="0"/>
        <pt x="827" y="113" on="1"/>
        <pt x="803" y="18" on="0"/>
        <pt x="771" y="11" on="1"/>
        <pt x="587" y="-32" on="0"/>
        <pt x="504" y="-32" on="1"/>
        <pt x="378" y="-32" on="0"/>
        <pt x="358" y="74" on="1"/>
        <pt x="326" y="243" on="0"/>
        <pt x="320" y="514" on="1"/>
        <pt x="312" y="911" on="0"/>
        <pt x="311" y="935" on="1"/>
        <pt x="309" y="954" on="0"/>
        <pt x="296" y="1006" on="1"/>
        <pt x="284" y="1055" on="0"/>
        <pt x="284" y="1067" on="1"/>
        <pt x="284" y="1081" on="0"/>
        <pt x="301" y="1125" on="1"/>
        <pt x="323" y="1176" on="0"/>
        <pt x="327" y="1194" on="1"/>
        <pt x="374" y="1194" on="1"/>
        <pt x="389" y="1136" on="0"/>
        <pt x="407" y="1017" on="1"/>
        <pt x="413" y="906" on="0"/>
        <pt x="413" y="813" on="1"/>
        <pt x="413" y="748" on="0"/>
        <pt x="407" y="631" on="0"/>
        <pt x="407" y="632" on="1"/>
        <pt x="407" y="305" on="0"/>
        <pt x="449" y="189" on="1"/>
        <pt x="472" y="131" on="0"/>
        <pt x="576" y="131" on="1"/>
        <pt x="640" y="131" on="0"/>
        <pt x="755" y="170" on="1"/>
        <pt x="755" y="196" on="1"/>
        <pt x="755" y="215" on="0"/>
        <pt x="667" y="328" on="1"/>
        <pt x="662" y="332" on="0"/>
        <pt x="662" y="377" on="1"/>
        <pt x="662" y="428" on="0"/>
        <pt x="696" y="478" on="1"/>
        <pt x="704" y="478" on="0"/>
        <pt x="742" y="464" on="1"/>
        <pt x="847" y="372" on="0"/>
      </contour>
      <contour>
        <pt x="1420" y="-549" on="1"/>
        <pt x="1420" y="-597" on="0"/>
        <pt x="1219" y="-682" on="1"/>
        <pt x="1058" y="-750" on="0"/>
        <pt x="943" y="-779" on="1"/>
        <pt x="934" y="-774" on="0"/>
        <pt x="919" y="-765" on="0"/>
        <pt x="919" y="-749" on="1"/>
        <pt x="919" y="-704" on="0"/>
        <pt x="1036" y="-657" on="1"/>
        <pt x="1102" y="-636" on="0"/>
        <pt x="1167" y="-614" on="1"/>
        <pt x="1321" y="-546" on="0"/>
        <pt x="1406" y="-514" on="1"/>
        <pt x="1420" y="-528" on="0"/>
      </contour>
      <contour>
        <pt x="2270" y="1300" on="1"/>
        <pt x="2225" y="1348" on="0"/>
        <pt x="2189" y="1348" on="1"/>
        <pt x="2189" y="1328" on="0"/>
        <pt x="2222" y="1300" on="1"/>
      </contour>
      <contour>
        <pt x="1881" y="237" on="1"/>
        <pt x="1859" y="301" on="0"/>
        <pt x="1835" y="325" on="1"/>
        <pt x="1805" y="294" on="0"/>
        <pt x="1789" y="257" on="1"/>
        <pt x="1858" y="223" on="0"/>
        <pt x="1855" y="223" on="1"/>
        <pt x="1879" y="223" on="0"/>
      </contour>
    </TTGlyph>
    <TTGlyph name="uniFB57" xMin="38" yMin="1589" xMax="508" yMax="2123">
      <contour>
        <pt x="335" y="1851" on="1"/>
        <pt x="335" y="1834" on="0"/>
        <pt x="302" y="1793" on="0"/>
        <pt x="284" y="1793" on="1"/>
        <pt x="270" y="1793" on="0"/>
        <pt x="233" y="1826" on="1"/>
        <pt x="233" y="1874" on="1"/>
        <pt x="258" y="1896" on="0"/>
        <pt x="273" y="1896" on="1"/>
        <pt x="312" y="1896" on="0"/>
      </contour>
      <contour>
        <pt x="508" y="1668" on="1"/>
        <pt x="437" y="1589" on="0"/>
        <pt x="294" y="1589" on="1"/>
        <pt x="38" y="1589" on="0"/>
        <pt x="38" y="1809" on="1"/>
        <pt x="38" y="1828" on="0"/>
        <pt x="63" y="1897" on="1"/>
        <pt x="91" y="1973" on="0"/>
        <pt x="120" y="2023" on="1"/>
        <pt x="100" y="2033" on="0"/>
        <pt x="49" y="2009" on="1"/>
        <pt x="49" y="2043" on="1"/>
        <pt x="49" y="2059" on="0"/>
        <pt x="85" y="2102" on="0"/>
        <pt x="103" y="2107" on="1"/>
        <pt x="159" y="2123" on="0"/>
        <pt x="252" y="2121" on="1"/>
        <pt x="377" y="2118" on="0"/>
        <pt x="403" y="2121" on="1"/>
        <pt x="426" y="2097" on="1"/>
        <pt x="426" y="2070" on="0"/>
        <pt x="403" y="2053" on="1"/>
        <pt x="262" y="2019" on="0"/>
        <pt x="200" y="1980" on="1"/>
        <pt x="109" y="1923" on="0"/>
        <pt x="109" y="1824" on="1"/>
        <pt x="109" y="1671" on="0"/>
        <pt x="316" y="1671" on="1"/>
        <pt x="315" y="1671" on="0"/>
        <pt x="434" y="1668" on="0"/>
      </contour>
    </TTGlyph>
    <TTGlyph name="uniFB58" xMin="353" yMin="-28" xMax="1234" yMax="1425">
      <contour>
        <pt x="1192" y="1378" on="1"/>
        <pt x="1193" y="1366" on="0"/>
        <pt x="1133" y="1321" on="1"/>
        <pt x="1083" y="1283" on="0"/>
        <pt x="1058" y="1268" on="1"/>
        <pt x="932" y="1198" on="0"/>
        <pt x="616" y="995" on="1"/>
        <pt x="581" y="995" on="1"/>
        <pt x="568" y="997" on="0"/>
        <pt x="568" y="1021" on="1"/>
        <pt x="568" y="1076" on="0"/>
        <pt x="849" y="1247" on="1"/>
        <pt x="1035" y="1359" on="0"/>
        <pt x="1167" y="1425" on="1"/>
        <pt x="1182" y="1413" on="0"/>
        <pt x="1192" y="1413" on="1"/>
      </contour>
      <contour>
        <pt x="1234" y="247" on="1"/>
        <pt x="1234" y="186" on="0"/>
        <pt x="1209" y="136" on="1"/>
        <pt x="1180" y="74" on="0"/>
        <pt x="1126" y="74" on="1"/>
        <pt x="1048" y="74" on="0"/>
        <pt x="991" y="97" on="1"/>
        <pt x="989" y="98" on="0"/>
        <pt x="951" y="120" on="1"/>
        <pt x="926" y="135" on="0"/>
        <pt x="906" y="135" on="1"/>
        <pt x="894" y="135" on="0"/>
        <pt x="853" y="83" on="1"/>
        <pt x="808" y="25" on="0"/>
        <pt x="791" y="16" on="1"/>
        <pt x="715" y="-28" on="0"/>
        <pt x="573" y="-28" on="1"/>
        <pt x="437" y="-28" on="0"/>
        <pt x="418" y="47" on="1"/>
        <pt x="373" y="216" on="0"/>
        <pt x="373" y="520" on="1"/>
        <pt x="373" y="814" on="1"/>
        <pt x="373" y="826" on="0"/>
        <pt x="353" y="1079" on="0"/>
        <pt x="353" y="1092" on="1"/>
        <pt x="353" y="1158" on="0"/>
        <pt x="407" y="1230" on="1"/>
        <pt x="414" y="1230" on="0"/>
        <pt x="441" y="1215" on="1"/>
        <pt x="466" y="1128" on="0"/>
        <pt x="466" y="1053" on="1"/>
        <pt x="466" y="773" on="1"/>
        <pt x="466" y="761" on="0"/>
        <pt x="487" y="533" on="0"/>
        <pt x="487" y="520" on="1"/>
        <pt x="487" y="262" on="1"/>
        <pt x="487" y="135" on="0"/>
        <pt x="640" y="135" on="1"/>
        <pt x="828" y="135" on="0"/>
        <pt x="878" y="295" on="1"/>
        <pt x="888" y="325" on="0"/>
        <pt x="966" y="414" on="1"/>
        <pt x="1053" y="514" on="0"/>
        <pt x="1096" y="514" on="1"/>
        <pt x="1147" y="514" on="0"/>
        <pt x="1195" y="389" on="1"/>
        <pt x="1234" y="288" on="0"/>
      </contour>
      <contour>
        <pt x="1090" y="261" on="1"/>
        <pt x="1090" y="295" on="0"/>
        <pt x="1068" y="339" on="1"/>
        <pt x="1032" y="339" on="1"/>
        <pt x="999" y="306" on="0"/>
        <pt x="999" y="292" on="1"/>
        <pt x="1067" y="246" on="0"/>
      </contour>
    </TTGlyph>
    <TTGlyph name="uniFB59" xMin="310" yMin="-145" xMax="3300" yMax="1790">
      <contour>
        <pt x="2328" y="1472" on="1"/>
        <pt x="2328" y="1459" on="0"/>
        <pt x="2315" y="1432" on="0"/>
        <pt x="2315" y="1422" on="1"/>
        <pt x="2312" y="1422" on="0"/>
        <pt x="2286" y="1411" on="0"/>
        <pt x="2271" y="1411" on="1"/>
        <pt x="2261" y="1411" on="0"/>
        <pt x="2209" y="1462" on="0"/>
        <pt x="2194" y="1462" on="1"/>
        <pt x="2182" y="1462" on="0"/>
        <pt x="1873" y="1207" on="0"/>
        <pt x="1860" y="1208" on="1"/>
        <pt x="1796" y="1208" on="1"/>
        <pt x="1810" y="1248" on="0"/>
        <pt x="1924" y="1342" on="1"/>
        <pt x="2068" y="1461" on="0"/>
        <pt x="2102" y="1498" on="1"/>
        <pt x="2041" y="1581" on="0"/>
        <pt x="2041" y="1606" on="1"/>
        <pt x="2041" y="1652" on="0"/>
        <pt x="2084" y="1715" on="1"/>
        <pt x="2136" y="1790" on="0"/>
        <pt x="2199" y="1790" on="1"/>
        <pt x="2235" y="1790" on="0"/>
        <pt x="2261" y="1768" on="1"/>
        <pt x="2281" y="1750" on="0"/>
        <pt x="2281" y="1711" on="1"/>
        <pt x="2281" y="1690" on="0"/>
        <pt x="2266" y="1606" on="0"/>
        <pt x="2266" y="1590" on="1"/>
        <pt x="2266" y="1579" on="0"/>
        <pt x="2270" y="1563" on="0"/>
        <pt x="2300" y="1523" on="1"/>
        <pt x="2328" y="1487" on="0"/>
      </contour>
      <contour>
        <pt x="3300" y="1729" on="1"/>
        <pt x="3300" y="1675" on="0"/>
        <pt x="3231" y="1606" on="0"/>
        <pt x="3133" y="1557" on="1"/>
        <pt x="2143" y="1068" on="0"/>
        <pt x="2143" y="960" on="1"/>
        <pt x="2143" y="957" on="0"/>
        <pt x="2274" y="822" on="1"/>
        <pt x="2424" y="668" on="0"/>
        <pt x="2492" y="569" on="1"/>
        <pt x="2535" y="513" on="0"/>
        <pt x="2600" y="405" on="1"/>
        <pt x="2634" y="324" on="0"/>
        <pt x="2634" y="259" on="1"/>
        <pt x="2634" y="234" on="0"/>
        <pt x="2617" y="173" on="1"/>
        <pt x="2596" y="100" on="0"/>
        <pt x="2550" y="49" on="0"/>
        <pt x="2401" y="23" on="1"/>
        <pt x="2261" y="-2" on="0"/>
        <pt x="2179" y="-2" on="1"/>
        <pt x="2039" y="-2" on="0"/>
        <pt x="1912" y="111" on="1"/>
        <pt x="1895" y="98" on="0"/>
        <pt x="1813" y="22" on="1"/>
        <pt x="1766" y="-22" on="0"/>
        <pt x="1723" y="-22" on="1"/>
        <pt x="1658" y="-22" on="0"/>
        <pt x="1541" y="70" on="0"/>
        <pt x="1529" y="70" on="1"/>
        <pt x="1516" y="70" on="0"/>
        <pt x="1490" y="39" on="1"/>
        <pt x="1462" y="5" on="0"/>
        <pt x="1454" y="1" on="1"/>
        <pt x="1417" y="-21" on="0"/>
        <pt x="1350" y="-50" on="1"/>
        <pt x="947" y="-145" on="0"/>
        <pt x="817" y="-145" on="1"/>
        <pt x="730" y="-145" on="1"/>
        <pt x="580" y="-145" on="0"/>
        <pt x="457" y="-71" on="1"/>
        <pt x="310" y="17" on="0"/>
        <pt x="310" y="161" on="1"/>
        <pt x="310" y="211" on="0"/>
        <pt x="342" y="279" on="1"/>
        <pt x="378" y="358" on="0"/>
        <pt x="429" y="387" on="1"/>
        <pt x="446" y="374" on="1"/>
        <pt x="446" y="355" on="0"/>
        <pt x="423" y="261" on="0"/>
        <pt x="423" y="249" on="1"/>
        <pt x="423" y="18" on="0"/>
        <pt x="828" y="18" on="1"/>
        <pt x="1101" y="18" on="0"/>
        <pt x="1419" y="123" on="1"/>
        <pt x="1454" y="134" on="0"/>
        <pt x="1483" y="187" on="1"/>
        <pt x="1533" y="279" on="0"/>
        <pt x="1552" y="304" on="1"/>
        <pt x="1588" y="304" on="1"/>
        <pt x="1605" y="253" on="0"/>
        <pt x="1592" y="159" on="1"/>
        <pt x="1646" y="120" on="0"/>
        <pt x="1682" y="120" on="1"/>
        <pt x="1723" y="120" on="1"/>
        <pt x="1786" y="120" on="0"/>
        <pt x="1913" y="274" on="0"/>
        <pt x="1943" y="274" on="1"/>
        <pt x="1956" y="274" on="0"/>
        <pt x="2143" y="152" on="0"/>
        <pt x="2189" y="152" on="1"/>
        <pt x="2217" y="152" on="0"/>
        <pt x="2321" y="165" on="1"/>
        <pt x="2452" y="184" on="0"/>
        <pt x="2525" y="205" on="1"/>
        <pt x="2532" y="209" on="0"/>
        <pt x="2532" y="243" on="1"/>
        <pt x="2532" y="293" on="0"/>
        <pt x="2405" y="470" on="1"/>
        <pt x="2273" y="653" on="0"/>
        <pt x="2220" y="653" on="1"/>
        <pt x="2209" y="653" on="0"/>
        <pt x="2177" y="643" on="0"/>
        <pt x="2164" y="643" on="1"/>
        <pt x="2100" y="643" on="0"/>
        <pt x="2057" y="696" on="1"/>
        <pt x="2020" y="743" on="0"/>
        <pt x="2020" y="791" on="1"/>
        <pt x="2020" y="1009" on="0"/>
        <pt x="2168" y="1149" on="1"/>
        <pt x="2279" y="1256" on="0"/>
        <pt x="2506" y="1377" on="1"/>
        <pt x="2679" y="1466" on="0"/>
        <pt x="2852" y="1556" on="1"/>
        <pt x="3062" y="1675" on="0"/>
        <pt x="3285" y="1769" on="1"/>
        <pt x="3300" y="1755" on="0"/>
      </contour>
      <contour>
        <pt x="1939" y="541" on="1"/>
        <pt x="1939" y="523" on="0"/>
        <pt x="1863" y="448" on="0"/>
        <pt x="1846" y="448" on="1"/>
        <pt x="1820" y="448" on="0"/>
        <pt x="1734" y="508" on="0"/>
        <pt x="1734" y="530" on="1"/>
        <pt x="1734" y="558" on="0"/>
        <pt x="1773" y="597" on="1"/>
        <pt x="1810" y="632" on="0"/>
        <pt x="1826" y="632" on="1"/>
        <pt x="1865" y="632" on="0"/>
        <pt x="1905" y="590" on="1"/>
        <pt x="1939" y="555" on="0"/>
      </contour>
      <contour>
        <pt x="1313" y="1517" on="1"/>
        <pt x="1314" y="1489" on="0"/>
        <pt x="1092" y="1364" on="1"/>
        <pt x="899" y="1254" on="0"/>
        <pt x="706" y="1145" on="1"/>
        <pt x="671" y="1145" on="1"/>
        <pt x="658" y="1158" on="0"/>
        <pt x="658" y="1180" on="1"/>
        <pt x="658" y="1233" on="0"/>
        <pt x="931" y="1384" on="1"/>
        <pt x="1114" y="1485" on="0"/>
        <pt x="1288" y="1565" on="1"/>
        <pt x="1303" y="1552" on="0"/>
        <pt x="1313" y="1552" on="1"/>
      </contour>
      <contour>
        <pt x="1160" y="556" on="1"/>
        <pt x="1160" y="525" on="0"/>
        <pt x="1094" y="459" on="0"/>
        <pt x="1063" y="459" on="1"/>
        <pt x="1051" y="459" on="0"/>
        <pt x="994" y="489" on="0"/>
        <pt x="981" y="489" on="1"/>
        <pt x="968" y="489" on="0"/>
        <pt x="886" y="438" on="0"/>
        <pt x="874" y="438" on="1"/>
        <pt x="781" y="438" on="0"/>
        <pt x="781" y="515" on="1"/>
        <pt x="781" y="538" on="0"/>
        <pt x="842" y="623" on="0"/>
        <pt x="863" y="623" on="1"/>
        <pt x="874" y="623" on="0"/>
        <pt x="936" y="591" on="0"/>
        <pt x="951" y="591" on="1"/>
        <pt x="963" y="591" on="0"/>
        <pt x="1040" y="653" on="0"/>
        <pt x="1052" y="653" on="1"/>
        <pt x="1078" y="653" on="0"/>
        <pt x="1117" y="621" on="1"/>
        <pt x="1160" y="587" on="0"/>
      </contour>
      <contour>
        <pt x="2204" y="1653" on="1"/>
        <pt x="2181" y="1677" on="1"/>
        <pt x="2175" y="1677" on="0"/>
        <pt x="2150" y="1665" on="0"/>
        <pt x="2144" y="1665" on="1"/>
        <pt x="2144" y="1661" on="0"/>
        <pt x="2155" y="1622" on="0"/>
        <pt x="2155" y="1616" on="1"/>
        <pt x="2191" y="1616" on="1"/>
        <pt x="2204" y="1629" on="0"/>
      </contour>
    </TTGlyph>
</ttFont>
